<?xml version="1.0" encoding="UTF-8" standalone="no"?>
<!-- Created with Inkscape (http://www.inkscape.org/) -->

<svg
   xmlns:dc="http://purl.org/dc/elements/1.1/"
   xmlns:cc="http://creativecommons.org/ns#"
   xmlns:rdf="http://www.w3.org/1999/02/22-rdf-syntax-ns#"
   xmlns:svg="http://www.w3.org/2000/svg"
   xmlns="http://www.w3.org/2000/svg"
   xmlns:xlink="http://www.w3.org/1999/xlink"
   xmlns:sodipodi="http://sodipodi.sourceforge.net/DTD/sodipodi-0.dtd"
   xmlns:inkscape="http://www.inkscape.org/namespaces/inkscape"
   width="94mm"
   height="42.198067mm"
   viewBox="0 0 94 42.198067"
   version="1.1"
   id="svg8"
   sodipodi:docname="bouncy.svg"
   inkscape:version="0.92.3 (2405546, 2018-03-11)">
  <defs
     id="defs2">
    <linearGradient
       inkscape:collect="always"
       id="linearGradient6283">
      <stop
         style="stop-color:#176f1d;stop-opacity:1"
         offset="0"
         id="stop6279" />
      <stop
         style="stop-color:#176f1d;stop-opacity:0"
         offset="1"
         id="stop6281" />
    </linearGradient>
    <marker
       inkscape:isstock="true"
       style="overflow:visible"
       id="marker6201"
       refX="0"
       refY="0"
       orient="auto"
       inkscape:stockid="TriangleOutM">
      <path
         transform="scale(0.4)"
         style="fill:#000000;fill-opacity:1;fill-rule:evenodd;stroke:#000000;stroke-width:1.00000003pt;stroke-opacity:1"
         d="M 5.77,0 -2.88,5 V -5 Z"
         id="path6199"
         inkscape:connector-curvature="0" />
    </marker>
    <marker
       inkscape:isstock="true"
       style="overflow:visible"
       id="marker6191"
       refX="0"
       refY="0"
       orient="auto"
       inkscape:stockid="TriangleOutM">
      <path
         transform="scale(0.4)"
         style="fill:#000000;fill-opacity:1;fill-rule:evenodd;stroke:#000000;stroke-width:1.00000003pt;stroke-opacity:1"
         d="M 5.77,0 -2.88,5 V -5 Z"
         id="path6189"
         inkscape:connector-curvature="0" />
    </marker>
    <marker
       inkscape:isstock="true"
       style="overflow:visible"
       id="marker6115"
       refX="0"
       refY="0"
       orient="auto"
       inkscape:stockid="Arrow2Mend">
      <path
         transform="scale(-0.6)"
         d="M 8.7185878,4.0337352 -2.2072895,0.01601326 8.7185884,-4.0017078 c -1.7454984,2.3720609 -1.7354408,5.6174519 -6e-7,8.035443 z"
         style="fill:#000000;fill-opacity:1;fill-rule:evenodd;stroke:#000000;stroke-width:0.625;stroke-linejoin:round;stroke-opacity:1"
         id="path6113"
         inkscape:connector-curvature="0" />
    </marker>
    <marker
       inkscape:isstock="true"
       style="overflow:visible"
       id="marker6105"
       refX="0"
       refY="0"
       orient="auto"
       inkscape:stockid="Arrow2Mend">
      <path
         transform="scale(-0.6)"
         d="M 8.7185878,4.0337352 -2.2072895,0.01601326 8.7185884,-4.0017078 c -1.7454984,2.3720609 -1.7354408,5.6174519 -6e-7,8.035443 z"
         style="fill:#000000;fill-opacity:1;fill-rule:evenodd;stroke:#000000;stroke-width:0.625;stroke-linejoin:round;stroke-opacity:1"
         id="path6103"
         inkscape:connector-curvature="0" />
    </marker>
    <marker
       inkscape:stockid="TriangleOutM"
       orient="auto"
       refY="0"
       refX="0"
       id="TriangleOutM"
       style="overflow:visible"
       inkscape:isstock="true"
       inkscape:collect="always">
      <path
         id="path1010"
         d="M 5.77,0 -2.88,5 V -5 Z"
         style="fill:#000000;fill-opacity:1;fill-rule:evenodd;stroke:#000000;stroke-width:1.00000003pt;stroke-opacity:1"
         transform="scale(0.4)"
         inkscape:connector-curvature="0" />
    </marker>
    <marker
       inkscape:stockid="Arrow2Lend"
       orient="auto"
       refY="0"
       refX="0"
       id="Arrow2Lend"
       style="overflow:visible"
       inkscape:isstock="true">
      <path
         id="path886"
         style="fill:#000000;fill-opacity:1;fill-rule:evenodd;stroke:#000000;stroke-width:0.625;stroke-linejoin:round;stroke-opacity:1"
         d="M 8.7185878,4.0337352 -2.2072895,0.01601326 8.7185884,-4.0017078 c -1.7454984,2.3720609 -1.7354408,5.6174519 -6e-7,8.035443 z"
         transform="matrix(-1.1,0,0,-1.1,-1.1,0)"
         inkscape:connector-curvature="0" />
    </marker>
    <marker
       inkscape:stockid="Arrow1Mend"
       orient="auto"
       refY="0"
       refX="0"
       id="Arrow1Mend"
       style="overflow:visible"
       inkscape:isstock="true">
      <path
         id="path874"
         d="M 0,0 5,-5 -12.5,0 5,5 Z"
         style="fill:#000000;fill-opacity:1;fill-rule:evenodd;stroke:#000000;stroke-width:1.00000003pt;stroke-opacity:1"
         transform="matrix(-0.4,0,0,-0.4,-4,0)"
         inkscape:connector-curvature="0" />
    </marker>
    <marker
       inkscape:stockid="Arrow2Mend"
       orient="auto"
       refY="0"
       refX="0"
       id="marker1413-2"
       style="overflow:visible"
       inkscape:isstock="true">
      <path
         inkscape:connector-curvature="0"
         id="path1411-0"
         style="fill:#000000;fill-opacity:1;fill-rule:evenodd;stroke:#000000;stroke-width:0.625;stroke-linejoin:round;stroke-opacity:1"
         d="M 8.7185878,4.0337352 -2.2072895,0.01601326 8.7185884,-4.0017078 c -1.7454984,2.3720609 -1.7354408,5.6174519 -6e-7,8.035443 z"
         transform="scale(-0.6)" />
    </marker>
    <marker
       inkscape:stockid="Arrow2Mend"
       orient="auto"
       refY="0"
       refX="0"
       id="marker1413-6"
       style="overflow:visible"
       inkscape:isstock="true">
      <path
         inkscape:connector-curvature="0"
         id="path1411-9"
         style="fill:#000000;fill-opacity:1;fill-rule:evenodd;stroke:#000000;stroke-width:0.625;stroke-linejoin:round;stroke-opacity:1"
         d="M 8.7185878,4.0337352 -2.2072895,0.01601326 8.7185884,-4.0017078 c -1.7454984,2.3720609 -1.7354408,5.6174519 -6e-7,8.035443 z"
         transform="scale(-0.6)" />
    </marker>
    <linearGradient
       inkscape:collect="always"
       xlink:href="#linearGradient6283"
       id="linearGradient6285"
       x1="10"
       y1="117"
       x2="10"
       y2="123"
       gradientUnits="userSpaceOnUse"
       gradientTransform="matrix(1.0217392,0,0,1,-1.1956525,0)" />
    <marker
       inkscape:isstock="true"
       style="overflow:visible"
       id="marker6201-1"
       refX="0"
       refY="0"
       orient="auto"
       inkscape:stockid="TriangleOutM">
      <path
         inkscape:connector-curvature="0"
         transform="scale(0.4)"
         style="fill:#000000;fill-opacity:1;fill-rule:evenodd;stroke:#000000;stroke-width:1.00000003pt;stroke-opacity:1"
         d="M 5.77,0 -2.88,5 V -5 Z"
         id="path6199-3" />
    </marker>
    <marker
       inkscape:stockid="TriangleOutM"
       orient="auto"
       refY="0"
       refX="0"
       id="TriangleOutM-9"
       style="overflow:visible"
       inkscape:isstock="true"
       inkscape:collect="always">
      <path
         inkscape:connector-curvature="0"
         id="path1010-4"
         d="M 5.77,0 -2.88,5 V -5 Z"
         style="fill:#000000;fill-opacity:1;fill-rule:evenodd;stroke:#000000;stroke-width:1.00000003pt;stroke-opacity:1"
         transform="scale(0.4)" />
    </marker>
    <marker
       inkscape:isstock="true"
       style="overflow:visible"
       id="marker6191-9"
       refX="0"
       refY="0"
       orient="auto"
       inkscape:stockid="TriangleOutM">
      <path
         inkscape:connector-curvature="0"
         transform="scale(0.4)"
         style="fill:#000000;fill-opacity:1;fill-rule:evenodd;stroke:#000000;stroke-width:1.00000003pt;stroke-opacity:1"
         d="M 5.77,0 -2.88,5 V -5 Z"
         id="path6189-6" />
    </marker>
    <marker
       inkscape:isstock="true"
       style="overflow:visible"
       id="marker6201-7"
       refX="0"
       refY="0"
       orient="auto"
       inkscape:stockid="TriangleOutM">
      <path
         inkscape:connector-curvature="0"
         transform="scale(0.4)"
         style="fill:#000000;fill-opacity:1;fill-rule:evenodd;stroke:#000000;stroke-width:1.00000003pt;stroke-opacity:1"
         d="M 5.77,0 -2.88,5 V -5 Z"
         id="path6199-2" />
    </marker>
  </defs>
  <sodipodi:namedview
     id="base"
     pagecolor="#ffffff"
     bordercolor="#666666"
     borderopacity="1.0"
     inkscape:pageopacity="0.0"
     inkscape:pageshadow="2"
     inkscape:zoom="1.4"
     inkscape:cx="69.128968"
     inkscape:cy="14.878562"
     inkscape:document-units="mm"
     inkscape:current-layer="layer1"
     showgrid="false"
     inkscape:object-paths="true"
     inkscape:snap-object-midpoints="true"
     inkscape:snap-to-guides="true"
     showguides="true"
     inkscape:snap-bbox="true"
     inkscape:snap-intersection-paths="true"
     inkscape:snap-global="true"
     inkscape:window-width="1218"
     inkscape:window-height="1001"
     inkscape:window-x="54"
     inkscape:window-y="-8"
     inkscape:window-maximized="1"
     fit-margin-top="0"
     fit-margin-left="0"
     fit-margin-right="0"
     fit-margin-bottom="0">
    <inkscape:grid
       type="xygrid"
       id="grid823"
       originx="-7.9999994"
       originy="-173.99999" />
  </sodipodi:namedview>
  <metadata
     id="metadata5">
    <rdf:RDF>
      <cc:Work
         rdf:about="">
        <dc:format>image/svg+xml</dc:format>
        <dc:type
           rdf:resource="http://purl.org/dc/dcmitype/StillImage" />
        <dc:title />
      </cc:Work>
    </rdf:RDF>
  </metadata>
  <g
     inkscape:label="Layer 1"
     inkscape:groupmode="layer"
     id="layer1"
     transform="translate(-7.9999997,-80.801933)">
    <path
       style="fill:none;stroke:#7f7f7f;stroke-width:0.30000001;stroke-linecap:butt;stroke-linejoin:miter;stroke-miterlimit:4;stroke-dasharray:0.6, 0.3;stroke-dashoffset:0;stroke-opacity:1"
       d="M 10,117 C 20,77 30,77 39.999999,117"
       id="path825"
       inkscape:connector-curvature="0"
       sodipodi:nodetypes="cc" />
    <path
       style="fill:none;stroke:#7f7f7f;stroke-width:0.30000001;stroke-linecap:butt;stroke-linejoin:miter;stroke-miterlimit:4;stroke-dasharray:0.6, 0.3;stroke-dashoffset:0;stroke-opacity:1"
       d="M 40,117 C 50,76.999999 60,76.999999 70,117"
       id="path825-2"
       inkscape:connector-curvature="0"
       sodipodi:nodetypes="cc" />
    <path
       style="fill:none;stroke:#7f7f7f;stroke-width:0.30000001;stroke-linecap:butt;stroke-linejoin:miter;stroke-miterlimit:4;stroke-dasharray:0.6, 0.3;stroke-dashoffset:0;stroke-opacity:1"
       d="m 70,117 c 10,-40.000001 20,-40.000001 30,0"
       id="path825-7"
       inkscape:connector-curvature="0"
       sodipodi:nodetypes="cc" />
    <path
       sodipodi:nodetypes="cc"
       inkscape:connector-curvature="0"
       id="path1367"
       d="M 18.248983,93.091314 V 81.554761"
       style="fill:none;stroke:#000000;stroke-width:0.26499999;stroke-linecap:butt;stroke-linejoin:miter;stroke-miterlimit:4;stroke-dasharray:none;stroke-opacity:1;marker-end:url(#marker6201)" />
    <path
       style="fill:none;stroke:#000000;stroke-width:0.26458332px;stroke-linecap:butt;stroke-linejoin:miter;stroke-opacity:1;marker-end:url(#marker6191)"
       d="m 18.248983,93.091313 6.330723,2e-6"
       id="path1409-1"
       inkscape:connector-curvature="0"
       sodipodi:nodetypes="cc" />
    <path
       style="fill:none;stroke:#000000;stroke-width:0.26458332px;stroke-linecap:butt;stroke-linejoin:miter;stroke-opacity:1;marker-end:url(#TriangleOutM)"
       d="M 18.248983,93.091314 24.579706,81.554762"
       id="path850"
       inkscape:connector-curvature="0"
       sodipodi:nodetypes="cc" />
    <path
       style="opacity:1;vector-effect:none;fill:#ff0000;fill-opacity:1;stroke:none;stroke-width:0.1;stroke-linecap:round;stroke-linejoin:round;stroke-miterlimit:4;stroke-dasharray:none;stroke-dashoffset:0;stroke-opacity:1"
       d="m 19.630132,93.091316 a 1.3811488,1.3811488 0 0 1 -1.381149,1.381149 1.3811488,1.3811488 0 0 1 -1.381148,-1.381149 1.3811488,1.3811488 0 0 1 1.381148,-1.381149 1.3811488,1.3811488 0 0 1 1.381149,1.381149 z"
       id="path848"
       inkscape:connector-curvature="0" />
    <path
       style="opacity:1;vector-effect:none;fill:url(#linearGradient6285);fill-opacity:1;stroke:none;stroke-width:1.01081109;stroke-linecap:round;stroke-linejoin:round;stroke-miterlimit:4;stroke-dasharray:none;stroke-dashoffset:0;stroke-opacity:1"
       d="M 8.0000035,117 H 102 c 0,0 0,0 0,0 v 6 c 0,0 0,0 0,0 H 8.0000035 c -2.1e-6,0 -3.8e-6,0 -3.8e-6,0 v -6 c 0,0 1.7e-6,0 3.8e-6,0 z"
       id="rect6271"
       inkscape:connector-curvature="0" />
    <path
       sodipodi:nodetypes="cc"
       inkscape:connector-curvature="0"
       id="path1367-2"
       d="M 50.346908,95.479663 V 112.31448"
       style="fill:none;stroke:#000000;stroke-width:0.26499999;stroke-linecap:butt;stroke-linejoin:miter;stroke-miterlimit:4;stroke-dasharray:none;stroke-opacity:1;marker-end:url(#marker6201-1)" />
    <g
       aria-label="g"
       style="font-style:normal;font-variant:normal;font-weight:normal;font-stretch:normal;font-size:7.76111126px;line-height:1.25;font-family:'CMU Classical Serif';-inkscape-font-specification:'CMU Classical Serif';text-align:center;letter-spacing:0px;word-spacing:0px;text-anchor:middle;fill:#000000;fill-opacity:1;stroke:none;stroke-width:0.26458332"
       id="text6871">
      <path
         d="m 51.669219,105.17916 q 0,-0.0806 0.05994,-0.15296 0.05995,-0.0703 0.148828,-0.0703 0.06821,0 0.10542,0.0393 0.03721,0.0393 0.03721,0.0992 0,0.12609 -0.134359,0.19017 0.121957,0.0475 0.303858,0.0475 0.210839,0 0.345198,-0.13849 0.134359,-0.13643 0.192237,-0.28525 0.05994,-0.14056 0.152962,-0.57671 -0.241846,0.22531 -0.452686,0.22531 -0.229443,0 -0.374137,-0.18397 -0.142627,-0.18397 -0.142627,-0.46302 0,-0.45682 0.305924,-0.83923 0.307992,-0.38447 0.655258,-0.38447 0.214973,0 0.359667,0.24185 0.03307,-0.15297 0.165365,-0.15297 0.05168,0 0.08268,0.0289 0.03101,0.0289 0.03101,0.0806 0,0.0207 -0.0083,0.0558 l -0.452686,1.81487 q -0.04134,0.15297 -0.05374,0.18604 -0.07648,0.17363 -0.283187,0.33073 -0.204639,0.15709 -0.522965,0.15709 -0.520899,0 -0.520899,-0.25011 z m 0.535368,-1.08314 q 0,0.14056 0.05374,0.25218 0.05581,0.11162 0.181901,0.11162 0.214974,0 0.440283,-0.30592 0.05581,-0.0765 0.07648,-0.13849 0.0124,-0.0372 0.181901,-0.71107 0.02894,-0.10955 0.02894,-0.14469 0,-0.0972 -0.07235,-0.23565 -0.07028,-0.14056 -0.219108,-0.14056 -0.181901,0 -0.359668,0.25012 -0.136426,0.19016 -0.22531,0.54156 -0.08682,0.3514 -0.08682,0.5209 z"
         style="font-size:4.23333311px;stroke-width:0.26458332"
         id="path1027"
         inkscape:connector-curvature="0" />
    </g>
    <g
       aria-label="p"
       style="font-style:normal;font-variant:normal;font-weight:normal;font-stretch:normal;font-size:7.76111126px;line-height:1.25;font-family:'CMU Classical Serif';-inkscape-font-specification:'CMU Classical Serif';text-align:center;letter-spacing:0px;word-spacing:0px;text-anchor:middle;fill:#000000;fill-opacity:1;stroke:none;stroke-width:0.26458332"
       id="text6875">
      <path
         d="m 13.339901,95.549616 q 0,-0.06821 0.113688,-0.07441 0.113688,-0.0062 0.152962,-0.04961 0.02067,-0.02894 0.06201,-0.169499 l 0.463021,-1.862419 q 0.03307,-0.12609 0.03307,-0.173632 0,-0.06408 -0.07441,-0.07442 -0.07441,-0.01033 -0.150895,-0.01447 -0.07441,-0.0041 -0.07441,-0.05374 0,-0.05581 0.06615,-0.07235 0.06821,-0.01654 0.305925,-0.02894 0.03721,-0.02067 0.113688,-0.02274 h 0.03514 q 0.06821,0 0.09508,0.0124 0.02687,0.01034 0.02687,0.04754 0,0.0083 -0.0248,0.109554 0.233577,-0.214974 0.444417,-0.214974 0.233577,0 0.374137,0.186035 0.142627,0.186035 0.142627,0.473356 0,0.469222 -0.310058,0.868164 -0.307992,0.398942 -0.665593,0.398942 -0.219108,0 -0.359668,-0.237711 -0.01654,0.07648 -0.06821,0.272851 -0.04961,0.196371 -0.08888,0.353467 -0.03721,0.157096 -0.03721,0.177767 0,0.07235 0.14056,0.07441 0.142627,0.0021 0.16123,0.03101 0.0083,0.01654 0.0083,0.0248 0,0.02481 -0.02687,0.04754 -0.02481,0.0248 -0.06201,0.0248 -0.02067,0 -0.14056,-0.0041 -0.117822,-0.0041 -0.258382,-0.0041 -0.08475,0 -0.183968,0.0021 -0.09922,0.0021 -0.119889,0.0021 -0.05581,0 -0.07441,-0.01033 -0.0186,-0.01034 -0.0186,-0.03927 z m 0.841292,-1.207161 q 0,0.05581 0.02067,0.136425 0.02274,0.07855 0.09302,0.163298 0.07235,0.08475 0.173633,0.08475 0.157097,0 0.291455,-0.165364 0.136426,-0.167432 0.214974,-0.401009 0.07855,-0.233578 0.121957,-0.444418 0.04547,-0.21084 0.04547,-0.334863 0,-0.173633 -0.06201,-0.270785 -0.05994,-0.09715 -0.165364,-0.09715 -0.22531,0 -0.463021,0.343131 -0.04134,0.06821 -0.07235,0.177767 -0.0083,0.01654 -0.181901,0.711068 -0.01654,0.08475 -0.01654,0.09715 z"
         style="font-size:4.23333311px;stroke-width:0.26458332"
         id="path1024"
         inkscape:connector-curvature="0" />
    </g>
    <g
       aria-label="v"
       style="font-style:normal;font-variant:normal;font-weight:normal;font-stretch:normal;font-size:7.76111126px;line-height:1.25;font-family:'CMU Classical Serif';-inkscape-font-specification:'CMU Classical Serif';text-align:center;letter-spacing:0px;word-spacing:0px;text-anchor:middle;fill:#000000;fill-opacity:1;stroke:none;stroke-width:0.26458332"
       id="text6879">
      <path
         d="m 26.002589,81.072479 q 0,-0.05168 0.04547,-0.06615 0.04754,-0.01447 0.229444,-0.02687 0.12609,-0.0083 0.212907,-0.0186 l 0.0248,-0.0041 q 0.02894,-0.0041 0.05168,-0.0041 0.08062,0 0.08062,0.05581 0,0.03307 -0.05581,0.241845 -0.02894,0.09302 -0.06821,0.113688 -0.241846,0.791683 -0.241846,1.014925 0,0.194304 0.08268,0.270785 0.08268,0.07648 0.194304,0.07648 0.16123,0 0.30179,-0.157096 0.142627,-0.159164 0.219108,-0.372071 0.07855,-0.214974 0.119889,-0.39274 0.04341,-0.177767 0.04341,-0.254248 0,-0.126091 -0.04341,-0.212907 -0.04134,-0.08682 -0.08475,-0.136426 -0.04134,-0.05168 -0.04134,-0.09922 0,-0.08061 0.06615,-0.136426 0.06614,-0.05788 0.132291,-0.05788 0.06821,0 0.121957,0.06615 0.05374,0.06408 0.05374,0.217041 0,0.07235 -0.02687,0.241845 -0.0248,0.169499 -0.09508,0.413412 -0.07028,0.241845 -0.165365,0.458886 -0.09508,0.214974 -0.260449,0.367937 -0.163298,0.152962 -0.359668,0.152962 -0.202572,0 -0.361735,-0.115755 -0.159163,-0.117823 -0.159163,-0.392741 0,-0.130225 0.07028,-0.398942 0.07028,-0.270785 0.138492,-0.489893 0.06821,-0.221175 0.06821,-0.233577 0,-0.06408 -0.142627,-0.06408 -0.0021,0 -0.0041,0.0021 -0.0021,0 -0.0041,0 -0.142627,0 -0.142627,-0.05994 z"
         style="font-size:4.23333311px;stroke-width:0.26458332"
         id="path1021"
         inkscape:connector-curvature="0" />
    </g>
    <g
       aria-label="vx"
       style="font-style:normal;font-variant:normal;font-weight:normal;font-stretch:normal;font-size:4.23333311px;line-height:1.25;font-family:'CMU Classical Serif';-inkscape-font-specification:'CMU Classical Serif';text-align:center;letter-spacing:0px;word-spacing:0px;text-anchor:middle;fill:#000000;fill-opacity:1;stroke:none;stroke-width:0.26458332"
       id="text6883">
      <path
         d="m 22.427586,94.589325 q 0,-0.05168 0.04548,-0.06615 0.04754,-0.01447 0.229443,-0.02687 0.126091,-0.0083 0.212907,-0.0186 l 0.02481,-0.0041 q 0.02894,-0.0041 0.05168,-0.0041 0.08061,0 0.08061,0.05581 0,0.03307 -0.05581,0.241846 -0.02894,0.09302 -0.06821,0.113688 -0.241846,0.791683 -0.241846,1.014925 0,0.194304 0.08268,0.270785 0.08268,0.07648 0.194304,0.07648 0.16123,0 0.30179,-0.157097 0.142627,-0.159163 0.219108,-0.37207 0.07855,-0.214974 0.11989,-0.392741 0.04341,-0.177767 0.04341,-0.254248 0,-0.12609 -0.04341,-0.212907 -0.04134,-0.08682 -0.08475,-0.136425 -0.04134,-0.05168 -0.04134,-0.09922 0,-0.08061 0.06615,-0.136426 0.06615,-0.05788 0.132292,-0.05788 0.06821,0 0.121956,0.06615 0.05374,0.06408 0.05374,0.217041 0,0.07235 -0.02687,0.241846 -0.02481,0.169499 -0.09509,0.413411 -0.07028,0.241846 -0.165365,0.458887 -0.09508,0.214974 -0.260449,0.367936 -0.163297,0.152963 -0.359668,0.152963 -0.202571,0 -0.361735,-0.115756 -0.159163,-0.117822 -0.159163,-0.392741 0,-0.130224 0.07028,-0.398942 0.07028,-0.270784 0.138493,-0.489892 0.06821,-0.221175 0.06821,-0.233578 0,-0.06408 -0.142627,-0.06408 -0.0021,0 -0.0041,0.0021 -0.0021,0 -0.0041,0 -0.142627,0 -0.142627,-0.05994 z"
         style="stroke-width:0.26458332"
         id="path1016"
         inkscape:connector-curvature="0" />
      <path
         d="m 23.886619,96.998894 q 0,-0.05778 0.03628,-0.102113 0.03762,-0.04434 0.09539,-0.04434 0.04165,0 0.06718,0.02687 0.02553,0.02553 0.02553,0.06449 0,0.09405 -0.106144,0.128984 0.06046,0.03493 0.116892,0.03493 0.0027,0 0.004,0 0.04434,0 0.08062,-0.01881 0.03762,-0.01881 0.06718,-0.06315 0.0309,-0.04434 0.05106,-0.08599 0.0215,-0.04299 0.04434,-0.12361 0.02284,-0.08196 0.03628,-0.137046 0.01478,-0.05509 0.03896,-0.161231 0.02553,-0.106143 0.03896,-0.166604 0.03359,-0.146451 0.03359,-0.186759 0,-0.07927 -0.03762,-0.127641 -0.03762,-0.04837 -0.09808,-0.04837 -0.09405,0 -0.180041,0.09002 -0.08599,0.08868 -0.135702,0.22841 -0.0027,0.0054 -0.0054,0.01747 -0.0027,0.01075 -0.0067,0.01478 -0.0027,0.004 -0.0067,0.01344 -0.004,0.0094 -0.0094,0.01478 -0.0054,0.004 -0.01209,0.0067 -0.0067,0.0027 -0.01747,0.0027 -0.03897,0 -0.03897,-0.03628 0,-0.04434 0.04568,-0.137046 0.04568,-0.09405 0.147795,-0.185415 0.103456,-0.09271 0.227066,-0.09271 h 0.0027 q 0.184072,0.0027 0.264687,0.189445 0.1048,-0.189445 0.270061,-0.189445 0.08465,0 0.159887,0.04434 0.07658,0.043 0.07658,0.128984 0,0.06315 -0.04165,0.1048 -0.04165,0.04031 -0.09405,0.04031 -0.03896,0 -0.06449,-0.02419 -0.02553,-0.02553 -0.02553,-0.06315 0,-0.04165 0.02687,-0.07793 0.02822,-0.03762 0.07793,-0.05106 -0.0524,-0.03896 -0.118236,-0.03896 -0.03628,0 -0.07255,0.01478 -0.03493,0.01478 -0.08868,0.09271 -0.05374,0.07659 -0.08733,0.208256 -0.02418,0.09674 -0.04837,0.196164 -0.02284,0.09942 -0.03493,0.147794 -0.01209,0.04703 -0.02687,0.09943 -0.01344,0.0524 -0.01747,0.07524 -0.004,0.0215 -0.0081,0.04703 -0.004,0.02418 -0.0054,0.03628 -0.0013,0.01209 -0.0013,0.0309 0,0.0739 0.03493,0.122266 0.03628,0.04837 0.09943,0.04837 0.09405,0 0.181384,-0.08868 0.08868,-0.09002 0.135702,-0.229753 0.0027,-0.0054 0.0067,-0.01612 0.004,-0.01209 0.0054,-0.01747 0.0013,-0.0054 0.0054,-0.01344 0.004,-0.0081 0.0094,-0.01209 0.0054,-0.004 0.01209,-0.0067 0.0081,-0.0027 0.01881,-0.0027 0.03896,0 0.03762,0.03493 0,0.04434 -0.04568,0.13839 -0.04434,0.09271 -0.149138,0.185415 -0.1048,0.09271 -0.225723,0.09271 -0.07658,0 -0.151825,-0.04299 -0.0739,-0.043 -0.112861,-0.145108 -0.03628,0.0524 -0.0618,0.08465 -0.02553,0.0309 -0.08465,0.06718 -0.05912,0.03628 -0.124954,0.03628 -0.09136,0 -0.163918,-0.04568 -0.07255,-0.04568 -0.07255,-0.12764 z"
         style="font-size:64.99999762%;baseline-shift:sub"
         id="path1018"
         inkscape:connector-curvature="0" />
    </g>
    <g
       aria-label="vy"
       style="font-style:normal;font-variant:normal;font-weight:normal;font-stretch:normal;font-size:4.23333311px;line-height:1.25;font-family:'CMU Classical Serif';-inkscape-font-specification:'CMU Classical Serif';text-align:center;letter-spacing:0px;word-spacing:0px;text-anchor:middle;fill:#000000;fill-opacity:1;stroke:none;stroke-width:0.26458332"
       id="text6889">
      <path
         d="m 14.304687,81.006737 q 0,-0.05168 0.04548,-0.06615 0.04754,-0.01447 0.229443,-0.02687 0.12609,-0.0083 0.212907,-0.0186 l 0.0248,-0.0041 q 0.02894,-0.0041 0.05168,-0.0041 0.08061,0 0.08061,0.05581 0,0.03307 -0.05581,0.241846 -0.02894,0.09302 -0.06821,0.113688 -0.241846,0.791683 -0.241846,1.014925 0,0.194303 0.08268,0.270784 0.08268,0.07648 0.194304,0.07648 0.16123,0 0.30179,-0.157097 0.142627,-0.159163 0.219108,-0.37207 0.07855,-0.214974 0.119889,-0.392741 0.04341,-0.177767 0.04341,-0.254248 0,-0.12609 -0.04341,-0.212907 -0.04134,-0.08682 -0.08475,-0.136426 -0.04134,-0.05168 -0.04134,-0.09922 0,-0.08062 0.06615,-0.136426 0.06615,-0.05788 0.132291,-0.05788 0.06821,0 0.121957,0.06615 0.05374,0.06408 0.05374,0.217041 0,0.07235 -0.02687,0.241846 -0.02481,0.169498 -0.09509,0.413411 -0.07028,0.241846 -0.165365,0.458887 -0.09508,0.214974 -0.260449,0.367936 -0.163297,0.152962 -0.359668,0.152962 -0.202571,0 -0.361735,-0.115755 -0.159163,-0.117822 -0.159163,-0.392741 0,-0.130224 0.07028,-0.398942 0.07028,-0.270784 0.138493,-0.489892 0.06821,-0.221175 0.06821,-0.233578 0,-0.06408 -0.142627,-0.06408 -0.0021,0 -0.0041,0.0021 -0.0021,0 -0.0041,0 -0.142627,0 -0.142627,-0.05994 z"
         style="stroke-width:0.26458332"
         id="path1011"
         inkscape:connector-curvature="0" />
      <path
         d="m 15.88733,83.886561 q 0,-0.08465 0.04165,-0.127641 0.04299,-0.043 0.09539,-0.043 0.04165,0 0.06718,0.02419 0.02687,0.02553 0.02687,0.06315 0,0.04165 -0.03225,0.08599 -0.0309,0.04434 -0.10883,0.04703 0.04702,0.126297 0.173323,0.126297 0.12361,0 0.233784,-0.116892 0.110174,-0.116892 0.17601,-0.321118 0.01344,-0.04434 0.03628,-0.137045 -0.120923,0.102112 -0.24722,0.102112 -0.12361,0 -0.216318,-0.07121 -0.09271,-0.07255 -0.09271,-0.245876 0,-0.09136 0.04568,-0.268718 0.04568,-0.177353 0.09136,-0.321117 0.04568,-0.145108 0.04568,-0.155856 0,-0.02687 -0.03762,-0.03359 -0.03762,-0.0081 -0.08465,-0.0081 -0.04568,0 -0.05777,-0.0081 -0.02418,-0.01612 -0.0054,-0.0524 0.01344,-0.0215 0.06046,-0.02687 0.275435,-0.02418 0.306338,-0.02553 h 0.0027 q 0.04165,0 0.04031,0.03628 0,0.02419 -0.03225,0.1572 -0.01881,0.06046 -0.04434,0.0739 -0.162574,0.545496 -0.162574,0.679855 0,0.205569 0.150482,0.205569 0,0 0.0013,0 0.09405,0 0.173323,-0.07121 0.07927,-0.07121 0.1048,-0.134359 0.0054,-0.01612 0.01209,-0.04434 0.0067,-0.02956 0.0094,-0.04165 l 0.181384,-0.717476 0.0027,-0.01344 q 0.0027,-0.01344 0.0054,-0.02284 0.004,-0.01075 0.0094,-0.02687 0.0054,-0.01747 0.01478,-0.02956 0.0094,-0.01209 0.02015,-0.02284 0.01075,-0.01075 0.02687,-0.01747 0.01747,-0.0081 0.03628,-0.0081 0.0309,0 0.0524,0.0215 0.02284,0.02015 0.02284,0.05374 0,0.0081 -0.004,0.02419 -0.004,0.01612 -0.004,0.01881 l -0.253938,1.015752 q -0.03896,0.151825 -0.1048,0.268717 -0.06583,0.116892 -0.134358,0.180041 -0.06852,0.06315 -0.147795,0.1048 -0.07793,0.04165 -0.131671,0.0524 -0.05374,0.01075 -0.100769,0.01075 -0.115549,0 -0.189446,-0.06584 -0.0739,-0.06584 -0.0739,-0.173323 z"
         style="font-size:64.99999762%;baseline-shift:sub"
         id="path1013"
         inkscape:connector-curvature="0" />
    </g>
    <g
       aria-label="t"
       style="font-style:normal;font-variant:normal;font-weight:normal;font-stretch:normal;font-size:4.23333311px;line-height:1.25;font-family:'CMU Classical Serif';-inkscape-font-specification:'CMU Classical Serif';text-align:center;letter-spacing:0px;word-spacing:0px;text-anchor:middle;fill:#000000;fill-opacity:1;stroke:none;stroke-width:0.26458332"
       id="text7045">
      <path
         d="m 87.263391,113.31108 q 0,-0.0724 0.09302,-0.0724 0.02067,0 0.06408,-0.002 0.04341,-0.002 0.06408,-0.002 0.04134,0 0.124023,0.002 0.08268,0.002 0.126091,0.002 l 0.150895,-0.61392 q 0.0124,-0.0517 0.01654,-0.0599 0.0062,-0.0103 0.0186,-0.0331 0.0124,-0.0248 0.03101,-0.0269 0.0186,-0.002 0.05374,-0.002 h 0.07648 q 0.09302,0 0.09302,0.0558 0,0.0723 -0.165365,0.68006 h 0.347266 q 0.08888,0 0.08888,0.0558 0,0.0475 -0.03514,0.062 -0.03307,0.0145 -0.117822,0.0145 h -0.06821 q -0.04134,0 -0.124023,-0.002 -0.08268,-0.002 -0.126091,-0.002 -0.0083,0.0248 -0.02067,0.0847 -0.0124,0.0579 -0.02067,0.0847 l -0.254248,1.02732 q -0.04754,0.19431 -0.04548,0.27699 0,0.16743 0.115755,0.16743 0,0 0.0021,0 0.279053,0 0.496094,-0.54157 0.02067,-0.0558 0.07441,-0.0537 0.05581,0 0.05581,0.0455 0,0.11369 -0.190169,0.38241 -0.190169,0.26665 -0.448551,0.26665 -0.161231,0 -0.260449,-0.10749 -0.09922,-0.10955 -0.09922,-0.27492 0,-0.0889 0.02894,-0.18603 l 0.291455,-1.17202 H 87.35644 q -0.09302,0 -0.09302,-0.0558 z"
         style="stroke-width:0.26458332"
         id="path1007"
         inkscape:connector-curvature="0" />
    </g>
    <g
       aria-label="t"
       style="font-style:normal;font-variant:normal;font-weight:normal;font-stretch:normal;font-size:4.23333311px;line-height:1.25;font-family:'CMU Classical Serif';-inkscape-font-specification:'CMU Classical Serif';text-align:center;letter-spacing:0px;word-spacing:0px;text-anchor:middle;fill:#000000;fill-opacity:1;stroke:none;stroke-width:0.26458332"
       id="text7084">
      <path
         d="m 17.136756,113.30766 q 0,-0.0724 0.09302,-0.0724 0.02067,0 0.06408,-0.002 0.04341,-0.002 0.06408,-0.002 0.04134,0 0.124024,0.002 0.08268,0.002 0.12609,0.002 l 0.150895,-0.61391 q 0.0124,-0.0517 0.01654,-0.06 0.0062,-0.0103 0.0186,-0.0331 0.0124,-0.0248 0.03101,-0.0269 0.0186,-0.002 0.05374,-0.002 h 0.07648 q 0.09302,0 0.09302,0.0558 0,0.0724 -0.165364,0.68006 h 0.347265 q 0.08888,0 0.08888,0.0558 0,0.0475 -0.03514,0.062 -0.03307,0.0145 -0.117822,0.0145 h -0.06821 q -0.04134,0 -0.124024,-0.002 -0.08268,-0.002 -0.12609,-0.002 -0.0083,0.0248 -0.02067,0.0847 -0.0124,0.0579 -0.02067,0.0847 l -0.254248,1.02733 q -0.04754,0.1943 -0.04548,0.27698 0,0.16743 0.115755,0.16743 0,0 0.0021,0 0.279052,0 0.496093,-0.54157 0.02067,-0.0558 0.07441,-0.0537 0.05581,0 0.05581,0.0455 0,0.11368 -0.190169,0.3824 -0.19017,0.26665 -0.448552,0.26665 -0.16123,0 -0.260449,-0.10749 -0.09922,-0.10955 -0.09922,-0.27491 0,-0.0889 0.02894,-0.18604 l 0.291455,-1.17202 h -0.343131 q -0.09302,0 -0.09302,-0.0558 z"
         style="stroke-width:0.26458332"
         id="path1004"
         inkscape:connector-curvature="0" />
    </g>
    <path
       sodipodi:nodetypes="cc"
       inkscape:connector-curvature="0"
       id="path1367-6"
       d="m 88.405082,88.545943 v 5.969602"
       style="fill:none;stroke:#000000;stroke-width:0.26499999;stroke-linecap:butt;stroke-linejoin:miter;stroke-miterlimit:4;stroke-dasharray:none;stroke-opacity:1;marker-end:url(#marker6201-7)" />
    <path
       style="fill:none;stroke:#000000;stroke-width:0.26458332px;stroke-linecap:butt;stroke-linejoin:miter;stroke-opacity:1;marker-end:url(#marker6191-9)"
       d="m 88.405082,88.545943 h 6.330723"
       id="path1409-1-4"
       inkscape:connector-curvature="0"
       sodipodi:nodetypes="cc" />
    <g
       aria-label="p"
       style="font-style:normal;font-variant:normal;font-weight:normal;font-stretch:normal;font-size:7.76111126px;line-height:1.25;font-family:'CMU Classical Serif';-inkscape-font-specification:'CMU Classical Serif';text-align:center;letter-spacing:0px;word-spacing:0px;text-anchor:middle;fill:#000000;fill-opacity:1;stroke:none;stroke-width:0.26458332"
       id="text6875-8">
      <path
         d="m 85.905594,86.154009 q 0,-0.06821 0.113688,-0.07441 0.113688,-0.0062 0.152962,-0.04961 0.02067,-0.02894 0.06201,-0.169499 l 0.463021,-1.862419 q 0.03307,-0.12609 0.03307,-0.173632 0,-0.06408 -0.07441,-0.07442 -0.07441,-0.01033 -0.150895,-0.01447 -0.07442,-0.0041 -0.07442,-0.05374 0,-0.05581 0.06615,-0.07235 0.06821,-0.01654 0.305925,-0.02894 0.03721,-0.02067 0.113688,-0.02274 h 0.03514 q 0.06821,0 0.09508,0.0124 0.02687,0.01034 0.02687,0.04754 0,0.0083 -0.0248,0.109554 0.233577,-0.214974 0.444417,-0.214974 0.233577,0 0.374137,0.186035 0.142627,0.186035 0.142627,0.473356 0,0.469222 -0.310058,0.868164 -0.307992,0.398942 -0.665593,0.398942 -0.219108,0 -0.359668,-0.237711 -0.01654,0.07648 -0.06821,0.272851 -0.04961,0.196371 -0.08888,0.353467 -0.03721,0.157096 -0.03721,0.177767 0,0.07235 0.14056,0.07441 0.142627,0.0021 0.16123,0.03101 0.0083,0.01654 0.0083,0.0248 0,0.02481 -0.02687,0.04754 -0.02481,0.0248 -0.06201,0.0248 -0.02067,0 -0.14056,-0.0041 -0.117822,-0.0041 -0.258382,-0.0041 -0.08475,0 -0.183968,0.0021 -0.09922,0.0021 -0.11989,0.0021 -0.05581,0 -0.07441,-0.01034 -0.0186,-0.01033 -0.0186,-0.03927 z m 0.841292,-1.207161 q 0,0.05581 0.02067,0.136425 0.02274,0.07855 0.09302,0.163298 0.07235,0.08475 0.173633,0.08475 0.157096,0 0.291455,-0.165364 0.136426,-0.167432 0.214974,-0.401009 0.07855,-0.233578 0.121957,-0.444418 0.04547,-0.21084 0.04547,-0.334863 0,-0.173633 -0.06201,-0.270785 -0.05994,-0.09715 -0.165365,-0.09715 -0.225309,0 -0.46302,0.343131 -0.04134,0.06821 -0.07235,0.177767 -0.0083,0.01654 -0.181901,0.711068 -0.01654,0.08475 -0.01654,0.09715 z"
         style="font-size:4.23333311px;stroke-width:0.26458332"
         id="path1001"
         inkscape:connector-curvature="0" />
    </g>
    <g
       aria-label="v"
       style="font-style:normal;font-variant:normal;font-weight:normal;font-stretch:normal;font-size:7.76111126px;line-height:1.25;font-family:'CMU Classical Serif';-inkscape-font-specification:'CMU Classical Serif';text-align:center;letter-spacing:0px;word-spacing:0px;text-anchor:middle;fill:#000000;fill-opacity:1;stroke:none;stroke-width:0.26458332"
       id="text6879-0">
      <path
         d="m 95.80503,93.398468 q 0,-0.05168 0.04547,-0.06615 0.04754,-0.01447 0.229443,-0.02687 0.126091,-0.0083 0.212907,-0.0186 l 0.02481,-0.0041 q 0.02894,-0.0041 0.05168,-0.0041 0.08062,0 0.08062,0.05581 0,0.03307 -0.05581,0.241846 -0.02894,0.09302 -0.06821,0.113688 -0.241845,0.791683 -0.241845,1.014925 0,0.194304 0.08268,0.270785 0.08268,0.07648 0.194303,0.07648 0.161231,0 0.301791,-0.157096 0.142626,-0.159164 0.219108,-0.372071 0.07855,-0.214974 0.119889,-0.392741 0.04341,-0.177767 0.04341,-0.254248 0,-0.12609 -0.04341,-0.212907 -0.04134,-0.08682 -0.08475,-0.136425 -0.04134,-0.05168 -0.04134,-0.09922 0,-0.08062 0.06615,-0.136426 0.06615,-0.05788 0.132292,-0.05788 0.06821,0 0.121956,0.06615 0.05374,0.06408 0.05374,0.217041 0,0.07235 -0.02687,0.241846 -0.02481,0.169499 -0.09509,0.413411 -0.07028,0.241846 -0.165364,0.458887 -0.09508,0.214974 -0.260449,0.367936 -0.163298,0.152963 -0.359668,0.152963 -0.202572,0 -0.361735,-0.115756 -0.159164,-0.117822 -0.159164,-0.39274 0,-0.130225 0.07028,-0.398943 0.07028,-0.270784 0.138493,-0.489892 0.06821,-0.221175 0.06821,-0.233578 0,-0.06408 -0.142627,-0.06408 -0.0021,0 -0.0041,0.0021 -0.0021,0 -0.0041,0 -0.142627,0 -0.142627,-0.05994 z"
         style="font-size:4.23333311px;stroke-width:0.26458332"
         id="path998"
         inkscape:connector-curvature="0" />
    </g>
    <g
       aria-label="vx"
       style="font-style:normal;font-variant:normal;font-weight:normal;font-stretch:normal;font-size:4.23333311px;line-height:1.25;font-family:'CMU Classical Serif';-inkscape-font-specification:'CMU Classical Serif';text-align:center;letter-spacing:0px;word-spacing:0px;text-anchor:middle;fill:#000000;fill-opacity:1;stroke:none;stroke-width:0.26458332"
       id="text6883-6">
      <path
         d="m 92.316415,84.464699 q 0,-0.05168 0.04547,-0.06615 0.04754,-0.01447 0.229443,-0.02687 0.126091,-0.0083 0.212907,-0.0186 l 0.02481,-0.0041 q 0.02894,-0.0041 0.05168,-0.0041 0.08062,0 0.08062,0.05581 0,0.03307 -0.05581,0.241846 -0.02894,0.09302 -0.06821,0.113688 -0.241846,0.791683 -0.241846,1.014925 0,0.194303 0.08268,0.270785 0.08268,0.07648 0.194303,0.07648 0.161231,0 0.30179,-0.157097 0.142627,-0.159163 0.219108,-0.37207 0.07855,-0.214974 0.11989,-0.392741 0.04341,-0.177767 0.04341,-0.254248 0,-0.12609 -0.04341,-0.212907 -0.04134,-0.08682 -0.08475,-0.136426 -0.04134,-0.05168 -0.04134,-0.09922 0,-0.08062 0.06615,-0.136426 0.06615,-0.05788 0.132292,-0.05788 0.06821,0 0.121956,0.06615 0.05374,0.06408 0.05374,0.217041 0,0.07235 -0.02687,0.241846 -0.02481,0.169499 -0.09508,0.413411 -0.07028,0.241846 -0.165364,0.458887 -0.09508,0.214974 -0.260449,0.367936 -0.163298,0.152962 -0.359668,0.152962 -0.202572,0 -0.361735,-0.115755 -0.159164,-0.117822 -0.159164,-0.392741 0,-0.130224 0.07028,-0.398942 0.07028,-0.270784 0.138493,-0.489892 0.06821,-0.221175 0.06821,-0.233578 0,-0.06408 -0.142627,-0.06408 -0.0021,0 -0.0041,0.0021 -0.0021,0 -0.0041,0 -0.142627,0 -0.142627,-0.05994 z"
         style="stroke-width:0.26458332"
         id="path993"
         inkscape:connector-curvature="0" />
      <path
         d="m 93.775447,86.874267 q 0,-0.05777 0.03628,-0.102112 0.03762,-0.04434 0.09539,-0.04434 0.04165,0 0.06718,0.02687 0.02553,0.02553 0.02553,0.06449 0,0.09405 -0.106143,0.128985 0.06046,0.03493 0.116892,0.03493 0.0027,0 0.004,0 0.04434,0 0.08062,-0.01881 0.03762,-0.01881 0.06718,-0.06315 0.0309,-0.04434 0.05106,-0.08599 0.0215,-0.043 0.04434,-0.12361 0.02284,-0.08196 0.03628,-0.137046 0.01478,-0.05509 0.03896,-0.161231 0.02553,-0.106143 0.03896,-0.166605 0.03359,-0.14645 0.03359,-0.186758 0,-0.07927 -0.03762,-0.127641 -0.03762,-0.04837 -0.09808,-0.04837 -0.09405,0 -0.180041,0.09002 -0.08599,0.08868 -0.135702,0.22841 -0.0027,0.0054 -0.0054,0.01747 -0.0027,0.01075 -0.0067,0.01478 -0.0027,0.004 -0.0067,0.01344 -0.004,0.0094 -0.0094,0.01478 -0.0054,0.004 -0.01209,0.0067 -0.0067,0.0027 -0.01747,0.0027 -0.03896,0 -0.03896,-0.03628 0,-0.04434 0.04568,-0.137046 0.04568,-0.09405 0.147794,-0.185415 0.103456,-0.09271 0.227067,-0.09271 h 0.0027 q 0.184071,0.0027 0.264686,0.189446 0.1048,-0.189446 0.270061,-0.189446 0.08465,0 0.159887,0.04434 0.07659,0.043 0.07659,0.128984 0,0.06315 -0.04165,0.1048 -0.04165,0.04031 -0.09405,0.04031 -0.03896,0 -0.06449,-0.02419 -0.02553,-0.02553 -0.02553,-0.06315 0,-0.04165 0.02687,-0.07793 0.02822,-0.03762 0.07793,-0.05106 -0.0524,-0.03896 -0.118236,-0.03896 -0.03628,0 -0.07255,0.01478 -0.03493,0.01478 -0.08868,0.09271 -0.05374,0.07658 -0.08733,0.208256 -0.02419,0.09674 -0.04837,0.196164 -0.02284,0.09942 -0.03493,0.147794 -0.01209,0.04703 -0.02687,0.09943 -0.01344,0.0524 -0.01747,0.07524 -0.004,0.0215 -0.0081,0.04703 -0.004,0.02419 -0.0054,0.03628 -0.0013,0.01209 -0.0013,0.0309 0,0.0739 0.03493,0.122267 0.03628,0.04837 0.09942,0.04837 0.09405,0 0.181384,-0.08868 0.08868,-0.09002 0.135703,-0.229753 0.0027,-0.0054 0.0067,-0.01612 0.004,-0.01209 0.0054,-0.01747 0.0013,-0.0054 0.0054,-0.01344 0.004,-0.0081 0.0094,-0.01209 0.0054,-0.004 0.01209,-0.0067 0.0081,-0.0027 0.01881,-0.0027 0.03896,0 0.03762,0.03493 0,0.04434 -0.04568,0.13839 -0.04434,0.09271 -0.149138,0.185415 -0.1048,0.09271 -0.225722,0.09271 -0.07659,0 -0.151826,-0.043 -0.0739,-0.04299 -0.112861,-0.145107 -0.03628,0.0524 -0.0618,0.08465 -0.02553,0.0309 -0.08465,0.06718 -0.05912,0.03628 -0.124954,0.03628 -0.09136,0 -0.163917,-0.04568 -0.07255,-0.04568 -0.07255,-0.127641 z"
         style="font-size:2.75166631px;baseline-shift:sub;stroke-width:0.26458332"
         id="path995"
         inkscape:connector-curvature="0" />
    </g>
    <g
       aria-label="vy"
       style="font-style:normal;font-variant:normal;font-weight:normal;font-stretch:normal;font-size:4.23333311px;line-height:1.25;font-family:'CMU Classical Serif';-inkscape-font-specification:'CMU Classical Serif';text-align:center;letter-spacing:0px;word-spacing:0px;text-anchor:middle;fill:#000000;fill-opacity:1;stroke:none;stroke-width:0.26458332"
       id="text6889-2">
      <path
         d="m 84.142921,92.240234 q 0,-0.05168 0.04548,-0.06615 0.04754,-0.01447 0.229443,-0.02687 0.12609,-0.0083 0.212907,-0.0186 l 0.0248,-0.0041 q 0.02894,-0.0041 0.05168,-0.0041 0.08061,0 0.08061,0.05581 0,0.03307 -0.05581,0.241845 -0.02894,0.09302 -0.06821,0.113689 -0.241846,0.791682 -0.241846,1.014925 0,0.194303 0.08268,0.270784 0.08268,0.07648 0.194304,0.07648 0.16123,0 0.30179,-0.157096 0.142627,-0.159164 0.219108,-0.37207 0.07855,-0.214974 0.119889,-0.392741 0.04341,-0.177767 0.04341,-0.254248 0,-0.126091 -0.04341,-0.212907 -0.04134,-0.08682 -0.08475,-0.136426 -0.04134,-0.05168 -0.04134,-0.09922 0,-0.08061 0.06615,-0.136426 0.06615,-0.05788 0.132291,-0.05788 0.06821,0 0.121957,0.06615 0.05374,0.06408 0.05374,0.217041 0,0.07235 -0.02687,0.241845 -0.0248,0.169499 -0.09508,0.413412 -0.07028,0.241846 -0.165365,0.458887 -0.09508,0.214973 -0.260449,0.367936 -0.163297,0.152962 -0.359668,0.152962 -0.202571,0 -0.361735,-0.115755 -0.159163,-0.117823 -0.159163,-0.392741 0,-0.130225 0.07028,-0.398942 0.07028,-0.270785 0.138492,-0.489893 0.06821,-0.221175 0.06821,-0.233577 0,-0.06408 -0.142627,-0.06408 -0.0021,0 -0.0041,0.0021 -0.0021,0 -0.0041,0 -0.142627,0 -0.142627,-0.05994 z"
         style="stroke-width:0.26458332"
         id="path988"
         inkscape:connector-curvature="0" />
      <path
         d="m 85.725564,95.120059 q 0,-0.08465 0.04165,-0.127641 0.04299,-0.043 0.09539,-0.043 0.04165,0 0.06718,0.02419 0.02687,0.02553 0.02687,0.06315 0,0.04165 -0.03225,0.08599 -0.0309,0.04434 -0.10883,0.04702 0.04703,0.126297 0.173323,0.126297 0.12361,0 0.233784,-0.116892 0.110174,-0.116892 0.17601,-0.321117 0.01344,-0.04434 0.03628,-0.137046 -0.120922,0.102113 -0.24722,0.102113 -0.12361,0 -0.216317,-0.07121 -0.09271,-0.07255 -0.09271,-0.245877 0,-0.09136 0.04568,-0.268717 0.04568,-0.177354 0.09136,-0.321117 0.04568,-0.145108 0.04568,-0.155857 0,-0.02687 -0.03762,-0.03359 -0.03762,-0.0081 -0.08465,-0.0081 -0.04568,0 -0.05777,-0.0081 -0.02419,-0.01612 -0.0054,-0.0524 0.01344,-0.0215 0.06046,-0.02687 0.275435,-0.02419 0.306338,-0.02553 h 0.0027 q 0.04165,0 0.04031,0.03628 0,0.02418 -0.03225,0.157199 -0.01881,0.06046 -0.04434,0.0739 -0.162574,0.545496 -0.162574,0.679855 0,0.205569 0.150482,0.205569 0,0 0.0013,0 0.09405,0 0.173323,-0.07121 0.07927,-0.07121 0.1048,-0.134358 0.0054,-0.01612 0.01209,-0.04434 0.0067,-0.02956 0.0094,-0.04165 l 0.181384,-0.717475 0.0027,-0.01344 q 0.0027,-0.01344 0.0054,-0.02284 0.004,-0.01075 0.0094,-0.02687 0.0054,-0.01747 0.01478,-0.02956 0.0094,-0.01209 0.02015,-0.02284 0.01075,-0.01075 0.02687,-0.01747 0.01747,-0.0081 0.03628,-0.0081 0.0309,0 0.0524,0.0215 0.02284,0.02015 0.02284,0.05374 0,0.0081 -0.004,0.02419 -0.004,0.01612 -0.004,0.01881 L 86.6083,94.742511 q -0.03896,0.151825 -0.1048,0.268717 -0.06584,0.116892 -0.134358,0.180041 -0.06852,0.06315 -0.147795,0.104799 -0.07793,0.04165 -0.131671,0.0524 -0.05374,0.01075 -0.100769,0.01075 -0.115549,0 -0.189446,-0.06584 -0.0739,-0.06584 -0.0739,-0.173322 z"
         style="font-size:2.75166631px;baseline-shift:sub;stroke-width:0.26458332"
         id="path990"
         inkscape:connector-curvature="0" />
    </g>
    <g
       aria-label="'"
       style="font-style:normal;font-variant:normal;font-weight:normal;font-stretch:normal;font-size:4.23333311px;line-height:1.25;font-family:'CMU Classical Serif';-inkscape-font-specification:'CMU Classical Serif';text-align:center;letter-spacing:0px;word-spacing:0px;text-anchor:middle;fill:#000000;fill-opacity:1;stroke:none;stroke-width:0.26458332"
       id="text7306">
      <path
         d="m 94.142217,84.690629 q 0,-0.0124 0.0083,-0.06408 0.0083,-0.05374 0.0083,-0.06615 l 0.173633,-1.093473 0.0041,-0.02894 q 0.0041,-0.03307 0.01034,-0.05581 0.0062,-0.0248 0.02067,-0.05994 0.01654,-0.03721 0.03514,-0.06201 0.0186,-0.02481 0.05581,-0.04341 0.03927,-0.02067 0.08682,-0.02067 h 0.0041 q 0.06408,0 0.10542,0.03721 0.04134,0.03514 0.04134,0.09922 0,0.02481 -0.03307,0.138493 l -0.419612,1.21543 q -0.02067,0.06408 -0.05374,0.06408 -0.04754,0 -0.04754,-0.05994 z"
         style="stroke-width:0.26458332"
         id="path985"
         inkscape:connector-curvature="0" />
    </g>
    <text
       xml:space="preserve"
       style="font-style:normal;font-variant:normal;font-weight:normal;font-stretch:normal;font-size:4.23333311px;line-height:1.25;font-family:'CMU Classical Serif';-inkscape-font-specification:'CMU Classical Serif';text-align:center;letter-spacing:0px;word-spacing:0px;text-anchor:middle;fill:#000000;fill-opacity:1;stroke:none;stroke-width:0.26458332"
       x="50.781212"
       y="63.74052"
       id="text7318"><tspan
         sodipodi:role="line"
         id="tspan7316"
         x="50.781212"
         y="67.655525"
         style="stroke-width:0.26458332" /></text>
    <g
       aria-label="'"
       style="font-style:normal;font-variant:normal;font-weight:normal;font-stretch:normal;font-size:4.23333311px;line-height:1.25;font-family:'CMU Classical Serif';-inkscape-font-specification:'CMU Classical Serif';text-align:center;letter-spacing:0px;word-spacing:0px;text-anchor:middle;fill:#000000;fill-opacity:1;stroke:none;stroke-width:0.26458332"
       id="text7322">
      <path
         d="m 86.063947,92.463669 q 0,-0.0124 0.0083,-0.06408 0.0083,-0.05374 0.0083,-0.06615 l 0.173633,-1.093473 0.0041,-0.02894 q 0.0041,-0.03307 0.01034,-0.05581 0.0062,-0.0248 0.02067,-0.05994 0.01654,-0.03721 0.03514,-0.06201 0.0186,-0.02481 0.05581,-0.04341 0.03927,-0.02067 0.08682,-0.02067 h 0.0041 q 0.06408,0 0.10542,0.03721 0.04134,0.03514 0.04134,0.09922 0,0.02481 -0.03307,0.138493 l -0.419612,1.215429 q -0.02067,0.06408 -0.05374,0.06408 -0.04754,0 -0.04754,-0.05994 z"
         style="stroke-width:0.26458332"
         id="path982"
         inkscape:connector-curvature="0" />
    </g>
    <g
       aria-label="'"
       style="font-style:normal;font-variant:normal;font-weight:normal;font-stretch:normal;font-size:4.23333311px;line-height:1.25;font-family:'CMU Classical Serif';-inkscape-font-specification:'CMU Classical Serif';text-align:center;letter-spacing:0px;word-spacing:0px;text-anchor:middle;fill:#000000;fill-opacity:1;stroke:none;stroke-width:0.26458332"
       id="text7326">
      <path
         d="m 88.3905,83.895096 q 0,-0.0124 0.0083,-0.06408 0.0083,-0.05374 0.0083,-0.06615 l 0.173633,-1.093473 0.0041,-0.02894 q 0.0041,-0.03307 0.01033,-0.05581 0.0062,-0.0248 0.02067,-0.05994 0.01654,-0.03721 0.03514,-0.06201 0.0186,-0.02481 0.05581,-0.04341 0.03927,-0.02067 0.08682,-0.02067 h 0.0041 q 0.06408,0 0.10542,0.03721 0.04134,0.03514 0.04134,0.09922 0,0.02481 -0.03307,0.138493 l -0.419613,1.215429 q -0.02067,0.06408 -0.05374,0.06408 -0.04754,0 -0.04754,-0.05994 z"
         style="stroke-width:0.26458332"
         id="path979"
         inkscape:connector-curvature="0" />
    </g>
    <g
       aria-label="'"
       style="font-style:normal;font-variant:normal;font-weight:normal;font-stretch:normal;font-size:4.23333311px;line-height:1.25;font-family:'CMU Classical Serif';-inkscape-font-specification:'CMU Classical Serif';text-align:center;letter-spacing:0px;word-spacing:0px;text-anchor:middle;fill:#000000;fill-opacity:1;stroke:none;stroke-width:0.26458332"
       id="text7330">
      <path
         d="m 97.679677,93.641556 q 0,-0.0124 0.0083,-0.06408 0.0083,-0.05374 0.0083,-0.06615 l 0.173633,-1.093473 0.0041,-0.02894 q 0.0041,-0.03307 0.01033,-0.05581 0.0062,-0.0248 0.02067,-0.05994 0.01654,-0.03721 0.03514,-0.06201 0.0186,-0.02481 0.05581,-0.04341 0.03927,-0.02067 0.08682,-0.02067 h 0.0041 q 0.06408,0 0.105419,0.03721 0.04134,0.03514 0.04134,0.09922 0,0.0248 -0.03307,0.138493 l -0.419613,1.215429 q -0.02067,0.06408 -0.05374,0.06408 -0.04754,0 -0.04754,-0.05994 z"
         style="stroke-width:0.26458332"
         id="path976"
         inkscape:connector-curvature="0" />
    </g>
    <path
       style="fill:none;stroke:#000000;stroke-width:0.26458332px;stroke-linecap:butt;stroke-linejoin:miter;stroke-opacity:1;marker-end:url(#TriangleOutM-9)"
       d="m 88.405082,88.545943 6.330723,6.069828"
       id="path850-7"
       inkscape:connector-curvature="0"
       sodipodi:nodetypes="cc" />
    <path
       style="opacity:1;vector-effect:none;fill:#ff0000;fill-opacity:1;stroke:none;stroke-width:0.1;stroke-linecap:round;stroke-linejoin:round;stroke-miterlimit:4;stroke-dasharray:none;stroke-dashoffset:0;stroke-opacity:1"
       d="m 89.786232,88.545944 a 1.3811488,1.3811488 0 0 1 -1.381149,1.381149 1.3811488,1.3811488 0 0 1 -1.381149,-1.381149 1.3811488,1.3811488 0 0 1 1.381149,-1.381149 1.3811488,1.3811488 0 0 1 1.381149,1.381149 z"
       id="path848-3"
       inkscape:connector-curvature="0" />
    <g
       aria-label="'"
       style="font-style:normal;font-variant:normal;font-weight:normal;font-stretch:normal;font-size:4.23333311px;line-height:1.25;font-family:'CMU Classical Serif';-inkscape-font-specification:'CMU Classical Serif';text-align:center;letter-spacing:0px;word-spacing:0px;text-anchor:middle;fill:#000000;fill-opacity:1;stroke:none;stroke-width:0.26458332"
       id="text8258">
      <path
         d="m 88.861318,113.63224 q 0,-0.0124 0.0083,-0.0641 0.0083,-0.0537 0.0083,-0.0661 l 0.173633,-1.09348 0.0041,-0.0289 q 0.0041,-0.0331 0.01034,-0.0558 0.0062,-0.0248 0.02067,-0.0599 0.01654,-0.0372 0.03514,-0.062 0.0186,-0.0248 0.05581,-0.0434 0.03927,-0.0207 0.08682,-0.0207 h 0.0041 q 0.06408,0 0.10542,0.0372 0.04134,0.0351 0.04134,0.0992 0,0.0248 -0.03307,0.1385 l -0.419612,1.21543 q -0.02067,0.0641 -0.05374,0.0641 -0.04754,0 -0.04754,-0.06 z"
         style="stroke-width:0.26458332"
         id="path972"
         inkscape:connector-curvature="0" />
    </g>
  </g>
</svg>
