<?xml version="1.0" encoding="UTF-8" standalone="no"?><!DOCTYPE svg PUBLIC "-//W3C//DTD SVG 1.1//EN" "http://www.w3.org/Graphics/SVG/1.1/DTD/svg11.dtd"><svg width="100%" height="100%" viewBox="0 0 2500 2067" version="1.1" xmlns="http://www.w3.org/2000/svg" xmlns:xlink="http://www.w3.org/1999/xlink" xml:space="preserve" xmlns:serif="http://www.serif.com/" style="fill-rule:evenodd;clip-rule:evenodd;stroke-linejoin:round;stroke-miterlimit:1.5;"><rect x="0" y="0" width="2500" height="2066.67" style="fill:#fff;"/><rect x="133.333" y="966.667" width="2233.33" height="466.667" style="fill:#6c6;fill-opacity:0.12;"/><rect x="133.333" y="433.333" width="2233.33" height="466.667" style="fill:#f66;fill-opacity:0.12;"/><circle cx="700" cy="500" r="25" style="fill:none;stroke:#f66;stroke-width:2.08px;stroke-dasharray:6.54,6.54,0,0;"/><circle cx="700" cy="566.667" r="25" style="fill:#f66;"/><circle cx="700" cy="766.667" r="25" style="fill:#f66;"/><circle cx="700" cy="833.333" r="25" style="fill:none;stroke:#f66;stroke-width:2.08px;stroke-dasharray:6.54,6.54,0,0;"/><g><rect x="666.667" y="1066.67" width="66.667" height="66.667" style="fill:#6c6;"/><path d="M733.333,1066.67l0,66.666l-66.666,0l0,-133.333" style="fill:none;stroke:#00b300;stroke-width:8.33px;stroke-linecap:round;"/></g><g><g><rect x="966.667" y="1800" width="133.333" height="133.333" style="fill:#6c6;"/><path d="M1100,1800l0,133.333l-133.333,0l0,-133.333l133.333,0" style="fill:none;stroke:#00b300;stroke-width:12.5px;stroke-linecap:round;"/></g><circle cx="1033.33" cy="1600" r="50" style="fill:#f66;"/></g><g><g><rect x="1233.33" y="1800" width="133.333" height="133.333" style="fill:#6c6;"/><path d="M1366.67,1800l0,133.333l-133.334,0l0,-266.666" style="fill:none;stroke:#00b300;stroke-width:12.5px;stroke-linecap:round;"/></g><circle cx="1300" cy="1600" r="50" style="fill:#f66;"/></g><g><g><rect x="1766.67" y="1800" width="133.333" height="133.333" style="fill:#6c6;"/><path d="M1900,1800l0,133.333l-133.333,0l0,-266.666" style="fill:none;stroke:#00b300;stroke-width:12.5px;stroke-linecap:round;"/></g><circle cx="1833.33" cy="1866.67" r="50" style="fill:#f66;"/></g><g><g><rect x="2033.33" y="1800" width="133.333" height="133.333" style="fill:#6c6;"/><path d="M2166.67,1800l0,133.333l-133.334,0l0,-133.333l133.334,0" style="fill:none;stroke:#00b300;stroke-width:12.5px;stroke-linecap:round;"/></g><circle cx="2100" cy="1866.67" r="50" style="fill:#f66;"/></g><g><rect x="666.667" y="1300" width="66.667" height="66.667" style="fill:#6c6;"/><path d="M733.333,1300l0,66.667l-66.666,0l0,-66.667l66.666,0" style="fill:none;stroke:#00b300;stroke-width:8.33px;stroke-linecap:round;"/></g><g><rect x="233.333" y="1066.67" width="266.667" height="266.667" style="fill:#6c6;"/><path d="M500,1066.67l0,266.666l-266.667,0l0,-266.666l160,-213.334" style="fill:none;stroke:#00b300;stroke-width:12.5px;stroke-linecap:round;"/></g><circle cx="366.667" cy="666.667" r="100" style="fill:#f66;"/><path d="M844.554,1078.54l0,4.05l-21.8,0l0,-4.05l8.85,0l0,-22.2l-6.75,0l0,-3.1c1.733,-0.267 3.233,-0.609 4.5,-1.025c1.266,-0.417 2.433,-0.909 3.5,-1.475l3.7,0l0,27.8l8,0Z" style="fill-rule:nonzero;"/><path d="M833.654,816.525c-3.6,0 -6.442,-1.433 -8.525,-4.3c-2.084,-2.867 -3.125,-6.983 -3.125,-12.35c0,-5.367 1.041,-9.442 3.125,-12.225c2.083,-2.783 4.925,-4.175 8.525,-4.175c3.6,0 6.441,1.392 8.525,4.175c2.083,2.783 3.125,6.858 3.125,12.225c0,5.367 -1.042,9.483 -3.125,12.35c-2.084,2.867 -4.925,4.3 -8.525,4.3Zm0,-29.15c-1.034,0 -1.984,0.233 -2.85,0.7c-0.867,0.467 -1.617,1.2 -2.25,2.2c-0.634,1 -1.125,2.292 -1.475,3.875c-0.35,1.583 -0.525,3.492 -0.525,5.725c0,2.233 0.175,4.15 0.525,5.75c0.35,1.6 0.841,2.917 1.475,3.95c0.633,1.033 1.383,1.792 2.25,2.275c0.866,0.483 1.816,0.725 2.85,0.725c1.033,0 1.983,-0.242 2.85,-0.725c0.866,-0.483 1.616,-1.242 2.25,-2.275c0.633,-1.033 1.125,-2.35 1.475,-3.95c0.35,-1.6 0.525,-3.517 0.525,-5.75c0,-2.233 -0.175,-4.142 -0.525,-5.725c-0.35,-1.583 -0.842,-2.875 -1.475,-3.875c-0.634,-1 -1.384,-1.733 -2.25,-2.2c-0.867,-0.467 -1.817,-0.7 -2.85,-0.7Zm0,15.7c-0.9,0 -1.675,-0.308 -2.325,-0.925c-0.65,-0.617 -0.975,-1.458 -0.975,-2.525c0,-1.067 0.325,-1.908 0.975,-2.525c0.65,-0.617 1.425,-0.925 2.325,-0.925c0.9,0 1.675,0.308 2.325,0.925c0.65,0.617 0.975,1.458 0.975,2.525c0,1.067 -0.325,1.908 -0.975,2.525c-0.65,0.617 -1.425,0.925 -2.325,0.925Z" style="fill-rule:nonzero;"/><path d="M845.304,545.208l0,4.05l-21.8,0l0,-4.05l8.85,0l0,-22.2l-6.75,0l0,-3.1c1.733,-0.266 3.233,-0.608 4.5,-1.025c1.266,-0.416 2.433,-0.908 3.5,-1.475l3.7,0l0,27.8l8,0Z" style="fill-rule:nonzero;"/><path d="M833.654,1349.86c-3.6,0 -6.442,-1.433 -8.525,-4.3c-2.084,-2.866 -3.125,-6.983 -3.125,-12.35c0,-5.366 1.041,-9.441 3.125,-12.225c2.083,-2.783 4.925,-4.175 8.525,-4.175c3.6,0 6.441,1.392 8.525,4.175c2.083,2.784 3.125,6.859 3.125,12.225c0,5.367 -1.042,9.484 -3.125,12.35c-2.084,2.867 -4.925,4.3 -8.525,4.3Zm0,-29.15c-1.034,0 -1.984,0.234 -2.85,0.7c-0.867,0.467 -1.617,1.2 -2.25,2.2c-0.634,1 -1.125,2.292 -1.475,3.875c-0.35,1.584 -0.525,3.492 -0.525,5.725c0,2.234 0.175,4.15 0.525,5.75c0.35,1.6 0.841,2.917 1.475,3.95c0.633,1.034 1.383,1.792 2.25,2.275c0.866,0.484 1.816,0.725 2.85,0.725c1.033,0 1.983,-0.241 2.85,-0.725c0.866,-0.483 1.616,-1.241 2.25,-2.275c0.633,-1.033 1.125,-2.35 1.475,-3.95c0.35,-1.6 0.525,-3.516 0.525,-5.75c0,-2.233 -0.175,-4.141 -0.525,-5.725c-0.35,-1.583 -0.842,-2.875 -1.475,-3.875c-0.634,-1 -1.384,-1.733 -2.25,-2.2c-0.867,-0.466 -1.817,-0.7 -2.85,-0.7Zm0,15.7c-0.9,0 -1.675,-0.308 -2.325,-0.925c-0.65,-0.616 -0.975,-1.458 -0.975,-2.525c0,-1.066 0.325,-1.908 0.975,-2.525c0.65,-0.616 1.425,-0.925 2.325,-0.925c0.9,0 1.675,0.309 2.325,0.925c0.65,0.617 0.975,1.459 0.975,2.525c0,1.067 -0.325,1.909 -0.975,2.525c-0.65,0.617 -1.425,0.925 -2.325,0.925Z" style="fill-rule:nonzero;"/><g id="time"><g id="grid"><path d="M2100,333.333l0,-133.333" style="fill:none;stroke:#000;stroke-width:4.17px;stroke-linecap:round;"/><path d="M1833.33,333.333l0,-133.333" style="fill:none;stroke:#000;stroke-width:4.17px;stroke-linecap:round;"/><path d="M1300,200l0,133.333" style="fill:none;stroke:#000;stroke-width:4.17px;stroke-linecap:round;"/><path d="M1033.33,200l0,133.333" style="fill:none;stroke:#000;stroke-width:4.17px;stroke-linecap:round;"/><path d="M900,266.667l1333.33,0" style="fill:none;stroke:#000;stroke-opacity:0.25;stroke-width:4.36px;stroke-linecap:round;"/></g><g id="arrows"><path d="M1859.51,253.576l-26.181,13.091l26.181,13.09l0,-26.181Z"/><path d="M2073.82,253.576l26.181,13.091l-26.181,13.09l0,-26.181Z"/><path d="M1854.28,266.667l224.777,0" style="fill:none;stroke:#000;stroke-width:4.36px;stroke-linecap:round;"/><path d="M1326.18,253.576l-26.181,13.091l26.181,13.09l0,-26.181Z"/><path d="M1807.15,253.576l26.181,13.091l-26.181,13.09l0,-26.181Z"/><path d="M1320.94,266.667l491.443,0" style="fill:none;stroke:#000;stroke-width:4.36px;stroke-linecap:round;"/><path d="M1059.51,253.576l-26.181,13.091l26.181,13.09l0,-26.181Z"/><path d="M1273.82,253.576l26.181,13.091l-26.181,13.09l0,-26.181Z"/><path d="M1054.28,266.667l224.777,0" style="fill:none;stroke:#000;stroke-width:4.36px;stroke-linecap:round;"/></g><path d="M1924.94,221.133c0,-2 0.308,-3.791 0.925,-5.375c0.616,-1.583 1.433,-2.925 2.45,-4.025c1.016,-1.1 2.183,-1.95 3.5,-2.55c1.316,-0.6 2.675,-0.9 4.075,-0.9c1.5,0 2.791,0.267 3.875,0.8c1.083,0.534 2.158,1.284 3.225,2.25l-0.2,-4.35l0,-9.1l4.95,0l0,35.45l-4.05,0l-0.4,-3l-0.15,0c-0.967,0.967 -2.117,1.809 -3.45,2.525c-1.334,0.717 -2.734,1.075 -4.2,1.075c-1.6,0 -3.042,-0.283 -4.325,-0.85c-1.284,-0.566 -2.392,-1.4 -3.325,-2.5c-0.934,-1.1 -1.65,-2.441 -2.15,-4.025c-0.5,-1.583 -0.75,-3.391 -0.75,-5.425Zm5.1,-0.05c0,2.834 0.575,5 1.725,6.5c1.15,1.5 2.775,2.25 4.875,2.25c2.2,0 4.25,-1.1 6.15,-3.3l0,-11.6c-0.967,-0.933 -1.934,-1.583 -2.9,-1.95c-0.967,-0.366 -1.934,-0.55 -2.9,-0.55c-0.967,0 -1.867,0.2 -2.7,0.6c-0.834,0.4 -1.567,0.975 -2.2,1.725c-0.634,0.75 -1.134,1.659 -1.5,2.725c-0.367,1.067 -0.55,2.267 -0.55,3.6Z" style="fill-rule:nonzero;"/><path d="M1962.04,212.883l-6.7,0l0,-3.75l6.9,-0.25l0.65,-6.75l4.1,0l0,6.75l11.55,0l0,4l-11.55,0l0,10.8c0,2.1 0.425,3.667 1.275,4.7c0.85,1.034 2.391,1.55 4.625,1.55c1.066,0 2.058,-0.091 2.975,-0.275c0.916,-0.183 1.791,-0.441 2.625,-0.775l1,3.65c-1.1,0.367 -2.317,0.692 -3.65,0.975c-1.334,0.284 -2.7,0.425 -4.1,0.425c-1.8,0 -3.325,-0.25 -4.575,-0.75c-1.25,-0.5 -2.25,-1.2 -3,-2.1c-0.75,-0.9 -1.292,-1.975 -1.625,-3.225c-0.334,-1.25 -0.5,-2.641 -0.5,-4.175l0,-10.8Z" style="fill-rule:nonzero;"/><path d="M1985.59,230.433c2.6,-2.266 4.916,-4.325 6.95,-6.175c2.033,-1.85 3.741,-3.566 5.125,-5.15c1.383,-1.583 2.441,-3.058 3.175,-4.425c0.733,-1.366 1.1,-2.7 1.1,-4c0,-1.766 -0.534,-3.183 -1.6,-4.25c-1.067,-1.066 -2.7,-1.6 -4.9,-1.6c-1.434,0 -2.767,0.367 -4,1.1c-1.234,0.734 -2.334,1.6 -3.3,2.6l-2.8,-2.75c1.5,-1.533 3.091,-2.733 4.775,-3.6c1.683,-0.866 3.675,-1.3 5.975,-1.3c1.6,0 3.058,0.225 4.375,0.675c1.316,0.45 2.433,1.092 3.35,1.925c0.916,0.834 1.625,1.842 2.125,3.025c0.5,1.184 0.75,2.492 0.75,3.925c0,1.467 -0.35,2.942 -1.05,4.425c-0.7,1.484 -1.667,3 -2.9,4.55c-1.234,1.55 -2.7,3.159 -4.4,4.825c-1.7,1.667 -3.55,3.4 -5.55,5.2c0.966,-0.066 1.958,-0.133 2.975,-0.2c1.016,-0.066 1.975,-0.1 2.875,-0.1l9.75,0l0,4.2l-22.8,0l0,-2.9Z" style="fill-rule:nonzero;"/><path d="M1524.82,220.533c0,-2 0.308,-3.791 0.925,-5.375c0.616,-1.583 1.433,-2.925 2.45,-4.025c1.016,-1.1 2.183,-1.95 3.5,-2.55c1.316,-0.6 2.675,-0.9 4.075,-0.9c1.5,0 2.791,0.267 3.875,0.8c1.083,0.534 2.158,1.284 3.225,2.25l-0.2,-4.35l0,-9.1l4.95,0l0,35.45l-4.05,0l-0.4,-3l-0.15,0c-0.967,0.967 -2.117,1.809 -3.45,2.525c-1.334,0.717 -2.734,1.075 -4.2,1.075c-1.6,0 -3.042,-0.283 -4.325,-0.85c-1.284,-0.566 -2.392,-1.4 -3.325,-2.5c-0.934,-1.1 -1.65,-2.441 -2.15,-4.025c-0.5,-1.583 -0.75,-3.391 -0.75,-5.425Zm5.1,-0.05c0,2.834 0.575,5 1.725,6.5c1.15,1.5 2.775,2.25 4.875,2.25c2.2,0 4.25,-1.1 6.15,-3.3l0,-11.6c-0.967,-0.933 -1.934,-1.583 -2.9,-1.95c-0.967,-0.366 -1.934,-0.55 -2.9,-0.55c-0.967,0 -1.867,0.2 -2.7,0.6c-0.834,0.4 -1.567,0.975 -2.2,1.725c-0.634,0.75 -1.134,1.659 -1.5,2.725c-0.367,1.067 -0.55,2.267 -0.55,3.6Z" style="fill-rule:nonzero;"/><path d="M1561.92,212.283l-6.7,0l0,-3.75l6.9,-0.25l0.65,-6.75l4.1,0l0,6.75l11.55,0l0,4l-11.55,0l0,10.8c0,2.1 0.425,3.667 1.275,4.7c0.85,1.034 2.391,1.55 4.625,1.55c1.066,0 2.058,-0.091 2.975,-0.275c0.916,-0.183 1.791,-0.441 2.625,-0.775l1,3.65c-1.1,0.367 -2.317,0.692 -3.65,0.975c-1.334,0.284 -2.7,0.425 -4.1,0.425c-1.8,0 -3.325,-0.25 -4.575,-0.75c-1.25,-0.5 -2.25,-1.2 -3,-2.1c-0.75,-0.9 -1.292,-1.975 -1.625,-3.225c-0.334,-1.25 -0.5,-2.641 -0.5,-4.175l0,-10.8Z" style="fill-rule:nonzero;"/><path d="M1608.52,228.683l0,4.05l-21.8,0l0,-4.05l8.85,0l0,-22.2l-6.75,0l0,-3.1c1.733,-0.266 3.233,-0.608 4.5,-1.025c1.266,-0.416 2.433,-0.908 3.5,-1.475l3.7,0l0,27.8l8,0Z" style="fill-rule:nonzero;"/><path d="M1124.74,220.533c0,-2 0.308,-3.791 0.925,-5.375c0.616,-1.583 1.433,-2.925 2.45,-4.025c1.016,-1.1 2.183,-1.95 3.5,-2.55c1.316,-0.6 2.675,-0.9 4.075,-0.9c1.5,0 2.791,0.267 3.875,0.8c1.083,0.534 2.158,1.284 3.225,2.25l-0.2,-4.35l0,-9.1l4.95,0l0,35.45l-4.05,0l-0.4,-3l-0.15,0c-0.967,0.967 -2.117,1.809 -3.45,2.525c-1.334,0.717 -2.734,1.075 -4.2,1.075c-1.6,0 -3.042,-0.283 -4.325,-0.85c-1.284,-0.566 -2.392,-1.4 -3.325,-2.5c-0.934,-1.1 -1.65,-2.441 -2.15,-4.025c-0.5,-1.583 -0.75,-3.391 -0.75,-5.425Zm5.1,-0.05c0,2.834 0.575,5 1.725,6.5c1.15,1.5 2.775,2.25 4.875,2.25c2.2,0 4.25,-1.1 6.15,-3.3l0,-11.6c-0.967,-0.933 -1.934,-1.583 -2.9,-1.95c-0.967,-0.366 -1.934,-0.55 -2.9,-0.55c-0.967,0 -1.867,0.2 -2.7,0.6c-0.834,0.4 -1.567,0.975 -2.2,1.725c-0.634,0.75 -1.134,1.659 -1.5,2.725c-0.367,1.067 -0.55,2.267 -0.55,3.6Z" style="fill-rule:nonzero;"/><path d="M1161.84,212.283l-6.7,0l0,-3.75l6.9,-0.25l0.65,-6.75l4.1,0l0,6.75l11.55,0l0,4l-11.55,0l0,10.8c0,2.1 0.425,3.667 1.275,4.7c0.85,1.034 2.391,1.55 4.625,1.55c1.066,0 2.058,-0.091 2.975,-0.275c0.916,-0.183 1.791,-0.441 2.625,-0.775l1,3.65c-1.1,0.367 -2.317,0.692 -3.65,0.975c-1.334,0.284 -2.7,0.425 -4.1,0.425c-1.8,0 -3.325,-0.25 -4.575,-0.75c-1.25,-0.5 -2.25,-1.2 -3,-2.1c-0.75,-0.9 -1.292,-1.975 -1.625,-3.225c-0.334,-1.25 -0.5,-2.641 -0.5,-4.175l0,-10.8Z" style="fill-rule:nonzero;"/><path d="M1196.94,233.333c-3.6,0 -6.442,-1.433 -8.525,-4.3c-2.084,-2.866 -3.125,-6.983 -3.125,-12.35c0,-5.366 1.041,-9.441 3.125,-12.225c2.083,-2.783 4.925,-4.175 8.525,-4.175c3.6,0 6.441,1.392 8.525,4.175c2.083,2.784 3.125,6.859 3.125,12.225c0,5.367 -1.042,9.484 -3.125,12.35c-2.084,2.867 -4.925,4.3 -8.525,4.3Zm0,-29.15c-1.034,0 -1.984,0.234 -2.85,0.7c-0.867,0.467 -1.617,1.2 -2.25,2.2c-0.634,1 -1.125,2.292 -1.475,3.875c-0.35,1.584 -0.525,3.492 -0.525,5.725c0,2.234 0.175,4.15 0.525,5.75c0.35,1.6 0.841,2.917 1.475,3.95c0.633,1.034 1.383,1.792 2.25,2.275c0.866,0.484 1.816,0.725 2.85,0.725c1.033,0 1.983,-0.241 2.85,-0.725c0.866,-0.483 1.616,-1.241 2.25,-2.275c0.633,-1.033 1.125,-2.35 1.475,-3.95c0.35,-1.6 0.525,-3.516 0.525,-5.75c0,-2.233 -0.175,-4.141 -0.525,-5.725c-0.35,-1.583 -0.842,-2.875 -1.475,-3.875c-0.634,-1 -1.384,-1.733 -2.25,-2.2c-0.867,-0.466 -1.817,-0.7 -2.85,-0.7Zm0,15.7c-0.9,0 -1.675,-0.308 -2.325,-0.925c-0.65,-0.616 -0.975,-1.458 -0.975,-2.525c0,-1.066 0.325,-1.908 0.975,-2.525c0.65,-0.616 1.425,-0.925 2.325,-0.925c0.9,0 1.675,0.309 2.325,0.925c0.65,0.617 0.975,1.459 0.975,2.525c0,1.067 -0.325,1.909 -0.975,2.525c-0.65,0.617 -1.425,0.925 -2.325,0.925Z" style="fill-rule:nonzero;"/><path d="M1235.05,146.217l-6.7,0l0,-3.75l6.9,-0.25l0.65,-6.75l4.1,0l0,6.75l11.55,0l0,4l-11.55,0l0,10.8c0,2.1 0.425,3.666 1.275,4.7c0.85,1.033 2.392,1.55 4.625,1.55c1.067,0 2.058,-0.092 2.975,-0.275c0.917,-0.184 1.792,-0.442 2.625,-0.775l1,3.65c-1.1,0.366 -2.317,0.691 -3.65,0.975c-1.333,0.283 -2.7,0.425 -4.1,0.425c-1.8,0 -3.325,-0.25 -4.575,-0.75c-1.25,-0.5 -2.25,-1.2 -3,-2.1c-0.75,-0.9 -1.292,-1.975 -1.625,-3.225c-0.333,-1.25 -0.5,-2.642 -0.5,-4.175l0,-10.8Z" style="fill-rule:nonzero;"/><path d="M1259.5,142.217l15.9,0l0,24.45l-4.95,0l0,-20.45l-10.95,0l0,-4Zm13,-4.65c-1.067,0 -1.95,-0.317 -2.65,-0.95c-0.7,-0.634 -1.05,-1.484 -1.05,-2.55c0,-1.067 0.35,-1.925 1.05,-2.575c0.7,-0.65 1.583,-0.975 2.65,-0.975c1.067,0 1.95,0.325 2.65,0.975c0.7,0.65 1.05,1.508 1.05,2.575c0,1.066 -0.35,1.916 -1.05,2.55c-0.7,0.633 -1.583,0.95 -2.65,0.95Z" style="fill-rule:nonzero;"/><path d="M1287.85,142.217l3.8,0l0.4,3.2l0.15,0c0.567,-1.1 1.258,-2.009 2.075,-2.725c0.817,-0.717 1.925,-1.075 3.325,-1.075c2.433,0 3.95,1.383 4.55,4.15c0.667,-1.234 1.433,-2.234 2.3,-3c0.867,-0.767 1.983,-1.15 3.35,-1.15c1.7,0 3.017,0.658 3.95,1.975c0.933,1.316 1.4,3.208 1.4,5.675l0,17.4l-4.7,0l0,-17c0,-2.5 -0.767,-3.75 -2.3,-3.75c-0.767,0 -1.433,0.275 -2,0.825c-0.567,0.55 -1.133,1.391 -1.7,2.525l0,17.4l-3.9,0l0,-17c0,-2.5 -0.8,-3.75 -2.4,-3.75c-0.767,0 -1.417,0.275 -1.95,0.825c-0.533,0.55 -1.083,1.391 -1.65,2.525l0,17.4l-4.7,0l0,-24.45Z" style="fill-rule:nonzero;"/><path d="M1318.4,154.467c0,-2 0.35,-3.792 1.05,-5.375c0.7,-1.584 1.633,-2.934 2.8,-4.05c1.167,-1.117 2.5,-1.967 4,-2.55c1.5,-0.584 3.05,-0.875 4.65,-0.875c1.8,0 3.392,0.283 4.775,0.85c1.383,0.566 2.558,1.358 3.525,2.375c0.967,1.016 1.7,2.233 2.2,3.65c0.5,1.416 0.75,2.975 0.75,4.675c0,0.5 -0.025,0.975 -0.075,1.425c-0.05,0.45 -0.108,0.825 -0.175,1.125l-18.4,0c0.167,2.4 1.058,4.275 2.675,5.625c1.617,1.35 3.658,2.025 6.125,2.025c1.333,0 2.575,-0.184 3.725,-0.55c1.15,-0.367 2.275,-0.884 3.375,-1.55l1.75,3.15c-1.267,0.8 -2.692,1.475 -4.275,2.025c-1.583,0.55 -3.325,0.825 -5.225,0.825c-1.833,0 -3.558,-0.292 -5.175,-0.875c-1.617,-0.584 -3.025,-1.425 -4.225,-2.525c-1.2,-1.1 -2.142,-2.442 -2.825,-4.025c-0.683,-1.584 -1.025,-3.375 -1.025,-5.375Zm19.15,-2.15c0,-2.2 -0.567,-3.884 -1.7,-5.05c-1.133,-1.167 -2.75,-1.75 -4.85,-1.75c-1.833,0 -3.467,0.583 -4.9,1.75c-1.433,1.166 -2.317,2.85 -2.65,5.05l14.1,0Z" style="fill-rule:nonzero;"/><path d="M1371.65,162.617l0,4.05l-21.8,0l0,-4.05l8.85,0l0,-22.2l-6.75,0l0,-3.1c1.733,-0.267 3.233,-0.609 4.5,-1.025c1.267,-0.417 2.433,-0.909 3.5,-1.475l3.7,0l0,27.8l8,0Z" style="fill-rule:nonzero;"/><path d="M1768.51,145.617l-6.7,0l0,-3.75l6.9,-0.25l0.65,-6.75l4.1,0l0,6.75l11.55,0l0,4l-11.55,0l0,10.8c0,2.1 0.425,3.666 1.275,4.7c0.85,1.033 2.392,1.55 4.625,1.55c1.067,0 2.059,-0.092 2.975,-0.275c0.917,-0.184 1.792,-0.442 2.625,-0.775l1,3.65c-1.1,0.366 -2.316,0.691 -3.65,0.975c-1.333,0.283 -2.7,0.425 -4.1,0.425c-1.8,0 -3.325,-0.25 -4.575,-0.75c-1.25,-0.5 -2.25,-1.2 -3,-2.1c-0.75,-0.9 -1.291,-1.975 -1.625,-3.225c-0.333,-1.25 -0.5,-2.642 -0.5,-4.175l0,-10.8Z" style="fill-rule:nonzero;"/><path d="M1792.96,141.617l15.9,0l0,24.45l-4.95,0l0,-20.45l-10.95,0l0,-4Zm13,-4.65c-1.066,0 -1.95,-0.317 -2.65,-0.95c-0.7,-0.634 -1.05,-1.484 -1.05,-2.55c0,-1.067 0.35,-1.925 1.05,-2.575c0.7,-0.65 1.584,-0.975 2.65,-0.975c1.067,0 1.95,0.325 2.65,0.975c0.7,0.65 1.05,1.508 1.05,2.575c0,1.066 -0.35,1.916 -1.05,2.55c-0.7,0.633 -1.583,0.95 -2.65,0.95Z" style="fill-rule:nonzero;"/><path d="M1821.31,141.617l3.8,0l0.4,3.2l0.15,0c0.567,-1.1 1.259,-2.009 2.075,-2.725c0.817,-0.717 1.925,-1.075 3.325,-1.075c2.434,0 3.95,1.383 4.55,4.15c0.667,-1.234 1.434,-2.234 2.3,-3c0.867,-0.767 1.984,-1.15 3.35,-1.15c1.7,0 3.017,0.658 3.95,1.975c0.934,1.316 1.4,3.208 1.4,5.675l0,17.4l-4.7,0l0,-17c0,-2.5 -0.766,-3.75 -2.3,-3.75c-0.766,0 -1.433,0.275 -2,0.825c-0.566,0.55 -1.133,1.391 -1.7,2.525l0,17.4l-3.9,0l0,-17c0,-2.5 -0.8,-3.75 -2.4,-3.75c-0.766,0 -1.416,0.275 -1.95,0.825c-0.533,0.55 -1.083,1.391 -1.65,2.525l0,17.4l-4.7,0l0,-24.45Z" style="fill-rule:nonzero;"/><path d="M1851.86,153.867c0,-2 0.35,-3.792 1.05,-5.375c0.7,-1.584 1.634,-2.934 2.8,-4.05c1.167,-1.117 2.5,-1.967 4,-2.55c1.5,-0.584 3.05,-0.875 4.65,-0.875c1.8,0 3.392,0.283 4.775,0.85c1.384,0.566 2.559,1.358 3.525,2.375c0.967,1.016 1.7,2.233 2.2,3.65c0.5,1.416 0.75,2.975 0.75,4.675c0,0.5 -0.025,0.975 -0.075,1.425c-0.05,0.45 -0.108,0.825 -0.175,1.125l-18.4,0c0.167,2.4 1.059,4.275 2.675,5.625c1.617,1.35 3.659,2.025 6.125,2.025c1.334,0 2.575,-0.184 3.725,-0.55c1.15,-0.367 2.275,-0.884 3.375,-1.55l1.75,3.15c-1.266,0.8 -2.691,1.475 -4.275,2.025c-1.583,0.55 -3.325,0.825 -5.225,0.825c-1.833,0 -3.558,-0.292 -5.175,-0.875c-1.616,-0.584 -3.025,-1.425 -4.225,-2.525c-1.2,-1.1 -2.141,-2.442 -2.825,-4.025c-0.683,-1.584 -1.025,-3.375 -1.025,-5.375Zm19.15,-2.15c0,-2.2 -0.566,-3.884 -1.7,-5.05c-1.133,-1.167 -2.75,-1.75 -4.85,-1.75c-1.833,0 -3.466,0.583 -4.9,1.75c-1.433,1.166 -2.316,2.85 -2.65,5.05l14.1,0Z" style="fill-rule:nonzero;"/><path d="M1882.06,163.167c2.6,-2.267 4.917,-4.325 6.95,-6.175c2.034,-1.85 3.742,-3.567 5.125,-5.15c1.384,-1.584 2.442,-3.059 3.175,-4.425c0.734,-1.367 1.1,-2.7 1.1,-4c0,-1.767 -0.533,-3.184 -1.6,-4.25c-1.066,-1.067 -2.7,-1.6 -4.9,-1.6c-1.433,0 -2.766,0.366 -4,1.1c-1.233,0.733 -2.333,1.6 -3.3,2.6l-2.8,-2.75c1.5,-1.534 3.092,-2.734 4.775,-3.6c1.684,-0.867 3.675,-1.3 5.975,-1.3c1.6,0 3.059,0.225 4.375,0.675c1.317,0.45 2.434,1.091 3.35,1.925c0.917,0.833 1.625,1.841 2.125,3.025c0.5,1.183 0.75,2.491 0.75,3.925c0,1.466 -0.35,2.941 -1.05,4.425c-0.7,1.483 -1.666,3 -2.9,4.55c-1.233,1.55 -2.7,3.158 -4.4,4.825c-1.7,1.666 -3.55,3.4 -5.55,5.2c0.967,-0.067 1.959,-0.134 2.975,-0.2c1.017,-0.067 1.975,-0.1 2.875,-0.1l9.75,0l0,4.2l-22.8,0l0,-2.9Z" style="fill-rule:nonzero;"/><path d="M2035.25,145.617l-6.7,0l0,-3.75l6.9,-0.25l0.65,-6.75l4.1,0l0,6.75l11.55,0l0,4l-11.55,0l0,10.8c0,2.1 0.425,3.666 1.275,4.7c0.85,1.033 2.392,1.55 4.625,1.55c1.067,0 2.058,-0.092 2.975,-0.275c0.917,-0.184 1.792,-0.442 2.625,-0.775l1,3.65c-1.1,0.366 -2.317,0.691 -3.65,0.975c-1.333,0.283 -2.7,0.425 -4.1,0.425c-1.8,0 -3.325,-0.25 -4.575,-0.75c-1.25,-0.5 -2.25,-1.2 -3,-2.1c-0.75,-0.9 -1.292,-1.975 -1.625,-3.225c-0.333,-1.25 -0.5,-2.642 -0.5,-4.175l0,-10.8Z" style="fill-rule:nonzero;"/><path d="M2059.7,141.617l15.9,0l0,24.45l-4.95,0l0,-20.45l-10.95,0l0,-4Zm13,-4.65c-1.067,0 -1.95,-0.317 -2.65,-0.95c-0.7,-0.634 -1.05,-1.484 -1.05,-2.55c0,-1.067 0.35,-1.925 1.05,-2.575c0.7,-0.65 1.583,-0.975 2.65,-0.975c1.067,0 1.95,0.325 2.65,0.975c0.7,0.65 1.05,1.508 1.05,2.575c0,1.066 -0.35,1.916 -1.05,2.55c-0.7,0.633 -1.583,0.95 -2.65,0.95Z" style="fill-rule:nonzero;"/><path d="M2088.05,141.617l3.8,0l0.4,3.2l0.15,0c0.567,-1.1 1.258,-2.009 2.075,-2.725c0.817,-0.717 1.925,-1.075 3.325,-1.075c2.433,0 3.95,1.383 4.55,4.15c0.667,-1.234 1.433,-2.234 2.3,-3c0.867,-0.767 1.983,-1.15 3.35,-1.15c1.7,0 3.017,0.658 3.95,1.975c0.933,1.316 1.4,3.208 1.4,5.675l0,17.4l-4.7,0l0,-17c0,-2.5 -0.767,-3.75 -2.3,-3.75c-0.767,0 -1.433,0.275 -2,0.825c-0.567,0.55 -1.133,1.391 -1.7,2.525l0,17.4l-3.9,0l0,-17c0,-2.5 -0.8,-3.75 -2.4,-3.75c-0.767,0 -1.417,0.275 -1.95,0.825c-0.533,0.55 -1.083,1.391 -1.65,2.525l0,17.4l-4.7,0l0,-24.45Z" style="fill-rule:nonzero;"/><path d="M2118.6,153.867c0,-2 0.35,-3.792 1.05,-5.375c0.7,-1.584 1.633,-2.934 2.8,-4.05c1.167,-1.117 2.5,-1.967 4,-2.55c1.5,-0.584 3.05,-0.875 4.65,-0.875c1.8,0 3.392,0.283 4.775,0.85c1.383,0.566 2.558,1.358 3.525,2.375c0.967,1.016 1.7,2.233 2.2,3.65c0.5,1.416 0.75,2.975 0.75,4.675c0,0.5 -0.025,0.975 -0.075,1.425c-0.05,0.45 -0.108,0.825 -0.175,1.125l-18.4,0c0.167,2.4 1.058,4.275 2.675,5.625c1.617,1.35 3.658,2.025 6.125,2.025c1.333,0 2.575,-0.184 3.725,-0.55c1.15,-0.367 2.275,-0.884 3.375,-1.55l1.75,3.15c-1.267,0.8 -2.692,1.475 -4.275,2.025c-1.583,0.55 -3.325,0.825 -5.225,0.825c-1.833,0 -3.558,-0.292 -5.175,-0.875c-1.617,-0.584 -3.025,-1.425 -4.225,-2.525c-1.2,-1.1 -2.142,-2.442 -2.825,-4.025c-0.683,-1.584 -1.025,-3.375 -1.025,-5.375Zm19.15,-2.15c0,-2.2 -0.567,-3.884 -1.7,-5.05c-1.133,-1.167 -2.75,-1.75 -4.85,-1.75c-1.833,0 -3.467,0.583 -4.9,1.75c-1.433,1.166 -2.317,2.85 -2.65,5.05l14.1,0Z" style="fill-rule:nonzero;"/><path d="M2150.45,158.967c1.067,0.966 2.325,1.816 3.775,2.55c1.45,0.733 3.125,1.1 5.025,1.1c1.033,0 1.983,-0.125 2.85,-0.375c0.867,-0.25 1.625,-0.609 2.275,-1.075c0.65,-0.467 1.158,-1.025 1.525,-1.675c0.367,-0.65 0.55,-1.392 0.55,-2.225c0,-0.867 -0.2,-1.659 -0.6,-2.375c-0.4,-0.717 -1.033,-1.334 -1.9,-1.85c-0.867,-0.517 -2.008,-0.917 -3.425,-1.2c-1.417,-0.284 -3.142,-0.425 -5.175,-0.425l0,-3.7c1.8,0 3.333,-0.142 4.6,-0.425c1.267,-0.284 2.3,-0.667 3.1,-1.15c0.8,-0.484 1.383,-1.059 1.75,-1.725c0.367,-0.667 0.55,-1.4 0.55,-2.2c0,-1.434 -0.558,-2.567 -1.675,-3.4c-1.117,-0.834 -2.592,-1.25 -4.425,-1.25c-1.433,0 -2.775,0.291 -4.025,0.875c-1.25,0.583 -2.408,1.341 -3.475,2.275l-2.6,-3.1c1.4,-1.167 2.95,-2.125 4.65,-2.875c1.7,-0.75 3.583,-1.125 5.65,-1.125c1.567,0 3.017,0.183 4.35,0.55c1.333,0.366 2.483,0.9 3.45,1.6c0.967,0.7 1.725,1.566 2.275,2.6c0.55,1.033 0.825,2.2 0.825,3.5c0,1.866 -0.608,3.408 -1.825,4.625c-1.217,1.216 -2.825,2.158 -4.825,2.825l0,0.2c1.033,0.233 2.025,0.583 2.975,1.05c0.95,0.466 1.775,1.033 2.475,1.7c0.7,0.666 1.258,1.441 1.675,2.325c0.417,0.883 0.625,1.858 0.625,2.925c0,1.433 -0.317,2.716 -0.95,3.85c-0.633,1.133 -1.483,2.091 -2.55,2.875c-1.067,0.783 -2.325,1.383 -3.775,1.8c-1.45,0.416 -2.975,0.625 -4.575,0.625c-2.767,0 -5.1,-0.442 -7,-1.325c-1.9,-0.884 -3.433,-1.942 -4.6,-3.175l2.45,-3.2Z" style="fill-rule:nonzero;"/><path d="M968.308,146.217l-6.7,0l0,-3.75l6.9,-0.25l0.65,-6.75l4.1,0l0,6.75l11.55,0l0,4l-11.55,0l0,10.8c0,2.1 0.425,3.666 1.275,4.7c0.85,1.033 2.392,1.55 4.625,1.55c1.067,0 2.059,-0.092 2.975,-0.275c0.917,-0.184 1.792,-0.442 2.625,-0.775l1,3.65c-1.1,0.366 -2.316,0.691 -3.65,0.975c-1.333,0.283 -2.7,0.425 -4.1,0.425c-1.8,0 -3.325,-0.25 -4.575,-0.75c-1.25,-0.5 -2.25,-1.2 -3,-2.1c-0.75,-0.9 -1.291,-1.975 -1.625,-3.225c-0.333,-1.25 -0.5,-2.642 -0.5,-4.175l0,-10.8Z" style="fill-rule:nonzero;"/><path d="M992.758,142.217l15.9,0l0,24.45l-4.95,0l0,-20.45l-10.95,0l0,-4Zm13,-4.65c-1.066,0 -1.95,-0.317 -2.65,-0.95c-0.7,-0.634 -1.05,-1.484 -1.05,-2.55c0,-1.067 0.35,-1.925 1.05,-2.575c0.7,-0.65 1.584,-0.975 2.65,-0.975c1.067,0 1.95,0.325 2.65,0.975c0.7,0.65 1.05,1.508 1.05,2.575c0,1.066 -0.35,1.916 -1.05,2.55c-0.7,0.633 -1.583,0.95 -2.65,0.95Z" style="fill-rule:nonzero;"/><path d="M1021.11,142.217l3.8,0l0.4,3.2l0.15,0c0.567,-1.1 1.259,-2.009 2.075,-2.725c0.817,-0.717 1.925,-1.075 3.325,-1.075c2.434,0 3.95,1.383 4.55,4.15c0.667,-1.234 1.434,-2.234 2.3,-3c0.867,-0.767 1.984,-1.15 3.35,-1.15c1.7,0 3.017,0.658 3.95,1.975c0.934,1.316 1.4,3.208 1.4,5.675l0,17.4l-4.7,0l0,-17c0,-2.5 -0.766,-3.75 -2.3,-3.75c-0.766,0 -1.433,0.275 -2,0.825c-0.566,0.55 -1.133,1.391 -1.7,2.525l0,17.4l-3.9,0l0,-17c0,-2.5 -0.8,-3.75 -2.4,-3.75c-0.766,0 -1.416,0.275 -1.95,0.825c-0.533,0.55 -1.083,1.391 -1.65,2.525l0,17.4l-4.7,0l0,-24.45Z" style="fill-rule:nonzero;"/><path d="M1051.66,154.467c0,-2 0.35,-3.792 1.05,-5.375c0.7,-1.584 1.634,-2.934 2.8,-4.05c1.167,-1.117 2.5,-1.967 4,-2.55c1.5,-0.584 3.05,-0.875 4.65,-0.875c1.8,0 3.392,0.283 4.775,0.85c1.384,0.566 2.559,1.358 3.525,2.375c0.967,1.016 1.7,2.233 2.2,3.65c0.5,1.416 0.75,2.975 0.75,4.675c0,0.5 -0.025,0.975 -0.075,1.425c-0.05,0.45 -0.108,0.825 -0.175,1.125l-18.4,0c0.167,2.4 1.059,4.275 2.675,5.625c1.617,1.35 3.659,2.025 6.125,2.025c1.334,0 2.575,-0.184 3.725,-0.55c1.15,-0.367 2.275,-0.884 3.375,-1.55l1.75,3.15c-1.266,0.8 -2.691,1.475 -4.275,2.025c-1.583,0.55 -3.325,0.825 -5.225,0.825c-1.833,0 -3.558,-0.292 -5.175,-0.875c-1.616,-0.584 -3.025,-1.425 -4.225,-2.525c-1.2,-1.1 -2.141,-2.442 -2.825,-4.025c-0.683,-1.584 -1.025,-3.375 -1.025,-5.375Zm19.15,-2.15c0,-2.2 -0.566,-3.884 -1.7,-5.05c-1.133,-1.167 -2.75,-1.75 -4.85,-1.75c-1.833,0 -3.466,0.583 -4.9,1.75c-1.433,1.166 -2.316,2.85 -2.65,5.05l14.1,0Z" style="fill-rule:nonzero;"/><path d="M1093.41,167.267c-3.6,0 -6.441,-1.434 -8.525,-4.3c-2.083,-2.867 -3.125,-6.984 -3.125,-12.35c0,-5.367 1.042,-9.442 3.125,-12.225c2.084,-2.784 4.925,-4.175 8.525,-4.175c3.6,0 6.442,1.391 8.525,4.175c2.084,2.783 3.125,6.858 3.125,12.225c0,5.366 -1.041,9.483 -3.125,12.35c-2.083,2.866 -4.925,4.3 -8.525,4.3Zm0,-29.15c-1.033,0 -1.983,0.233 -2.85,0.7c-0.866,0.466 -1.616,1.2 -2.25,2.2c-0.633,1 -1.125,2.291 -1.475,3.875c-0.35,1.583 -0.525,3.491 -0.525,5.725c0,2.233 0.175,4.15 0.525,5.75c0.35,1.6 0.842,2.916 1.475,3.95c0.634,1.033 1.384,1.791 2.25,2.275c0.867,0.483 1.817,0.725 2.85,0.725c1.034,0 1.984,-0.242 2.85,-0.725c0.867,-0.484 1.617,-1.242 2.25,-2.275c0.634,-1.034 1.125,-2.35 1.475,-3.95c0.35,-1.6 0.525,-3.517 0.525,-5.75c0,-2.234 -0.175,-4.142 -0.525,-5.725c-0.35,-1.584 -0.841,-2.875 -1.475,-3.875c-0.633,-1 -1.383,-1.734 -2.25,-2.2c-0.866,-0.467 -1.816,-0.7 -2.85,-0.7Zm0,15.7c-0.9,0 -1.675,-0.309 -2.325,-0.925c-0.65,-0.617 -0.975,-1.459 -0.975,-2.525c0,-1.067 0.325,-1.909 0.975,-2.525c0.65,-0.617 1.425,-0.925 2.325,-0.925c0.9,0 1.675,0.308 2.325,0.925c0.65,0.616 0.975,1.458 0.975,2.525c0,1.066 -0.325,1.908 -0.975,2.525c-0.65,0.616 -1.425,0.925 -2.325,0.925Z" style="fill-rule:nonzero;"/></g><g id="ball-timeline" serif:id="ball timeline"><g id="grid1" serif:id="grid"><path d="M2100,466.667l0,400" style="fill:none;stroke:#000;stroke-opacity:0.25;stroke-width:4.36px;stroke-linecap:round;"/><path d="M1833.33,866.667l0,-400" style="fill:none;stroke:#000;stroke-opacity:0.25;stroke-width:4.36px;stroke-linecap:round;"/><path d="M1300,866.667l0,-400" style="fill:none;stroke:#000;stroke-opacity:0.25;stroke-width:4.36px;stroke-linecap:round;"/><path d="M1033.33,466.667l0,400" style="fill:none;stroke:#000;stroke-opacity:0.25;stroke-width:4.36px;stroke-linecap:round;"/><path d="M900,533.333l1333.33,0" style="fill:none;stroke:#000;stroke-opacity:0.25;stroke-width:4.36px;stroke-linecap:round;"/><path d="M900,800l1333.33,0" style="fill:none;stroke:#000;stroke-opacity:0.25;stroke-width:4.36px;stroke-linecap:round;"/></g><path id="animation" d="M900,800l400,0c266.667,0 266.667,-266.667 533.333,-266.667l400,0" style="fill:none;stroke:#000;stroke-width:12.5px;stroke-linecap:round;"/></g><g id="box-timeline" serif:id="box timeline"><g id="grid2" serif:id="grid"><path d="M2100,1000l0,400" style="fill:none;stroke:#000;stroke-opacity:0.25;stroke-width:4.36px;stroke-linecap:round;"/><path d="M1833.33,1400l0,-400" style="fill:none;stroke:#000;stroke-opacity:0.25;stroke-width:4.36px;stroke-linecap:round;"/><path d="M1300,1400l0,-400" style="fill:none;stroke:#000;stroke-opacity:0.25;stroke-width:4.36px;stroke-linecap:round;"/><path d="M1033.33,1000l0,400" style="fill:none;stroke:#000;stroke-opacity:0.25;stroke-width:4.36px;stroke-linecap:round;"/><path d="M900,1066.67l1333.33,0" style="fill:none;stroke:#000;stroke-opacity:0.25;stroke-width:4.36px;stroke-linecap:round;"/><path d="M900,1333.33l1333.33,0" style="fill:none;stroke:#000;stroke-opacity:0.25;stroke-width:4.36px;stroke-linecap:round;"/></g><path id="animation1" serif:id="animation" d="M900,1333.33l133.333,0c133.334,0 140.959,-266.666 266.667,-266.666l533.333,0c125.708,0 133.334,266.666 266.667,266.666l133.333,0" style="fill:none;stroke:#000;stroke-width:12.5px;stroke-linecap:round;"/></g><circle cx="1300" cy="800" r="16.667"/><circle cx="1833.33" cy="533.333" r="16.667"/><circle cx="1300" cy="1066.67" r="16.667"/><circle cx="1833.33" cy="1066.67" r="16.667"/><circle cx="1033.33" cy="1333.33" r="16.667"/><circle cx="2100" cy="1333.33" r="16.667"/></svg>