<?xml version="1.0" encoding="UTF-8" standalone="no"?><!DOCTYPE svg PUBLIC "-//W3C//DTD SVG 1.1//EN" "http://www.w3.org/Graphics/SVG/1.1/DTD/svg11.dtd"><svg width="100%" height="100%" viewBox="0 0 1250 1834" version="1.1" xmlns="http://www.w3.org/2000/svg" xmlns:xlink="http://www.w3.org/1999/xlink" xml:space="preserve" xmlns:serif="http://www.serif.com/" style="fill-rule:evenodd;clip-rule:evenodd;stroke-linejoin:round;stroke-miterlimit:2;"><rect x="-0" y="0" width="1250" height="1833.33" style="fill:#fff;"/><g id="_3r" serif:id="3r"><g id="pixels"><rect x="750" y="1666.67" width="83.333" height="83.333" style="fill-opacity:0.96;"/><rect x="916.667" y="1666.67" width="83.333" height="83.333"/><rect x="1083.33" y="1666.67" width="83.333" height="83.333"/><rect x="833.333" y="1583.33" width="83.333" height="83.333"/><rect x="1000" y="1583.33" width="83.333" height="83.333"/><rect x="833.333" y="1666.67" width="83.333" height="83.333"/><rect x="1000" y="1666.67" width="83.333" height="83.333"/><rect x="916.667" y="1583.33" width="83.333" height="83.333"/><rect x="1083.33" y="1583.33" width="83.333" height="83.333"/><rect x="750" y="1583.33" width="83.333" height="83.333" style="fill-opacity:0.76;"/><rect x="833.333" y="1500" width="83.333" height="83.333"/><rect x="1000" y="1500" width="83.333" height="83.333"/><rect x="916.667" y="1500" width="83.333" height="83.333"/><rect x="1083.33" y="1500" width="83.333" height="83.333"/><rect x="833.333" y="1416.67" width="83.333" height="83.333" style="fill-opacity:0.55;"/><rect x="916.667" y="1333.33" width="83.333" height="83.333" style="fill-opacity:0.32;"/><rect x="750" y="1500" width="83.333" height="83.333" style="fill-opacity:0.32;"/><rect x="1000" y="1416.67" width="83.333" height="83.333"/><rect x="916.667" y="1416.67" width="83.333" height="83.333"/><rect x="1083.33" y="1416.67" width="83.333" height="83.333"/><rect x="1000" y="1333.33" width="83.333" height="83.333" style="fill-opacity:0.76;"/><rect x="1083.33" y="1333.33" width="83.333" height="83.333" style="fill-opacity:0.96;"/></g><rect x="666.667" y="1250" width="500" height="500" style="fill:none;stroke:#808080;stroke-width:4.17px;"/></g><g id="_3l" serif:id="3l"><path id="_3-circle" serif:id="3 circle" d="M583.333,1333.33c-230.118,0 -416.666,186.548 -416.666,416.667l416.666,-0l0,-416.667Z" style="fill:#e37272;fill-opacity:0.5;"/><g id="_3-grid" serif:id="3 grid"><g><path d="M83.333,1250l0,500" style="fill:none;stroke:#808080;stroke-width:4.17px;stroke-linecap:round;stroke-miterlimit:1.5;"/><path d="M166.667,1250l-0,500" style="fill:none;stroke:#808080;stroke-width:4.17px;stroke-linecap:round;stroke-miterlimit:1.5;"/><path d="M250,1250l0,500" style="fill:none;stroke:#808080;stroke-width:4.17px;stroke-linecap:round;stroke-miterlimit:1.5;"/><path d="M333.333,1250l0,500" style="fill:none;stroke:#808080;stroke-width:4.17px;stroke-linecap:round;stroke-miterlimit:1.5;"/><path d="M416.667,1250l-0,500" style="fill:none;stroke:#808080;stroke-width:4.17px;stroke-linecap:round;stroke-miterlimit:1.5;"/><path d="M500,1250l0,500" style="fill:none;stroke:#808080;stroke-width:4.17px;stroke-linecap:round;stroke-miterlimit:1.5;"/><path d="M583.333,1250l0,500" style="fill:none;stroke:#808080;stroke-width:4.17px;stroke-linecap:round;stroke-miterlimit:1.5;"/></g><g><path d="M583.333,1250l-500,0" style="fill:none;stroke:#808080;stroke-width:4.17px;stroke-linecap:round;stroke-miterlimit:1.5;"/><path d="M583.333,1333.33l-500,0" style="fill:none;stroke:#808080;stroke-width:4.17px;stroke-linecap:round;stroke-miterlimit:1.5;"/><path d="M583.333,1416.67l-500,-0" style="fill:none;stroke:#808080;stroke-width:4.17px;stroke-linecap:round;stroke-miterlimit:1.5;"/><path d="M583.333,1500l-500,0" style="fill:none;stroke:#808080;stroke-width:4.17px;stroke-linecap:round;stroke-miterlimit:1.5;"/><path d="M583.333,1583.33l-500,0" style="fill:none;stroke:#808080;stroke-width:4.17px;stroke-linecap:round;stroke-miterlimit:1.5;"/><path d="M583.333,1666.67l-500,-0" style="fill:none;stroke:#808080;stroke-width:4.17px;stroke-linecap:round;stroke-miterlimit:1.5;"/><path d="M583.333,1750l-500,0" style="fill:none;stroke:#808080;stroke-width:4.17px;stroke-linecap:round;stroke-miterlimit:1.5;"/></g></g></g><g id="_2r" serif:id="2r"><g id="_2-pixels" serif:id="2 pixels"><rect x="750" y="1083.33" width="83.333" height="83.333"/><rect x="916.667" y="1083.33" width="83.333" height="83.333"/><rect x="1083.33" y="1083.33" width="83.333" height="83.333"/><rect x="833.333" y="1000" width="83.333" height="83.333"/><rect x="1000" y="1000" width="83.333" height="83.333"/><rect x="833.333" y="1083.33" width="83.333" height="83.333"/><rect x="1000" y="1083.33" width="83.333" height="83.333"/><rect x="916.667" y="1000" width="83.333" height="83.333"/><rect x="1083.33" y="1000" width="83.333" height="83.333"/><rect x="750" y="1000" width="83.333" height="83.333"/><rect x="833.333" y="916.667" width="83.333" height="83.333"/><rect x="1000" y="916.667" width="83.333" height="83.333"/><rect x="916.667" y="916.667" width="83.333" height="83.333"/><rect x="1083.33" y="916.667" width="83.333" height="83.333"/><rect x="833.333" y="833.333" width="83.333" height="83.333"/><rect x="1000" y="833.333" width="83.333" height="83.333"/><rect x="916.667" y="833.333" width="83.333" height="83.333"/><rect x="1083.33" y="833.333" width="83.333" height="83.333"/><rect x="1000" y="750" width="83.333" height="83.333"/><rect x="1083.33" y="750" width="83.333" height="83.333"/></g><rect x="666.667" y="666.667" width="500" height="500" style="fill:none;stroke:#808080;stroke-width:4.17px;"/></g><g id="_2l" serif:id="2l"><g id="_2-pixels1" serif:id="2 pixels"><rect x="166.667" y="1083.33" width="83.333" height="83.333" style="fill:#fff;fill-opacity:0.67;"/><rect x="333.333" y="1083.33" width="83.333" height="83.333" style="fill:#fff;fill-opacity:0.67;"/><rect x="500" y="1083.33" width="83.333" height="83.333" style="fill:#fff;fill-opacity:0.67;"/><rect x="250" y="1000" width="83.333" height="83.333" style="fill:#fff;fill-opacity:0.67;"/><rect x="416.667" y="1000" width="83.333" height="83.333" style="fill:#fff;fill-opacity:0.67;"/><rect x="250" y="1083.33" width="83.333" height="83.333" style="fill:#fff;fill-opacity:0.67;"/><rect x="416.667" y="1083.33" width="83.333" height="83.333" style="fill:#fff;fill-opacity:0.67;"/><rect x="333.333" y="1000" width="83.333" height="83.333" style="fill:#fff;fill-opacity:0.67;"/><rect x="500" y="1000" width="83.333" height="83.333" style="fill:#fff;fill-opacity:0.67;"/><rect x="166.667" y="1000" width="83.333" height="83.333" style="fill:#fff;fill-opacity:0.67;"/><rect x="250" y="916.667" width="83.333" height="83.333" style="fill:#fff;fill-opacity:0.67;"/><rect x="416.667" y="916.667" width="83.333" height="83.333" style="fill:#fff;fill-opacity:0.67;"/><rect x="333.333" y="916.667" width="83.333" height="83.333" style="fill:#fff;fill-opacity:0.67;"/><rect x="500" y="916.667" width="83.333" height="83.333" style="fill:#fff;fill-opacity:0.67;"/><rect x="250" y="833.333" width="83.333" height="83.333" style="fill:#fff;fill-opacity:0.67;"/><rect x="416.667" y="833.333" width="83.333" height="83.333" style="fill:#fff;fill-opacity:0.67;"/><rect x="333.333" y="833.333" width="83.333" height="83.333" style="fill:#fff;fill-opacity:0.67;"/><rect x="500" y="833.333" width="83.333" height="83.333" style="fill:#fff;fill-opacity:0.67;"/><rect x="416.667" y="750" width="83.333" height="83.333" style="fill:#fff;fill-opacity:0.67;"/><rect x="500" y="750" width="83.333" height="83.333" style="fill:#fff;fill-opacity:0.67;"/></g><path id="_2-circle" serif:id="2 circle" d="M583.333,750c-230.118,-0 -416.666,186.548 -416.666,416.667l416.666,-0l0,-416.667Z" style="fill:#e37272;fill-opacity:0.5;"/><g id="_2-dots" serif:id="2 dots"><circle cx="125" cy="1125" r="4.167" style="fill:#808080;"/><circle cx="125" cy="1041.67" r="4.167" style="fill:#808080;"/><circle cx="125" cy="958.333" r="4.167" style="fill:#808080;"/><circle cx="125" cy="875" r="4.167" style="fill:#808080;"/><circle cx="125" cy="791.667" r="4.167" style="fill:#808080;"/><circle cx="125" cy="708.333" r="4.167" style="fill:#808080;"/><circle cx="208.333" cy="1125" r="4.167" style="fill:#808080;"/><circle cx="208.333" cy="1041.67" r="4.167" style="fill:#808080;"/><circle cx="208.333" cy="958.333" r="4.167" style="fill:#808080;"/><circle cx="208.333" cy="875" r="4.167" style="fill:#808080;"/><circle cx="208.333" cy="791.667" r="4.167" style="fill:#808080;"/><circle cx="208.333" cy="708.333" r="4.167" style="fill:#808080;"/><circle cx="291.667" cy="1125" r="4.167" style="fill:#808080;"/><circle cx="291.667" cy="1041.67" r="4.167" style="fill:#808080;"/><circle cx="291.667" cy="958.333" r="4.167" style="fill:#808080;"/><circle cx="291.667" cy="875" r="4.167" style="fill:#808080;"/><circle cx="291.667" cy="791.667" r="4.167" style="fill:#808080;"/><circle cx="291.667" cy="708.333" r="4.167" style="fill:#808080;"/><circle cx="375" cy="1125" r="4.167" style="fill:#808080;"/><circle cx="375" cy="1041.67" r="4.167" style="fill:#808080;"/><circle cx="375" cy="958.333" r="4.167" style="fill:#808080;"/><circle cx="375" cy="875" r="4.167" style="fill:#808080;"/><circle cx="375" cy="791.667" r="4.167" style="fill:#808080;"/><circle cx="375" cy="708.333" r="4.167" style="fill:#808080;"/><circle cx="458.333" cy="1125" r="4.167" style="fill:#808080;"/><circle cx="458.333" cy="1041.67" r="4.167" style="fill:#808080;"/><circle cx="458.333" cy="958.333" r="4.167" style="fill:#808080;"/><circle cx="458.333" cy="875" r="4.167" style="fill:#808080;"/><circle cx="458.333" cy="791.667" r="4.167" style="fill:#808080;"/><circle cx="458.333" cy="708.333" r="4.167" style="fill:#808080;"/><circle cx="541.667" cy="1125" r="4.167" style="fill:#808080;"/><circle cx="541.667" cy="1041.67" r="4.167" style="fill:#808080;"/><circle cx="541.667" cy="958.333" r="4.167" style="fill:#808080;"/><circle cx="541.667" cy="875" r="4.167" style="fill:#808080;"/><circle cx="541.667" cy="791.667" r="4.167" style="fill:#808080;"/><circle cx="541.667" cy="708.333" r="4.167" style="fill:#808080;"/></g><rect x="83.333" y="666.667" width="500" height="500" style="fill:none;stroke:#808080;stroke-width:4.17px;"/></g><g id="_1" serif:id="1"><path id="_1-shape" serif:id="1 shape" d="M583.333,166.667c-230.118,-0 -416.666,186.548 -416.666,416.666l416.666,0l0,-416.666Z"/><g id="_1-grid" serif:id="1 grid"><g><path d="M83.333,83.333l0,500" style="fill:none;stroke:#808080;stroke-width:4.17px;stroke-linecap:round;stroke-miterlimit:1.5;"/><path d="M166.667,83.333l-0,500" style="fill:none;stroke:#808080;stroke-width:4.17px;stroke-linecap:round;stroke-miterlimit:1.5;"/><path d="M250,83.333l0,500" style="fill:none;stroke:#808080;stroke-width:4.17px;stroke-linecap:round;stroke-miterlimit:1.5;"/><path d="M333.333,83.333l0,500" style="fill:none;stroke:#808080;stroke-width:4.17px;stroke-linecap:round;stroke-miterlimit:1.5;"/><path d="M416.667,83.333l-0,500" style="fill:none;stroke:#808080;stroke-width:4.17px;stroke-linecap:round;stroke-miterlimit:1.5;"/><path d="M500,83.333l0,500" style="fill:none;stroke:#808080;stroke-width:4.17px;stroke-linecap:round;stroke-miterlimit:1.5;"/><path d="M583.333,83.333l0,500" style="fill:none;stroke:#808080;stroke-width:4.17px;stroke-linecap:round;stroke-miterlimit:1.5;"/></g><g><path d="M583.333,83.333l-500,0" style="fill:none;stroke:#808080;stroke-width:4.17px;stroke-linecap:round;stroke-miterlimit:1.5;"/><path d="M583.333,166.667l-500,-0" style="fill:none;stroke:#808080;stroke-width:4.17px;stroke-linecap:round;stroke-miterlimit:1.5;"/><path d="M583.333,250l-500,-0" style="fill:none;stroke:#808080;stroke-width:4.17px;stroke-linecap:round;stroke-miterlimit:1.5;"/><path d="M583.333,333.333l-500,0" style="fill:none;stroke:#808080;stroke-width:4.17px;stroke-linecap:round;stroke-miterlimit:1.5;"/><path d="M583.333,416.667l-500,-0" style="fill:none;stroke:#808080;stroke-width:4.17px;stroke-linecap:round;stroke-miterlimit:1.5;"/><path d="M583.333,500l-500,0" style="fill:none;stroke:#808080;stroke-width:4.17px;stroke-linecap:round;stroke-miterlimit:1.5;"/><path d="M583.333,583.333l-500,0" style="fill:none;stroke:#808080;stroke-width:4.17px;stroke-linecap:round;stroke-miterlimit:1.5;"/></g></g></g></svg>