<?xml version="1.0" encoding="UTF-8" standalone="no"?><!DOCTYPE svg PUBLIC "-//W3C//DTD SVG 1.1//EN" "http://www.w3.org/Graphics/SVG/1.1/DTD/svg11.dtd"><svg width="100%" height="100%" viewBox="0 0 864 1080" version="1.1" xmlns="http://www.w3.org/2000/svg" xmlns:xlink="http://www.w3.org/1999/xlink" xml:space="preserve" xmlns:serif="http://www.serif.com/" style="fill-rule:evenodd;clip-rule:evenodd;stroke-linecap:round;stroke-linejoin:round;stroke-miterlimit:1.5;"><g><path d="M377.029,939.408l25.324,-179.87l-40.031,-258.388l63.169,-62.337l61.506,51.532l-9.319,265.297l-54.545,221.428" style="fill:none;stroke:#3d83e9;stroke-width:4.17px;"/><path d="M434.116,102.93l-6.298,114.39l-2.327,221.493" style="fill:none;stroke:#3d83e9;stroke-width:4.17px;"/><path d="M277.679,523.176l-14.13,-157.09l48.623,-155.427l115.646,6.661l114.036,-21.789l36.156,168.893l22.441,138.389" style="fill:none;stroke:#3d83e9;stroke-width:4.17px;"/><circle cx="434.116" cy="102.93" r="21.788" style="fill:none;stroke:#3d83e9;stroke-width:4.17px;"/><circle cx="427.818" cy="217.32" r="21.788" style="fill:none;stroke:#3d83e9;stroke-width:4.17px;"/><circle cx="541.854" cy="194.866" r="21.788" style="fill:none;stroke:#3d83e9;stroke-width:4.17px;"/><circle cx="578.01" cy="364.424" r="21.788" style="fill:none;stroke:#3d83e9;stroke-width:4.17px;"/><circle cx="600.451" cy="502.813" r="21.788" style="fill:none;stroke:#3d83e9;stroke-width:4.17px;"/><circle cx="486.997" cy="490.345" r="21.788" style="fill:none;stroke:#3d83e9;stroke-width:4.17px;"/><circle cx="425.491" cy="438.813" r="21.788" style="fill:none;stroke:#3d83e9;stroke-width:4.17px;"/><circle cx="362.322" cy="501.15" r="21.788" style="fill:none;stroke:#3d83e9;stroke-width:4.17px;"/><circle cx="277.679" cy="523.176" r="21.788" style="fill:none;stroke:#3d83e9;stroke-width:4.17px;"/><circle cx="402.353" cy="759.538" r="21.788" style="fill:none;stroke:#3d83e9;stroke-width:4.17px;"/><circle cx="477.678" cy="755.642" r="21.788" style="fill:none;stroke:#3d83e9;stroke-width:4.17px;"/><circle cx="423.133" cy="977.07" r="21.788" style="fill:none;stroke:#3d83e9;stroke-width:4.17px;"/><circle cx="377.029" cy="939.408" r="21.788" style="fill:none;stroke:#3d83e9;stroke-width:4.17px;"/><circle cx="263.549" cy="366.086" r="21.788" style="fill:none;stroke:#3d83e9;stroke-width:4.17px;"/><circle cx="312.172" cy="210.659" r="21.788" style="fill:none;stroke:#3d83e9;stroke-width:4.17px;"/></g></svg>