<?xml version="1.0" encoding="UTF-8" standalone="no"?><!DOCTYPE svg PUBLIC "-//W3C//DTD SVG 1.1//EN" "http://www.w3.org/Graphics/SVG/1.1/DTD/svg11.dtd"><svg width="100%" height="100%" viewBox="0 0 1702 1702" version="1.1" xmlns="http://www.w3.org/2000/svg" xmlns:xlink="http://www.w3.org/1999/xlink" xml:space="preserve" xmlns:serif="http://www.serif.com/" style="fill-rule:evenodd;clip-rule:evenodd;"><path d="M17.18,1683.85l0,-1666.67" style="fill:none;fill-rule:nonzero;stroke:#000;stroke-opacity:0.1;stroke-width:8.33px;"/><path d="M100.513,1683.85l0,-1666.67" style="fill:none;fill-rule:nonzero;stroke:#000;stroke-opacity:0.1;stroke-width:8.33px;"/><path d="M183.846,1683.85l0,-1666.67" style="fill:none;fill-rule:nonzero;stroke:#000;stroke-opacity:0.1;stroke-width:8.33px;"/><path d="M267.18,1683.85l0,-1666.67" style="fill:none;fill-rule:nonzero;stroke:#000;stroke-opacity:0.1;stroke-width:8.33px;"/><path d="M350.513,1683.85l0,-1666.67" style="fill:none;fill-rule:nonzero;stroke:#000;stroke-opacity:0.1;stroke-width:8.33px;"/><path d="M433.846,1683.85l0,-1666.67" style="fill:none;fill-rule:nonzero;stroke:#000;stroke-opacity:0.1;stroke-width:8.33px;"/><path d="M517.18,1683.85l0,-1666.67" style="fill:none;fill-rule:nonzero;stroke:#000;stroke-opacity:0.1;stroke-width:8.33px;"/><path d="M600.513,1683.85l0,-1666.67" style="fill:none;fill-rule:nonzero;stroke:#000;stroke-opacity:0.1;stroke-width:8.33px;"/><path d="M683.846,1683.85l0,-1666.67" style="fill:none;fill-rule:nonzero;stroke:#000;stroke-opacity:0.1;stroke-width:8.33px;"/><path d="M767.18,1683.85l0,-1666.67" style="fill:none;fill-rule:nonzero;stroke:#000;stroke-opacity:0.1;stroke-width:8.33px;"/><path d="M850.513,1683.85l0,-1666.67" style="fill:none;fill-rule:nonzero;stroke:#000;stroke-opacity:0.1;stroke-width:8.33px;"/><path d="M933.846,1683.85l0,-1666.67" style="fill:none;fill-rule:nonzero;stroke:#000;stroke-opacity:0.1;stroke-width:8.33px;"/><path d="M1017.18,1683.85l0,-1666.67" style="fill:none;fill-rule:nonzero;stroke:#000;stroke-opacity:0.1;stroke-width:8.33px;"/><path d="M1100.51,1683.85l0,-1666.67" style="fill:none;fill-rule:nonzero;stroke:#000;stroke-opacity:0.1;stroke-width:8.33px;"/><path d="M1183.85,1683.85l0,-1666.67" style="fill:none;fill-rule:nonzero;stroke:#000;stroke-opacity:0.1;stroke-width:8.33px;"/><path d="M1267.18,1683.85l0,-1666.67" style="fill:none;fill-rule:nonzero;stroke:#000;stroke-opacity:0.1;stroke-width:8.33px;"/><path d="M1350.51,1683.85l0,-1666.67" style="fill:none;fill-rule:nonzero;stroke:#000;stroke-opacity:0.1;stroke-width:8.33px;"/><path d="M1433.85,1683.85l0,-1666.67" style="fill:none;fill-rule:nonzero;stroke:#000;stroke-opacity:0.1;stroke-width:8.33px;"/><path d="M1517.18,1683.85l0,-1666.67" style="fill:none;fill-rule:nonzero;stroke:#000;stroke-opacity:0.1;stroke-width:8.33px;"/><path d="M1600.51,1683.85l0,-1666.67" style="fill:none;fill-rule:nonzero;stroke:#000;stroke-opacity:0.1;stroke-width:8.33px;"/><path d="M1683.85,1683.85l0,-1666.67" style="fill:none;fill-rule:nonzero;stroke:#000;stroke-opacity:0.1;stroke-width:8.33px;"/><path d="M17.18,1683.85l1666.67,0" style="fill:none;fill-rule:nonzero;stroke:#000;stroke-opacity:0.1;stroke-width:8.33px;"/><path d="M17.18,1600.51l1666.67,0" style="fill:none;fill-rule:nonzero;stroke:#000;stroke-opacity:0.1;stroke-width:8.33px;"/><path d="M17.18,1517.18l1666.67,0" style="fill:none;fill-rule:nonzero;stroke:#000;stroke-opacity:0.1;stroke-width:8.33px;"/><path d="M17.18,1433.85l1666.67,0" style="fill:none;fill-rule:nonzero;stroke:#000;stroke-opacity:0.1;stroke-width:8.33px;"/><path d="M17.18,1350.51l1666.67,0" style="fill:none;fill-rule:nonzero;stroke:#000;stroke-opacity:0.1;stroke-width:8.33px;"/><path d="M17.18,1267.18l1666.67,0" style="fill:none;fill-rule:nonzero;stroke:#000;stroke-opacity:0.1;stroke-width:8.33px;"/><path d="M17.18,1183.85l1666.67,0" style="fill:none;fill-rule:nonzero;stroke:#000;stroke-opacity:0.1;stroke-width:8.33px;"/><path d="M17.18,1100.51l1666.67,0" style="fill:none;fill-rule:nonzero;stroke:#000;stroke-opacity:0.1;stroke-width:8.33px;"/><path d="M17.18,1017.18l1666.67,0" style="fill:none;fill-rule:nonzero;stroke:#000;stroke-opacity:0.1;stroke-width:8.33px;"/><path d="M364.756,989.014l0,-1.465c2.04,-0.087 3.739,-0.852 5.095,-2.295c1.356,-1.443 2.268,-3.054 2.734,-4.834c0.467,-1.779 0.722,-3.7 0.765,-5.762l1.66,0l0,12.273l9.538,0l0,2.083l-9.538,0l0,18.545c0,4.802 1.498,7.204 4.493,7.204c1.28,0 2.343,-0.658 3.19,-1.972c0.846,-1.315 1.269,-3.146 1.269,-5.493l0,-3.683l1.66,0l0,3.803c0,2.406 -0.553,4.508 -1.66,6.307c-1.107,1.798 -2.756,2.698 -4.948,2.698c-0.803,0 -1.6,-0.103 -2.392,-0.31c-0.792,-0.206 -1.704,-0.575 -2.735,-1.106c-1.03,-0.532 -1.866,-1.454 -2.506,-2.767c-0.64,-1.313 -0.96,-2.925 -0.96,-4.834l0,-18.392l-5.665,0Z" style="fill-rule:nonzero;"/><path d="M393.142,1005.58c0.043,-0.52 0.488,-0.779 1.335,-0.779l40.852,0c1.281,0 1.932,0.238 1.954,0.716c0,0.521 -0.608,0.77 -1.823,0.748l-40.528,0c-1.193,0.022 -1.79,-0.206 -1.79,-0.685Zm0,-13.019c0,-0.521 0.466,-0.77 1.4,-0.749l40.722,0c1.324,0 1.997,0.25 2.019,0.749c0,0.477 -0.565,0.716 -1.693,0.716l-41.113,0c-0.89,0 -1.335,-0.239 -1.335,-0.716Z" style="fill-rule:nonzero;"/><path d="M443.793,994.352c0,-6.532 0.825,-11.577 2.474,-15.136c2.3,-5.295 6.163,-7.943 11.588,-7.943c1.151,0 2.328,0.157 3.532,0.472c1.205,0.315 2.572,1.069 4.102,2.262c1.53,1.194 2.761,2.767 3.695,4.72c1.779,3.776 2.669,8.985 2.669,15.625c0,6.489 -0.825,11.502 -2.474,15.039c-2.409,5.165 -6.272,7.748 -11.589,7.748c-1.996,0 -4.009,-0.51 -6.038,-1.53c-2.029,-1.02 -3.684,-2.756 -4.964,-5.208c-1.997,-3.668 -2.995,-9.017 -2.995,-16.049Zm5.534,-0.813c0,6.705 0.239,11.393 0.716,14.062c0.542,2.886 1.557,4.953 3.044,6.201c1.486,1.248 3.054,1.872 4.703,1.872c1.78,0 3.413,-0.667 4.899,-2.002c1.487,-1.335 2.458,-3.445 2.914,-6.331c0.499,-2.843 0.738,-7.444 0.716,-13.802c0,-6.185 -0.217,-10.515 -0.651,-12.989c-0.586,-2.886 -1.655,-4.91 -3.206,-6.071c-1.552,-1.161 -3.109,-1.741 -4.672,-1.741c-0.586,0 -1.188,0.087 -1.806,0.26c-0.619,0.174 -1.373,0.51 -2.263,1.009c-0.889,0.499 -1.676,1.368 -2.36,2.605c-0.683,1.236 -1.188,2.788 -1.513,4.654c-0.348,2.409 -0.521,6.5 -0.521,12.273Z" style="fill-rule:nonzero;"/><path d="M481.176,1014.59c-0.66,-0.723 -0.99,-1.555 -0.99,-2.497c0,-0.942 0.33,-1.758 0.99,-2.448c0.661,-0.69 1.491,-1.035 2.492,-1.035c0.959,0 1.763,0.323 2.412,0.969c0.65,0.647 0.975,1.49 0.975,2.53c0,1.041 -0.346,1.895 -1.039,2.563c-0.692,0.668 -1.475,1.002 -2.348,1.002c-1.001,0 -1.831,-0.361 -2.492,-1.084Z" style="fill-rule:nonzero;"/><path d="M495.844,1006.66c0,-1.336 0.315,-2.321 0.947,-2.956c0.631,-0.635 1.352,-0.952 2.164,-0.952c1.033,0 1.917,0.334 2.653,1.001c0.736,0.668 1.104,1.582 1.104,2.742c0,1.247 -0.434,2.22 -1.301,2.92c-0.868,0.7 -1.916,0.964 -3.146,0.791c1.07,1.768 2.593,3.051 4.57,3.849c1.977,0.798 3.883,1.197 5.718,1.197c1.914,0 3.649,-0.826 5.205,-2.479c1.555,-1.652 2.333,-4.5 2.333,-8.544c0,-3.412 -0.669,-6.101 -2.007,-8.067c-1.338,-1.965 -3.323,-2.948 -5.955,-2.948l-2.939,0c-0.757,0 -1.245,-0.031 -1.465,-0.094c-0.219,-0.063 -0.329,-0.271 -0.329,-0.626c0,-0.418 0.402,-0.668 1.206,-0.752c0.675,0 1.546,-0.063 2.612,-0.188c2.59,-0.088 4.571,-1.263 5.942,-3.524c1.241,-2.108 1.861,-4.666 1.861,-7.675c0,-2.688 -0.648,-4.598 -1.943,-5.727c-1.295,-1.129 -2.78,-1.694 -4.456,-1.694c-1.572,0 -3.22,0.315 -4.945,0.946c-1.725,0.63 -3.056,1.65 -3.995,3.058c2.782,0 4.174,1.139 4.174,3.417c0,0.996 -0.313,1.82 -0.937,2.473c-0.625,0.652 -1.452,0.979 -2.481,0.979c-0.986,0 -1.808,-0.316 -2.465,-0.946c-0.657,-0.63 -0.986,-1.488 -0.986,-2.572c0,-2.52 1.142,-4.653 3.425,-6.398c2.283,-1.745 5.107,-2.617 8.471,-2.617c3.242,0 6.063,0.862 8.463,2.586c2.4,1.724 3.599,3.911 3.599,6.562c0,2.649 -0.847,5.057 -2.543,7.224c-1.695,2.167 -3.889,3.7 -6.58,4.597c3.388,0.668 6.092,2.138 8.112,4.41c2.02,2.273 3.03,4.798 3.03,7.576c0,3.487 -1.369,6.51 -4.107,9.07c-2.738,2.561 -6.106,3.841 -10.104,3.841c-3.533,0 -6.567,-1.001 -9.102,-3.004c-2.536,-2.002 -3.803,-4.494 -3.803,-7.476Z" style="fill-rule:nonzero;"/><path d="M17.18,933.846l1666.67,0" style="fill:none;fill-rule:nonzero;stroke:#000;stroke-opacity:0.1;stroke-width:8.33px;"/><path d="M17.18,850.513l1666.67,0" style="fill:none;fill-rule:nonzero;stroke:#000;stroke-opacity:0.1;stroke-width:8.33px;"/><path d="M17.18,767.18l1666.67,0" style="fill:none;fill-rule:nonzero;stroke:#000;stroke-opacity:0.1;stroke-width:8.33px;"/><path d="M17.18,683.846l1666.67,0" style="fill:none;fill-rule:nonzero;stroke:#000;stroke-opacity:0.1;stroke-width:8.33px;"/><path d="M17.18,600.513l1666.67,0" style="fill:none;fill-rule:nonzero;stroke:#000;stroke-opacity:0.1;stroke-width:8.33px;"/><path d="M17.18,517.18l1666.67,0" style="fill:none;fill-rule:nonzero;stroke:#000;stroke-opacity:0.1;stroke-width:8.33px;"/><path d="M17.18,433.846l1666.67,0" style="fill:none;fill-rule:nonzero;stroke:#000;stroke-opacity:0.1;stroke-width:8.33px;"/><path d="M17.18,350.513l1666.67,0" style="fill:none;fill-rule:nonzero;stroke:#000;stroke-opacity:0.1;stroke-width:8.33px;"/><path d="M17.18,267.18l1666.67,0" style="fill:none;fill-rule:nonzero;stroke:#000;stroke-opacity:0.1;stroke-width:8.33px;"/><path d="M17.18,183.846l1666.67,0" style="fill:none;fill-rule:nonzero;stroke:#000;stroke-opacity:0.1;stroke-width:8.33px;"/><path d="M17.18,100.513l1666.67,0" style="fill:none;fill-rule:nonzero;stroke:#000;stroke-opacity:0.1;stroke-width:8.33px;"/><path d="M17.18,17.18l1666.67,0" style="fill:none;fill-rule:nonzero;stroke:#000;stroke-opacity:0.1;stroke-width:8.33px;"/><path d="M46.555,827.18c-1.459,8.75 -17.5,21.875 -21.875,23.333c4.375,1.458 20.416,14.583 21.875,23.333" style="fill:none;fill-rule:nonzero;stroke:#000;stroke-width:8.33px;stroke-linecap:round;stroke-linejoin:round;"/><path d="M850.513,850.513l-828.958,0" style="fill:none;fill-rule:nonzero;stroke:#000;stroke-width:8.33px;"/><path d="M1660.72,873.846c1.459,-8.75 17.5,-21.875 21.875,-23.333c-4.375,-1.458 -20.416,-14.583 -21.875,-23.333" style="fill:none;fill-rule:nonzero;stroke:#000;stroke-width:8.33px;stroke-linecap:round;stroke-linejoin:round;"/><path d="M850.513,850.513l828.958,0" style="fill:none;fill-rule:nonzero;stroke:#000;stroke-width:8.33px;"/><path d="M830.305,1657.6c8.75,1.459 21.875,17.5 23.333,21.875c1.458,-4.375 14.583,-20.416 23.333,-21.875" style="fill:none;fill-rule:nonzero;stroke:#000;stroke-width:8.33px;stroke-linecap:round;stroke-linejoin:round;"/><path d="M850.513,850.513l0,828.958" style="fill:none;fill-rule:nonzero;stroke:#000;stroke-width:8.33px;"/><path d="M876.971,43.43c-8.75,-1.459 -21.875,-17.5 -23.333,-21.875c-1.458,4.375 -14.583,20.416 -23.333,21.875" style="fill:none;fill-rule:nonzero;stroke:#000;stroke-width:8.33px;stroke-linecap:round;stroke-linejoin:round;"/><path d="M850.513,850.513l0,-828.958" style="fill:none;fill-rule:nonzero;stroke:#000;stroke-width:8.33px;"/><path d="M933.846,871.346l0,-41.666" style="fill:none;fill-rule:nonzero;stroke:#000;stroke-width:4.17px;"/><path d="M1017.18,871.346l0,-41.666" style="fill:none;fill-rule:nonzero;stroke:#000;stroke-width:4.17px;"/><path d="M1100.51,871.346l0,-41.666" style="fill:none;fill-rule:nonzero;stroke:#000;stroke-width:4.17px;"/><path d="M1183.85,871.346l0,-41.666" style="fill:none;fill-rule:nonzero;stroke:#000;stroke-width:4.17px;"/><path d="M1267.18,871.346l0,-41.666" style="fill:none;fill-rule:nonzero;stroke:#000;stroke-width:4.17px;"/><path d="M1350.51,871.346l0,-41.666" style="fill:none;fill-rule:nonzero;stroke:#000;stroke-width:4.17px;"/><path d="M1433.85,871.346l0,-41.666" style="fill:none;fill-rule:nonzero;stroke:#000;stroke-width:4.17px;"/><path d="M1517.18,871.346l0,-41.666" style="fill:none;fill-rule:nonzero;stroke:#000;stroke-width:4.17px;"/><path d="M1600.51,871.346l0,-41.666" style="fill:none;fill-rule:nonzero;stroke:#000;stroke-width:4.17px;"/><path d="M767.18,871.346l0,-41.666" style="fill:none;fill-rule:nonzero;stroke:#000;stroke-width:4.17px;"/><path d="M683.846,871.346l0,-41.666" style="fill:none;fill-rule:nonzero;stroke:#000;stroke-width:4.17px;"/><path d="M600.513,871.346l0,-41.666" style="fill:none;fill-rule:nonzero;stroke:#000;stroke-width:4.17px;"/><path d="M517.18,871.346l0,-41.666" style="fill:none;fill-rule:nonzero;stroke:#000;stroke-width:4.17px;"/><path d="M433.846,871.346l0,-41.666" style="fill:none;fill-rule:nonzero;stroke:#000;stroke-width:4.17px;"/><path d="M350.513,871.346l0,-41.666" style="fill:none;fill-rule:nonzero;stroke:#000;stroke-width:4.17px;"/><path d="M267.18,871.346l0,-41.666" style="fill:none;fill-rule:nonzero;stroke:#000;stroke-width:4.17px;"/><path d="M183.846,871.346l0,-41.666" style="fill:none;fill-rule:nonzero;stroke:#000;stroke-width:4.17px;"/><path d="M100.513,871.346l0,-41.666" style="fill:none;fill-rule:nonzero;stroke:#000;stroke-width:4.17px;"/><path d="M829.68,767.18l41.666,0" style="fill:none;fill-rule:nonzero;stroke:#000;stroke-width:4.17px;"/><path d="M829.68,683.846l41.666,0" style="fill:none;fill-rule:nonzero;stroke:#000;stroke-width:4.17px;"/><path d="M829.68,600.513l41.666,0" style="fill:none;fill-rule:nonzero;stroke:#000;stroke-width:4.17px;"/><path d="M829.68,517.18l41.666,0" style="fill:none;fill-rule:nonzero;stroke:#000;stroke-width:4.17px;"/><path d="M829.68,433.846l41.666,0" style="fill:none;fill-rule:nonzero;stroke:#000;stroke-width:4.17px;"/><path d="M829.68,350.513l41.666,0" style="fill:none;fill-rule:nonzero;stroke:#000;stroke-width:4.17px;"/><path d="M829.68,267.18l41.666,0" style="fill:none;fill-rule:nonzero;stroke:#000;stroke-width:4.17px;"/><path d="M829.68,183.846l41.666,0" style="fill:none;fill-rule:nonzero;stroke:#000;stroke-width:4.17px;"/><path d="M829.68,100.513l41.666,0" style="fill:none;fill-rule:nonzero;stroke:#000;stroke-width:4.17px;"/><path d="M829.68,933.846l41.666,0" style="fill:none;fill-rule:nonzero;stroke:#000;stroke-width:4.17px;"/><path d="M829.68,1017.18l41.666,0" style="fill:none;fill-rule:nonzero;stroke:#000;stroke-width:4.17px;"/><path d="M829.68,1100.51l41.666,0" style="fill:none;fill-rule:nonzero;stroke:#000;stroke-width:4.17px;"/><path d="M829.68,1183.85l41.666,0" style="fill:none;fill-rule:nonzero;stroke:#000;stroke-width:4.17px;"/><path d="M829.68,1267.18l41.666,0" style="fill:none;fill-rule:nonzero;stroke:#000;stroke-width:4.17px;"/><path d="M829.68,1350.51l41.666,0" style="fill:none;fill-rule:nonzero;stroke:#000;stroke-width:4.17px;"/><path d="M829.68,1433.85l41.666,0" style="fill:none;fill-rule:nonzero;stroke:#000;stroke-width:4.17px;"/><path d="M829.68,1517.18l41.666,0" style="fill:none;fill-rule:nonzero;stroke:#000;stroke-width:4.17px;"/><path d="M829.68,1600.51l41.666,0" style="fill:none;fill-rule:nonzero;stroke:#000;stroke-width:4.17px;"/><path d="M1250.03,1267.13l-3.125,-1.363l-3.121,-1.366l-3.113,-1.367l-3.1,-1.363l-3.095,-1.37l-3.084,-1.367l-3.079,-1.367l-3.067,-1.371l-3.058,-1.37l-3.05,-1.371l-3.042,-1.375l-3.033,-1.371l-3.025,-1.375l-3.017,-1.379l-3.004,-1.375l-3,-1.379l-2.987,-1.38l-2.979,-1.379l-2.971,-1.383l-2.959,-1.383l-2.95,-1.384l-2.941,-1.387l-2.934,-1.388l-2.925,-1.387l-2.912,-1.392l-2.9,-1.392l-2.896,-1.391l-2.883,-1.396l-2.875,-1.396l-2.863,-1.4l-2.85,-1.4l-2.846,-1.4l-2.829,-1.404l-2.821,-1.404l-2.812,-1.409l-2.8,-1.408l-2.788,-1.408l-2.775,-1.413l-2.766,-1.412l-2.754,-1.417l-2.742,-1.417l-2.733,-1.42l-2.717,-1.421l-2.708,-1.421l-2.692,-1.425l-2.683,-1.429l-2.667,-1.425l-2.658,-1.434l-2.642,-1.429l-2.629,-1.433l-2.613,-1.433l-2.604,-1.438l-2.587,-1.437l-2.575,-1.442l-2.559,-1.438l-2.541,-1.441l-2.53,-1.446l-2.516,-1.442l-2.5,-1.446l-2.484,-1.445l-2.466,-1.45l-2.45,-1.446l-2.438,-1.45l-2.416,-1.45l-2.405,-1.446l-2.383,-1.45l-2.371,-1.45l-2.35,-1.45l-2.333,-1.45l-2.317,-1.446l-2.296,-1.45l-2.279,-1.446l-2.258,-1.446l-2.242,-1.445l-2.225,-1.442l-2.204,-1.442l-2.183,-1.441l-2.167,-1.434l-2.146,-1.437l-2.125,-1.429l-2.104,-1.43l-2.087,-1.425l-2.067,-1.42l-2.046,-1.417l-2.025,-1.413l-2.004,-1.408l-1.983,-1.404l-1.963,-1.396l-1.946,-1.392l-1.921,-1.387l-1.9,-1.379l-1.883,-1.371l-1.858,-1.367l-1.842,-1.354l-1.821,-1.35l-1.796,-1.342l-1.779,-1.329l-1.762,-1.325l-1.738,-1.308l-1.721,-1.304l-1.7,-1.292l-1.679,-1.279l-1.662,-1.267l-1.642,-1.254l-1.625,-1.246l-1.608,-1.229l-1.592,-1.217l-1.571,-1.2l-1.558,-1.187l-1.538,-1.175l-1.525,-1.158l-1.508,-1.142l-1.496,-1.125l-1.483,-1.108l-1.467,-1.088l-1.454,-1.075l-1.446,-1.054l-1.433,-1.038l-1.425,-1.016l-1.413,-1l-1.408,-0.979l-1.396,-0.959l-1.391,-0.937l-1.388,-0.917l-1.383,-0.896l-1.379,-0.875l-1.38,-0.854l-1.375,-0.829l-1.375,-0.808l-1.379,-0.784l-1.379,-0.766l-1.383,-0.738l-1.388,-0.717l-1.396,-0.695l-1.404,-0.671l-1.412,-0.646l-1.421,-0.621l-1.438,-0.6l-1.45,-0.579l-1.462,-0.554l-1.479,-0.529l-1.5,-0.505l-1.517,-0.487l-1.537,-0.458l-1.563,-0.438l-1.587,-0.417l-1.613,-0.395l-1.637,-0.371l-1.671,-0.354l-1.7,-0.33l-1.734,-0.312l-1.762,-0.292l-1.804,-0.271l-1.838,-0.254l-1.879,-0.237l-1.917,-0.217l-1.962,-0.204l-2.004,-0.188l-2.046,-0.17l-2.096,-0.159l-2.146,-0.146l-2.191,-0.137l-2.246,-0.125l-2.296,-0.113l-2.35,-0.108l-2.404,-0.1l-2.459,-0.092l-2.52,-0.091l-2.575,-0.084l-2.638,-0.087l-2.696,-0.083l-2.758,-0.084l-2.821,-0.087l-2.883,-0.096l-2.95,-0.096l-3.013,-0.104l-3.079,-0.117l-3.142,-0.125l-3.212,-0.137l-3.275,-0.154l-3.346,-0.167l-3.408,-0.188l-3.479,-0.204l-3.546,-0.229l-3.613,-0.254l-3.679,-0.275l-3.746,-0.304l-3.812,-0.338l-3.875,-0.362l-3.942,-0.4l-4.004,-0.438l-4.071,-0.471l-4.129,-0.508l-4.196,-0.554l-4.25,-0.596l-4.308,-0.642l-4.367,-0.687l-4.425,-0.738l-4.475,-0.787l-4.529,-0.842l-4.575,-0.896l-4.625,-0.954l-4.675,-1.012l-4.713,-1.071l-4.754,-1.133l-4.796,-1.2l-4.825,-1.263l-4.862,-1.329l-4.892,-1.4l-4.921,-1.467l-4.941,-1.541l-4.963,-1.613l-4.979,-1.687l-4.996,-1.763l-5.004,-1.837l-5.012,-1.917l-5.013,-1.996l-5.012,-2.075l-5.013,-2.154l-5,-2.238l-4.987,-2.32l-4.971,-2.4l-4.95,-2.488l-4.925,-2.567l-4.896,-2.654l-4.867,-2.733l-4.825,-2.821l-4.779,-2.904l-4.737,-2.992l-4.684,-3.071l-4.629,-3.154l-4.571,-3.241l-4.504,-3.321l-4.437,-3.404l-4.359,-3.484l-4.287,-3.566l-4.2,-3.646l-4.113,-3.721l-4.025,-3.8l-3.925,-3.879l-3.829,-3.946l-3.725,-4.025l-3.612,-4.092l-3.505,-4.166l-3.383,-4.23l-3.267,-4.295l-3.137,-4.359l-3.013,-4.421l-2.879,-4.479l-2.746,-4.533l-2.604,-4.592l-2.462,-4.641l-2.317,-4.688l-2.167,-4.733l-2.016,-4.779l-1.859,-4.817l-1.704,-4.858l-1.546,-4.888l-1.379,-4.917l-1.216,-4.95l-1.05,-4.97l-0.884,-4.992l-0.712,-5.008l-0.542,-5.021l-0.367,-5.034l-0.191,-5.037l-0.021,-5.042l0.158,-5.041l0.334,-5.034l0.508,-5.029l0.687,-5.017l0.867,-5l1.038,-4.979l1.216,-4.958l1.392,-4.929l1.567,-4.9l1.737,-4.867l1.913,-4.825l2.079,-4.783l2.25,-4.742l2.416,-4.687l2.584,-4.638l2.746,-4.579l2.904,-4.521l3.058,-4.454l3.217,-4.388l3.366,-4.32l3.517,-4.246l3.658,-4.167l3.8,-4.087l3.938,-4.009l4.071,-3.916l4.2,-3.834l4.325,-3.737l4.441,-3.646l4.563,-3.546l4.667,-3.45l4.779,-3.35l4.875,-3.242l4.975,-3.141l5.062,-3.029l5.146,-2.921l5.229,-2.809l5.3,-2.7l5.371,-2.583l5.433,-2.467l5.492,-2.35l5.542,-2.233l5.583,-2.117l5.629,-1.995l5.659,-1.875l5.687,-1.755l5.704,-1.633l5.725,-1.517l5.734,-1.391l5.733,-1.271l5.733,-1.154l5.725,-1.029l5.709,-0.917l5.691,-0.792l5.663,-0.675l5.629,-0.562l5.592,-0.442l5.55,-0.329l5.5,-0.217l5.445,-0.108l5.384,0.004l5.321,0.113l5.25,0.22l5.175,0.321l5.091,0.425l5.009,0.525l4.916,0.621l4.825,0.717l4.725,0.808l4.621,0.9l4.513,0.983l4.404,1.067l4.287,1.15l4.171,1.229l4.05,1.3l3.921,1.375l3.796,1.442l3.666,1.508l3.53,1.567l3.395,1.629l3.259,1.683l3.116,1.734l2.971,1.783l2.834,1.825l2.683,1.867l2.542,1.904l2.391,1.937l2.242,1.971l2.092,1.992l1.945,2.017l1.796,2.037l1.642,2.054l1.496,2.063l1.346,2.075l1.195,2.075l1.046,2.079l0.9,2.079l0.754,2.071l0.609,2.067l0.462,2.05l0.321,2.037l0.183,2.017l0.042,1.996l-0.092,1.97l-0.229,1.942l-0.362,1.917l-0.488,1.879l-0.616,1.842l-0.742,1.804l-0.863,1.762l-0.983,1.717l-1.096,1.675l-1.208,1.621l-1.317,1.571l-1.421,1.52l-1.525,1.463l-1.62,1.404l-1.721,1.346l-1.804,1.283l-1.896,1.225l-1.979,1.159l-2.055,1.091l-2.133,1.025l-2.204,0.959l-2.271,0.887l-2.333,0.817l-2.392,0.746l-2.45,0.675l-2.5,0.6l-2.546,0.529l-2.587,0.454l-2.629,0.379l-2.663,0.304l-2.692,0.229l-2.716,0.155l-2.746,0.079l-2.758,0.004l-2.775,-0.071l-2.788,-0.142l-2.792,-0.22l-2.795,-0.292l-2.8,-0.367l-2.792,-0.441l-2.783,-0.509l-2.775,-0.583l-2.759,-0.654l-2.741,-0.721l-2.721,-0.792l-2.7,-0.858l-2.667,-0.925l-2.642,-0.992l-2.604,-1.054l-2.571,-1.121l-2.533,-1.179l-2.492,-1.237l-2.445,-1.3l-2.405,-1.355l-2.35,-1.412l-2.304,-1.467l-2.25,-1.516l-2.196,-1.571l-2.141,-1.621l-2.079,-1.667l-2.025,-1.712l-1.959,-1.763l-1.9,-1.8l-1.833,-1.841l-1.767,-1.884l-1.7,-1.921l-1.637,-1.958l-1.567,-1.992l-1.496,-2.025l-1.425,-2.054l-1.358,-2.083l-1.288,-2.113l-1.212,-2.137l-1.142,-2.163l-1.071,-2.187l-1,-2.204l-0.925,-2.225l-0.854,-2.246l-0.783,-2.258l-0.708,-2.275l-0.638,-2.288l-0.567,-2.3l-0.495,-2.308l-0.425,-2.317l-0.355,-2.325l-0.287,-2.333l-0.217,-2.334l-0.15,-2.341l-0.083,-2.342l-0.017,-2.342l0.05,-2.341l0.117,-2.338l0.175,-2.337l0.242,-2.334l0.3,-2.329l0.362,-2.325l0.421,-2.316l0.479,-2.309l0.538,-2.3l0.591,-2.291l0.646,-2.28l0.7,-2.27l0.754,-2.259l0.8,-2.246l0.854,-2.233l0.9,-2.221l0.946,-2.204l0.992,-2.192l1.037,-2.175l1.08,-2.162l1.12,-2.146l1.159,-2.125l1.2,-2.112l1.237,-2.096l1.275,-2.079l1.309,-2.059l1.341,-2.046l1.375,-2.025l1.409,-2.008l1.433,-1.987l1.467,-1.971l1.491,-1.954l1.521,-1.934l1.542,-1.921l1.571,-1.895l1.587,-1.884l1.617,-1.862l1.633,-1.846l1.65,-1.829l1.675,-1.809l1.692,-1.795l1.704,-1.775l1.725,-1.759l1.737,-1.741l1.75,-1.725l1.767,-1.709l1.779,-1.696l1.788,-1.679l1.804,-1.658l1.808,-1.65l1.821,-1.629l1.829,-1.621l1.838,-1.6l1.846,-1.592l1.854,-1.575l1.858,-1.562l1.863,-1.55l1.87,-1.538l1.875,-1.525l1.88,-1.512l1.883,-1.5l1.887,-1.492l1.892,-1.479l1.896,-1.471l1.896,-1.458l1.9,-1.45l1.9,-1.438l1.904,-1.433l1.904,-1.421l1.908,-1.417l1.909,-1.404l1.908,-1.4l1.908,-1.391l1.913,-1.384l1.912,-1.379l1.913,-1.371l3.825,-2.725l1.917,-1.354l1.912,-1.346l1.917,-1.346l1.916,-1.341l3.834,-2.667l1.916,-1.325l1.921,-1.325l1.917,-1.321l3.842,-2.633l1.925,-1.313l1.92,-1.308l3.85,-2.617l3.859,-2.608l1.929,-1.3l3.867,-2.6l1.937,-1.296l1.938,-1.3l1.941,-1.296l3.892,-2.591l3.9,-2.592l3.917,-2.592l1.962,-1.295l1.967,-1.296l1.971,-1.296l1.975,-1.3l1.979,-1.296l1.979,-1.3l1.987,-1.3l1.996,-1.296l1.996,-1.304l2,-1.3l2.008,-1.3l2.013,-1.304l2.017,-1.304l2.025,-1.304l2.029,-1.309l2.033,-1.304l2.042,-1.308l2.05,-1.313l2.05,-1.308l4.125,-2.625l2.075,-1.313l2.079,-1.316l2.087,-1.313l2.092,-1.316l2.1,-1.321l2.108,-1.317l2.113,-1.321l2.125,-1.321l2.129,-1.325l2.138,-1.32l2.141,-1.325l2.154,-1.325l2.159,-1.33l2.171,-1.325l2.175,-1.329l2.183,-1.329l2.192,-1.333l2.2,-1.329l2.208,-1.334l2.217,-1.333l2.225,-1.338l2.233,-1.333l2.242,-1.337l2.25,-1.334l2.258,-1.337l2.267,-1.342l2.275,-1.337l2.283,-1.342l2.296,-1.338l2.3,-1.341l2.308,-1.342l2.321,-1.346l2.329,-1.341l2.333,-1.346l2.346,-1.342l2.354,-1.346l2.367,-1.346l2.371,-1.345l2.379,-1.346l2.392,-1.346l2.396,-1.35l2.408,-1.346l2.417,-1.35l2.425,-1.346l2.437,-1.35l2.442,-1.35l2.454,-1.35l2.462,-1.35l2.471,-1.35l2.479,-1.35l2.488,-1.35l2.496,-1.354l2.508,-1.35l2.517,-1.35l2.525,-1.354l2.533,-1.35l2.542,-1.354l2.55,-1.354l2.562,-1.35l2.571,-1.355l2.579,-1.354l2.588,-1.35l2.596,-1.354l2.604,-1.354l2.616,-1.354l2.625,-1.354l2.63,-1.355l2.641,-1.354l2.654,-1.354l2.659,-1.35l2.666,-1.354l2.68,-1.354l2.687,-1.354l2.696,-1.359l2.704,-1.354l2.713,-1.354l2.725,-1.354l2.729,-1.354l2.741,-1.355l2.75,-1.354l2.759,-1.354l2.766,-1.354l2.775,-1.354l2.788,-1.354l2.792,-1.355l2.804,-1.358l2.812,-1.354l2.821,-1.354l2.829,-1.354l2.838,-1.355l2.846,-1.354l2.858,-1.354l2.862,-1.354l2.875,-1.358l2.884,-1.355l2.891,-1.354l2.9,-1.354l2.913,-1.354l2.917,-1.354l2.925,-1.354l2.937,-1.355l2.946,-1.354l2.954,-1.358l2.963,-1.354l2.97,-1.354l2.98,-1.354l2.991,-1.354l2.996,-1.355l3.008,-1.354l3.017,-1.355l3.025,-1.355l3.033,-1.354l3.042,-1.355l3.05,-1.354l3.058,-1.355l3.071,-1.354l3.075,-1.354l3.088,-1.355l3.096,-1.354l3.104,-1.355l3.112,-1.354l3.121,-1.354l3.129,-1.355l3.142,-1.354l3.146,-1.355l3.158,-1.354l3.167,-1.354l3.175,-1.355l3.183,-1.354l3.192,-1.354l3.2,-1.355l3.208,-1.354l3.221,-1.354l3.225,-1.354l3.237,-1.355l3.246,-1.354l3.254,-1.354l3.263,-1.355l3.271,-1.354l3.279,-1.354l3.287,-1.354l3.3,-1.355l3.305,-1.354l3.316,-1.354l3.325,-1.355l3.334,-1.354l3.341,-1.354l3.35,-1.354l3.359,-1.354l3.37,-1.355l3.375,-1.354l3.388,-1.354l3.392,-1.354l3.404,-1.354l3.412,-1.355l3.421,-1.354l3.429,-1.354l3.438,-1.354l3.45,-1.354l3.454,-1.354l3.467,-1.355l3.475,-1.354l3.479,-1.354l3.491,-1.355l3.5,-1.354l3.513,-1.354l3.517,-1.354l3.525,-1.354l3.537,-1.354l3.542,-1.355l3.554,-1.354l3.562,-1.354l3.571,-1.354l3.579,-1.354l3.588,-1.354l3.596,-1.355l3.608,-1.354l3.613,-1.354l3.625,-1.354l3.633,-1.354l3.642,-1.354l3.65,-1.355l3.658,-1.354l3.667,-1.354l3.675,-1.354l3.683,-1.354l3.696,-1.354l3.704,-1.355l3.708,-1.354l3.721,-1.354l3.729,-1.354l3.738,-1.354l3.746,-1.354l3.758,-1.355l3.762,-1.354l3.775,-1.354l3.78,-1.354l3.791,-1.354l3.8,-1.354l3.809,-1.355l3.816,-1.354l3.825,-1.354l3.838,-1.354l3.841,-1.354l3.855,-1.354l3.858,-1.355l3.871,-1.354l3.879,-1.354l3.887,-1.354l3.896,-1.354l3.904,-1.354l3.917,-1.355l3.921,-1.354" style="fill:none;fill-rule:nonzero;stroke:#6495ed;stroke-width:8.33px;"/><circle cx="1045.24" cy="1160.47" r="16.667" style="stroke:#000;stroke-width:8.33px;"/><circle cx="557.761" cy="952.164" r="16.667" style="stroke:#000;stroke-width:8.33px;"/><circle cx="759.838" cy="607.752" r="16.667" style="stroke:#000;stroke-width:8.33px;"/><circle cx="1350.51" cy="267.18" r="16.667" style="stroke:#000;stroke-width:8.33px;"/><path d="M1084.16,1122.48l0,-1.464c2.039,-0.087 3.738,-0.852 5.094,-2.295c1.356,-1.443 2.268,-3.055 2.734,-4.834c0.467,-1.78 0.722,-3.7 0.765,-5.762l1.66,0l0,12.272l9.538,0l0,2.083l-9.538,0l0,18.546c0,4.802 1.498,7.203 4.493,7.203c1.28,0 2.343,-0.657 3.19,-1.972c0.846,-1.314 1.269,-3.145 1.269,-5.492l0,-3.683l1.66,0l0,3.803c0,2.406 -0.553,4.508 -1.66,6.306c-1.107,1.799 -2.756,2.698 -4.948,2.698c-0.803,0 -1.6,-0.103 -2.392,-0.309c-0.792,-0.206 -1.704,-0.575 -2.735,-1.107c-1.03,-0.531 -1.866,-1.454 -2.506,-2.767c-0.64,-1.313 -0.96,-2.924 -0.96,-4.834l0,-18.392l-5.664,0Z" style="fill-rule:nonzero;"/><path d="M1112.54,1139.04c0.043,-0.519 0.488,-0.779 1.335,-0.779l40.852,0c1.281,0 1.932,0.239 1.954,0.717c0,0.52 -0.608,0.77 -1.823,0.748l-40.528,0c-1.193,0.022 -1.79,-0.207 -1.79,-0.686Zm0,-13.019c0,-0.52 0.467,-0.77 1.4,-0.748l40.722,0c1.324,0 1.997,0.249 2.019,0.748c0,0.478 -0.565,0.717 -1.693,0.717l-41.113,0c-0.89,0 -1.335,-0.239 -1.335,-0.717Z" style="fill-rule:nonzero;"/><rect x="1161.24" y="1132.8" width="17.741" height="3.939" style="fill-rule:nonzero;"/><path d="M1188.36,1111.08l0,-2.083c5.383,0 9.464,-1.422 12.243,-4.264c0.709,0 1.125,0.086 1.246,0.26c0.122,0.174 0.183,0.662 0.183,1.465l0,37.373c0,1.322 0.338,2.189 1.014,2.601c0.677,0.412 2.492,0.618 5.446,0.618l2.198,0l0,2.084c-1.562,-0.133 -5.164,-0.199 -10.807,-0.199c-5.642,0 -9.234,0.066 -10.775,0.199l0,-2.084l2.116,0c2.8,0 4.536,-0.2 5.209,-0.601c0.672,-0.402 1.009,-1.274 1.009,-2.619l0,-34.508c-2.409,1.172 -5.436,1.758 -9.082,1.758Z" style="fill-rule:nonzero;"/><path d="M1222.75,1148.05c-0.66,-0.723 -0.99,-1.556 -0.99,-2.497c0,-0.942 0.33,-1.758 0.99,-2.448c0.661,-0.69 1.491,-1.035 2.492,-1.035c0.959,0 1.763,0.323 2.412,0.969c0.65,0.646 0.975,1.489 0.975,2.53c0,1.04 -0.346,1.895 -1.039,2.563c-0.692,0.668 -1.475,1.002 -2.348,1.002c-1.001,0 -1.831,-0.362 -2.492,-1.084Z" style="fill-rule:nonzero;"/><path d="M1236.31,1138.13l0,-2.083l20.475,-31.283c0.347,-0.542 0.792,-0.803 1.335,-0.781c0.499,0 0.803,0.097 0.911,0.293c0.109,0.195 0.163,0.673 0.163,1.432l0,30.339l6.836,0l0,2.083l-6.836,0l0,5.773c0,1.276 0.266,2.119 0.798,2.53c0.531,0.411 1.947,0.616 4.248,0.616l1.399,0l0,2.084c-1.823,-0.133 -4.809,-0.199 -8.96,-0.199c-4.23,0 -7.265,0.066 -9.106,0.199l0,-2.084l1.435,0c2.358,0 3.815,-0.2 4.371,-0.6c0.557,-0.4 0.835,-1.248 0.835,-2.546l0,-5.773l-17.904,0Zm2.051,-2.083l16.243,0l0,-24.87l-16.243,24.87Z" style="fill-rule:nonzero;"/><path d="M543.793,565.837l0,-1.465c2.04,-0.087 3.738,-0.852 5.094,-2.295c1.357,-1.443 2.268,-3.054 2.735,-4.834c0.466,-1.779 0.721,-3.7 0.765,-5.762l1.66,0l0,12.272l9.538,0l0,2.084l-9.538,0l0,18.545c0,4.802 1.497,7.203 4.492,7.203c1.28,0 2.344,-0.657 3.19,-1.971c0.846,-1.315 1.27,-3.146 1.27,-5.493l0,-3.683l1.66,0l0,3.803c0,2.406 -0.554,4.508 -1.66,6.307c-1.107,1.798 -2.756,2.698 -4.948,2.698c-0.803,0 -1.601,-0.103 -2.393,-0.31c-0.792,-0.206 -1.703,-0.575 -2.734,-1.106c-1.031,-0.532 -1.867,-1.454 -2.507,-2.767c-0.64,-1.313 -0.96,-2.925 -0.96,-4.834l0,-18.392l-5.664,0Z" style="fill-rule:nonzero;"/><path d="M572.178,582.404c0.044,-0.52 0.489,-0.779 1.335,-0.779l40.853,0c1.28,0 1.931,0.238 1.953,0.716c0,0.521 -0.608,0.77 -1.823,0.748l-40.527,0c-1.194,0.022 -1.791,-0.206 -1.791,-0.685Zm0,-13.02c0,-0.52 0.467,-0.769 1.4,-0.748l40.723,0c1.324,0 1.996,0.25 2.018,0.748c0,0.478 -0.564,0.717 -1.693,0.717l-41.113,0c-0.89,0 -1.335,-0.239 -1.335,-0.717Z" style="fill-rule:nonzero;"/><path d="M621.918,581.494l0,-2.083l20.475,-31.283c0.347,-0.542 0.792,-0.802 1.335,-0.781c0.499,0 0.803,0.098 0.911,0.293c0.109,0.195 0.163,0.673 0.163,1.432l0,30.339l6.836,0l0,2.083l-6.836,0l0,5.774c0,1.275 0.266,2.119 0.798,2.529c0.531,0.411 1.947,0.617 4.248,0.617l1.399,0l0,2.083c-1.823,-0.132 -4.809,-0.198 -8.96,-0.198c-4.23,0 -7.265,0.066 -9.106,0.198l0,-2.083l1.435,0c2.358,0 3.815,-0.2 4.371,-0.6c0.557,-0.4 0.835,-1.249 0.835,-2.546l0,-5.774l-17.904,0Zm2.051,-2.083l16.243,0l0,-24.87l-16.243,24.87Z" style="fill-rule:nonzero;"/><path d="M660.213,591.413c-0.66,-0.723 -0.99,-1.555 -0.99,-2.497c0,-0.942 0.33,-1.758 0.99,-2.448c0.66,-0.69 1.491,-1.035 2.492,-1.035c0.958,0 1.762,0.323 2.412,0.969c0.649,0.646 0.974,1.49 0.974,2.53c0,1.041 -0.346,1.895 -1.038,2.563c-0.692,0.668 -1.475,1.002 -2.348,1.002c-1.001,0 -1.832,-0.361 -2.492,-1.084Z" style="fill-rule:nonzero;"/><path d="M674.88,582.413c0,-4.965 3.201,-9.053 9.603,-12.262c-2.756,-1.865 -4.384,-3.069 -4.883,-3.611c-1.953,-2.168 -2.929,-4.608 -2.929,-7.318c0,-3.102 1.177,-5.731 3.531,-7.889c2.355,-2.158 5.203,-3.237 8.545,-3.237c3.19,0 5.99,0.922 8.399,2.765c2.409,1.843 3.613,4.229 3.613,7.157c0,4.12 -2.691,7.568 -8.073,10.344c3.559,2.211 5.762,3.784 6.608,4.716c2.17,2.407 3.255,5.139 3.255,8.197c0,3.565 -1.367,6.571 -4.101,9.018c-2.734,2.446 -5.99,3.669 -9.766,3.669c-3.689,0 -6.912,-1.077 -9.668,-3.23c-2.756,-2.153 -4.134,-4.926 -4.134,-8.319Zm3.32,0c0,2.754 1.037,5.053 3.109,6.896c2.073,1.843 4.552,2.765 7.438,2.765c2.8,0 5.247,-0.803 7.341,-2.407c2.094,-1.605 3.141,-3.6 3.141,-5.985c0,-0.933 -0.157,-1.8 -0.472,-2.602c-0.315,-0.802 -0.781,-1.523 -1.4,-2.163c-0.618,-0.64 -1.117,-1.106 -1.497,-1.399c-0.38,-0.293 -0.928,-0.688 -1.644,-1.187l-8.203,-5.172c-5.208,2.884 -7.813,6.635 -7.813,11.254Zm1.4,-25.794c0,2.125 1.118,3.925 3.353,5.4l8.268,5.334c4.406,-2.58 6.608,-5.692 6.608,-9.335c0,-2.364 -0.9,-4.332 -2.701,-5.904c-1.802,-1.572 -3.95,-2.358 -6.446,-2.358c-2.452,0 -4.579,0.645 -6.38,1.935c-1.801,1.291 -2.702,2.933 -2.702,4.928Z" style="fill-rule:nonzero;"/><path d="M1390.15,302.165l0,-1.465c2.04,-0.087 3.738,-0.852 5.094,-2.295c1.357,-1.443 2.268,-3.054 2.735,-4.834c0.466,-1.779 0.721,-3.7 0.765,-5.762l1.66,0l0,12.273l9.538,0l0,2.083l-9.538,0l0,18.545c0,4.803 1.497,7.204 4.492,7.204c1.281,0 2.344,-0.658 3.19,-1.972c0.847,-1.315 1.27,-3.146 1.27,-5.492l0,-3.683l1.66,0l0,3.803c0,2.405 -0.553,4.507 -1.66,6.306c-1.107,1.798 -2.756,2.698 -4.948,2.698c-0.803,0 -1.601,-0.103 -2.393,-0.309c-0.792,-0.207 -1.703,-0.576 -2.734,-1.107c-1.031,-0.532 -1.866,-1.454 -2.507,-2.767c-0.64,-1.313 -0.96,-2.924 -0.96,-4.834l0,-18.392l-5.664,0Z" style="fill-rule:nonzero;"/><path d="M1418.53,318.732c0.044,-0.52 0.489,-0.779 1.335,-0.779l40.853,0c1.28,0 1.931,0.239 1.953,0.716c0,0.521 -0.608,0.77 -1.823,0.749l-40.527,0c-1.194,0.021 -1.791,-0.207 -1.791,-0.686Zm0,-13.019c0,-0.521 0.467,-0.77 1.4,-0.749l40.723,0c1.324,0 1.996,0.25 2.018,0.749c0,0.477 -0.564,0.716 -1.693,0.716l-41.113,0c-0.89,0 -1.335,-0.239 -1.335,-0.716Z" style="fill-rule:nonzero;"/><path d="M1469.64,317.918c0,-1.397 0.386,-2.364 1.156,-2.902c0.771,-0.538 1.565,-0.807 2.382,-0.807c0.963,0 1.727,0.338 2.29,1.013c0.564,0.676 0.845,1.483 0.845,2.421c0,0.939 -0.281,1.746 -0.845,2.422c-0.563,0.675 -1.327,1.013 -2.29,1.013c-0.537,0 -0.945,-0.044 -1.226,-0.131c0.581,2.032 1.759,3.782 3.534,5.251c1.774,1.469 3.834,2.204 6.178,2.204c2.98,0 5.362,-1.476 7.146,-4.427c1.066,-1.909 1.598,-5.026 1.598,-9.354c0,-3.633 -0.402,-6.358 -1.207,-8.175c-1.24,-2.767 -3.132,-4.151 -5.677,-4.151c-3.599,0 -6.461,1.507 -8.585,4.519c-0.236,0.379 -0.491,0.579 -0.766,0.6c-0.393,0 -0.634,-0.123 -0.722,-0.371c-0.088,-0.248 -0.132,-0.706 -0.132,-1.375l0,-19.594c0,-1.057 0.217,-1.585 0.651,-1.585c0.173,0 0.445,0.047 0.813,0.141c2.8,0.889 5.751,1.341 8.855,1.357c3.19,0 6.217,-0.651 9.082,-1.954c0.217,-0.13 0.39,-0.195 0.52,-0.195c0.435,0 0.662,0.25 0.684,0.749c0,0.173 -0.181,0.522 -0.543,1.046c-0.361,0.524 -0.926,1.151 -1.694,1.883c-0.767,0.733 -1.644,1.447 -2.631,2.143c-0.987,0.696 -2.199,1.277 -3.635,1.745c-1.437,0.468 -2.944,0.702 -4.523,0.702c-1.886,0 -3.794,-0.293 -5.724,-0.879l0,12.933c2.305,-2.22 5.132,-3.33 8.48,-3.33c3.555,0 6.556,1.402 9.005,4.205c2.449,2.804 3.674,6.159 3.674,10.067c0,4.276 -1.447,7.876 -4.342,10.801c-2.895,2.925 -6.293,4.387 -10.196,4.387c-3.582,0 -6.504,-1.287 -8.764,-3.86c-2.261,-2.573 -3.391,-5.411 -3.391,-8.512Z" style="fill-rule:nonzero;"/><path d="M1506.57,327.741c-0.66,-0.723 -0.99,-1.555 -0.99,-2.497c0,-0.942 0.33,-1.758 0.99,-2.448c0.66,-0.69 1.491,-1.035 2.492,-1.035c0.958,0 1.762,0.323 2.412,0.969c0.649,0.647 0.974,1.49 0.974,2.53c0,1.041 -0.346,1.895 -1.038,2.563c-0.692,0.668 -1.475,1.002 -2.348,1.002c-1.001,0 -1.832,-0.361 -2.492,-1.084Z" style="fill-rule:nonzero;"/><path d="M1521.23,307.757c0,-6.986 1.776,-12.621 5.329,-16.906c3.552,-4.285 7.613,-6.427 12.184,-6.427c2.608,0 4.638,0.677 6.09,2.03c1.452,1.353 2.179,3.069 2.179,5.147c0,1.156 -0.332,1.985 -0.995,2.487c-0.662,0.502 -1.336,0.753 -2.02,0.753c-0.755,0 -1.429,-0.273 -2.022,-0.818c-0.592,-0.546 -0.888,-1.31 -0.888,-2.292c0,-2.007 1.163,-3.01 3.488,-3.01c-1.119,-1.758 -3.019,-2.637 -5.7,-2.637c-0.858,0 -1.727,0.125 -2.608,0.375c-0.88,0.249 -1.892,0.786 -3.037,1.61c-1.144,0.825 -2.156,1.888 -3.037,3.189c-0.88,1.302 -1.628,3.179 -2.244,5.63c-0.616,2.452 -0.924,5.272 -0.924,8.461l0,1.595c1.82,-4.358 4.593,-6.531 8.32,-6.521c3.727,0.011 6.88,1.43 9.459,4.258c2.578,2.827 3.868,6.334 3.868,10.521c0,4.323 -1.332,7.919 -3.995,10.786c-2.662,2.868 -5.862,4.302 -9.599,4.302c-1.682,0 -3.284,-0.353 -4.805,-1.058c-1.52,-0.706 -2.987,-1.862 -4.4,-3.468c-1.413,-1.606 -2.54,-3.951 -3.381,-7.034c-0.841,-3.082 -1.262,-6.74 -1.262,-10.973Zm5.925,5.982c0,4.357 0.407,7.575 1.221,9.656c0.132,0.347 0.347,0.759 0.644,1.235c0.297,0.477 0.704,1.024 1.222,1.642c0.517,0.618 1.204,1.127 2.063,1.528c0.858,0.401 1.783,0.602 2.773,0.602c2.943,0 5.124,-1.442 6.542,-4.324c0.751,-1.604 1.127,-4.585 1.127,-8.941c0,-4.443 -0.397,-7.478 -1.191,-9.103c-1.352,-2.753 -3.401,-4.129 -6.148,-4.129c-1.893,0 -3.494,0.639 -4.803,1.918c-1.31,1.279 -2.212,2.774 -2.707,4.486c-0.496,1.713 -0.743,3.522 -0.743,5.43Z" style="fill-rule:nonzero;"/></svg>