<?xml version="1.0" encoding="UTF-8" standalone="no"?>
<!-- Created with Inkscape (http://www.inkscape.org/) -->

<svg
   xmlns:dc="http://purl.org/dc/elements/1.1/"
   xmlns:cc="http://creativecommons.org/ns#"
   xmlns:rdf="http://www.w3.org/1999/02/22-rdf-syntax-ns#"
   xmlns:svg="http://www.w3.org/2000/svg"
   xmlns="http://www.w3.org/2000/svg"
   xmlns:sodipodi="http://sodipodi.sourceforge.net/DTD/sodipodi-0.dtd"
   xmlns:inkscape="http://www.inkscape.org/namespaces/inkscape"
   width="202.80721"
   height="231.28052"
   id="svg5627"
   sodipodi:version="0.32"
   inkscape:version="0.92.3 (2405546, 2018-03-11)"
   version="1.0"
   sodipodi:docname="Vector_addition.svg">
  <defs
     id="defs5629" />
  <sodipodi:namedview
     id="base"
     pagecolor="#ffffff"
     bordercolor="#666666"
     borderopacity="1.0"
     gridtolerance="50"
     guidetolerance="10"
     objecttolerance="10"
     inkscape:pageopacity="0.0"
     inkscape:pageshadow="2"
     inkscape:zoom="0.9154533"
     inkscape:cx="152.84785"
     inkscape:cy="133.34932"
     inkscape:document-units="px"
     inkscape:current-layer="layer1"
     height="235px"
     width="445px"
     showgrid="true"
     grid_units="mm"
     inkscape:grid-points="false"
     inkscape:grid-bbox="false"
     inkscape:window-width="1280"
     inkscape:window-height="785"
     inkscape:window-x="54"
     inkscape:window-y="-8"
     fit-margin-top="0"
     fit-margin-left="0"
     fit-margin-right="0"
     fit-margin-bottom="0"
     inkscape:window-maximized="1">
    <inkscape:grid
       id="GridFromPre046Settings"
       type="xygrid"
       originx="-2.1518878"
       originy="-2.02446"
       spacingx="15.11811"
       spacingy="15.11811"
       color="#3f3fff"
       empcolor="#3f3fff"
       opacity="0.15"
       empopacity="0.38"
       empspacing="5" />
  </sodipodi:namedview>
  <metadata
     id="metadata5632">
    <rdf:RDF>
      <cc:Work
         rdf:about="">
        <dc:format>image/svg+xml</dc:format>
        <dc:type
           rdf:resource="http://purl.org/dc/dcmitype/StillImage" />
        <dc:title></dc:title>
      </cc:Work>
    </rdf:RDF>
  </metadata>
  <g
     inkscape:label="Layer 1"
     inkscape:groupmode="layer"
     id="layer1"
     transform="translate(-29.873578,-43.962691)">
    <path
       id="path5637"
       d="m 172.41151,46.430711 -141.750003,99.218749 1.4375,2.0625 141.750003,-99.218749 z"
       style="fill:#3465a4;fill-opacity:1;fill-rule:evenodd;stroke:none;stroke-width:2.5;stroke-linecap:butt;stroke-linejoin:miter;stroke-miterlimit:4;stroke-opacity:1"
       inkscape:connector-curvature="0" />
    <path
       id="path8525"
       d="m 170.66522,49.18077 -0.61442,3.481735 5.73463,-7.06587 -8.60194,2.969708 z"
       style="fill:#3465a4;fill-rule:evenodd;stroke:#3465a4;stroke-width:0.20000001pt;marker-start:none"
       inkscape:connector-curvature="0" />
    <path
       id="path6548"
       d="m 171.94276,47.024461 -85.031253,226.781249 2.34375,0.875 85.031253,-226.781249 z"
       style="fill:#75507b;fill-opacity:1;fill-rule:evenodd;stroke:none;stroke-width:2.5;stroke-linecap:butt;stroke-linejoin:miter;stroke-miterlimit:4;stroke-opacity:1"
       inkscape:connector-curvature="0" />
    <path
       id="path8517"
       d="m 172.06955,50.269188 1.46301,3.218631 0.73151,-9.070689 -5.41315,7.315072 z"
       style="fill:#75507b;fill-rule:evenodd;stroke:#75507b;stroke-width:0.20000001pt;marker-start:none"
       inkscape:connector-curvature="0" />
    <path
       id="path5635"
       d="m 32.536507,146.14946 -2.28125,1.03125 56.6875,127.5625 2.28125,-1.03125 z"
       style="fill:#cc0000;fill-opacity:1;fill-rule:evenodd;stroke:none;stroke-width:2.5;stroke-linecap:butt;stroke-linejoin:miter;stroke-miterlimit:4;stroke-opacity:1"
       inkscape:connector-curvature="0" />
    <path
       id="path8493"
       d="m 32.60904,149.41325 3.299871,1.26919 -5.838219,-6.98052 1.269156,9.0112 z"
       style="fill:#cc0000;fill-rule:evenodd;stroke:#cc0000;stroke-width:0.20000001pt;marker-start:none"
       inkscape:connector-curvature="0" />
    <path
       id="use6546"
       d="m 173.63026,48.399461 -2.28125,1.03125 56.6875,127.562499 2.28125,-1.03125 z"
       style="fill:#cc0000;fill-opacity:1;fill-rule:evenodd;stroke:none;stroke-width:2.5;stroke-linecap:butt;stroke-linejoin:miter;stroke-miterlimit:4;stroke-opacity:1"
       inkscape:connector-curvature="0" />
    <path
       id="path8485"
       d="m 173.71635,51.656409 3.29987,1.269193 -5.83822,-6.980522 1.26915,9.011201 z"
       style="fill:#cc0000;fill-rule:evenodd;stroke:#cc0000;stroke-width:0.20000001pt;marker-start:none"
       inkscape:connector-curvature="0" />
    <path
       id="use6544"
       d="m 228.91151,173.99321 -141.750003,99.21875 1.4375,2.03125 141.750003,-99.1875 z"
       style="fill:#3465a4;fill-opacity:1;fill-rule:evenodd;stroke:none;stroke-width:2.5;stroke-linecap:butt;stroke-linejoin:miter;stroke-miterlimit:4;stroke-opacity:1"
       inkscape:connector-curvature="0" />
    <path
       id="path8469"
       d="m 227.16297,176.73986 -0.61442,3.48174 5.73463,-7.06587 -8.60194,2.96971 z"
       style="fill:#3465a4;fill-rule:evenodd;stroke:#3465a4;stroke-width:0.20000001pt;marker-start:none"
       inkscape:connector-curvature="0" />
    <path
       style="font-style:normal;font-weight:bold;font-size:22px;font-family:'DejaVu Serif';fill:#a40000;fill-opacity:1;stroke:none;stroke-width:1px;stroke-linecap:butt;stroke-linejoin:miter;stroke-opacity:1"
       d="m 50.73703,209.79601 v 5.71484 h 1.632813 v 1.2998 h -5.435547 v -1.45019 c -0.50131,0.60156 -1.059903,1.04557 -1.675781,1.33203 -0.615892,0.28646 -1.317714,0.42969 -2.105469,0.42969 -1.167321,0 -2.066083,-0.31153 -2.696289,-0.93457 -0.623048,-0.63021 -0.934571,-1.52897 -0.93457,-2.69629 -1e-6,-1.2819 0.447589,-2.24153 1.342773,-2.87891 0.902341,-0.63736 2.259436,-0.95605 4.071289,-0.95605 h 1.998047 v -0.67676 c -8e-6,-0.92382 -0.218433,-1.60416 -0.655273,-2.04102 -0.436857,-0.444 -1.113614,-0.666 -2.030274,-0.66601 -0.759119,1e-5 -1.346358,0.15756 -1.761719,0.47265 -0.408206,0.30796 -0.698245,0.81642 -0.870117,1.52539 h -1.213867 v -2.45996 c 0.680336,-0.24347 1.385739,-0.42609 2.116211,-0.54785 0.730464,-0.12173 1.50032,-0.1826 2.30957,-0.18261 2.041008,1e-5 3.53417,0.37956 4.479492,1.13867 0.952463,0.75912 1.428699,1.9515 1.428711,3.57715 m -3.802734,3.42675 v -2.28808 h -1.428711 c -0.70899,0 -1.253261,0.19336 -1.632812,0.58008 -0.379563,0.38672 -0.569341,0.94173 -0.569336,1.66503 -5e-6,0.72331 0.136063,1.264 0.408203,1.62207 0.279291,0.35808 0.701817,0.53712 1.267578,0.53711 0.587233,1e-5 1.059888,-0.19335 1.417969,-0.58007 0.358064,-0.38672 0.537101,-0.89876 0.537109,-1.53614"
       id="text7445"
       inkscape:connector-curvature="0" />
    <path
       style="font-style:normal;font-weight:bold;font-size:22px;font-family:'DejaVu Serif';fill:#3465a4;fill-opacity:1;stroke:none;stroke-width:1px;stroke-linecap:butt;stroke-linejoin:miter;stroke-opacity:1"
       d="M 86.615197,89.465944 V 75.339967 h -1.632813 v -1.289063 h 5.435547 v 6.746094 c 0.322259,-0.59439 0.755527,-1.034819 1.299805,-1.321289 0.544263,-0.293608 1.217439,-0.440418 2.019531,-0.44043 1.62564,1.2e-5 2.903959,0.537121 3.834961,1.611329 0.938137,1.067066 1.407212,2.535163 1.407226,4.404296 -1.4e-5,1.869145 -0.469089,3.340823 -1.407226,4.41504 -0.931002,1.074219 -2.209321,1.611327 -3.834961,1.611328 -0.802092,-10e-7 -1.475268,-0.14323 -2.019531,-0.429688 -0.544278,-0.293619 -0.977546,-0.737629 -1.299805,-1.332031 v 1.450195 h -5.435547 v -1.299804 h 1.632813 m 3.802734,-3.845704 c -6e-6,1.332035 0.168288,2.295251 0.504883,2.889649 0.343743,0.594403 0.895175,0.891603 1.654297,0.891601 0.78059,2e-6 1.328441,-0.315102 1.643554,-0.945312 0.322256,-0.630205 0.483389,-1.765295 0.483399,-3.405274 -1e-5,-1.639966 -0.161143,-2.771475 -0.483399,-3.394531 -0.315113,-0.630198 -0.862964,-0.945302 -1.643554,-0.945312 -0.759122,1e-5 -1.310554,0.29721 -1.654297,0.891601 -0.336595,0.59441 -0.504889,1.557625 -0.504883,2.889649 v 1.127929"
       id="text7449"
       inkscape:connector-curvature="0" />
    <path
       style="font-style:normal;font-weight:bold;font-size:22px;font-family:'DejaVu Serif';fill:#5c3566;fill-opacity:1;stroke:none;stroke-width:1px;stroke-linecap:butt;stroke-linejoin:miter;stroke-opacity:1"
       d="m 146.70941,161.64679 v 5.71484 h 1.63281 v 1.29981 h -5.43555 v -1.4502 c -0.50131,0.60157 -1.0599,1.04558 -1.67578,1.33203 -0.61589,0.28646 -1.31771,0.42969 -2.10547,0.42969 -1.16732,0 -2.06608,-0.31152 -2.69629,-0.93457 -0.62304,-0.63021 -0.93457,-1.52897 -0.93457,-2.69629 0,-1.28189 0.44759,-2.24153 1.34278,-2.8789 0.90234,-0.63737 2.25943,-0.95605 4.07129,-0.95606 h 1.99804 v -0.67676 c -1e-5,-0.92382 -0.21843,-1.60415 -0.65527,-2.04101 -0.43686,-0.444 -1.11361,-0.66601 -2.03027,-0.66602 -0.75912,1e-5 -1.34636,0.15756 -1.76172,0.47266 -0.40821,0.30795 -0.69825,0.81641 -0.87012,1.52539 h -1.21387 v -2.45996 c 0.68034,-0.24348 1.38574,-0.4261 2.11621,-0.54785 0.73047,-0.12174 1.50032,-0.18261 2.30957,-0.18262 2.04101,1e-5 3.53417,0.37957 4.4795,1.13867 0.95246,0.75913 1.4287,1.95151 1.42871,3.57715 m -3.80274,3.42676 v -2.28809 h -1.42871 c -0.70899,1e-5 -1.25326,0.19337 -1.63281,0.58008 -0.37956,0.38672 -0.56934,0.94174 -0.56934,1.66504 0,0.72331 0.13607,1.264 0.40821,1.62207 0.27929,0.35807 0.70181,0.53711 1.26757,0.53711 0.58724,0 1.05989,-0.19336 1.41797,-0.58008 0.35807,-0.38672 0.5371,-0.89876 0.53711,-1.53613 m 16.40332,-10.20508 v 5.65039 h 5.65039 v 2.4707 h -5.65039 v 5.65039 h -2.4707 v -5.65039 h -5.65039 v -2.4707 h 5.65039 v -5.65039 h 2.4707 m 10.11914,12.49316 v -14.12597 h -1.63281 v -1.28907 h 5.43555 v 6.7461 c 0.32226,-0.59439 0.75553,-1.03482 1.2998,-1.32129 0.54427,-0.29361 1.21744,-0.44042 2.01953,-0.44043 1.62564,1e-5 2.90396,0.53712 3.83497,1.61133 0.93813,1.06706 1.40721,2.53516 1.40722,4.40429 -10e-6,1.86915 -0.46909,3.34083 -1.40722,4.41504 -0.93101,1.07422 -2.20933,1.61133 -3.83497,1.61133 -0.80209,0 -1.47526,-0.14323 -2.01953,-0.42969 -0.54427,-0.29362 -0.97754,-0.73763 -1.2998,-1.33203 v 1.4502 h -5.43555 v -1.29981 h 1.63281 m 3.80274,-3.8457 c -10e-6,1.33204 0.16829,2.29525 0.50488,2.88965 0.34374,0.5944 0.89518,0.8916 1.6543,0.8916 0.78059,0 1.32844,-0.3151 1.64355,-0.94531 0.32226,-0.63021 0.48339,-1.7653 0.4834,-3.40528 -1e-5,-1.63996 -0.16114,-2.77147 -0.4834,-3.39453 -0.31511,-0.6302 -0.86296,-0.9453 -1.64355,-0.94531 -0.75912,1e-5 -1.31056,0.29721 -1.6543,0.8916 -0.33659,0.59441 -0.50489,1.55763 -0.50488,2.88965 v 1.12793"
       id="text7453"
       inkscape:connector-curvature="0" />
    <path
       style="font-style:normal;font-weight:bold;font-size:22px;font-family:'DejaVu Serif';fill:#a40000;fill-opacity:1;stroke:none;stroke-width:1px;stroke-linecap:butt;stroke-linejoin:miter;stroke-opacity:1"
       d="m 216.87823,95.403703 v 5.714847 h 1.63281 v 1.2998 h -5.43554 v -1.45019 c -0.50131,0.60156 -1.05991,1.04557 -1.67579,1.33203 -0.61589,0.28645 -1.31771,0.42968 -2.10546,0.42968 -1.16732,0 -2.06609,-0.31152 -2.69629,-0.93457 -0.62305,-0.6302 -0.93457,-1.52896 -0.93457,-2.696285 0,-1.281896 0.44759,-2.24153 1.34277,-2.878906 0.90234,-0.637363 2.25944,-0.956047 4.07129,-0.956054 h 1.99805 v -0.676758 c -1e-5,-0.92382 -0.21844,-1.604158 -0.65528,-2.041016 -0.43685,-0.444 -1.11361,-0.666005 -2.03027,-0.666016 -0.75912,1.1e-5 -1.34636,0.157563 -1.76172,0.472657 -0.40821,0.307952 -0.69824,0.816415 -0.87012,1.52539 h -1.21386 v -2.459961 c 0.68033,-0.243478 1.38574,-0.426095 2.11621,-0.547851 0.73046,-0.121733 1.50032,-0.182606 2.30957,-0.182617 2.041,1.1e-5 3.53417,0.379568 4.47949,1.138672 0.95246,0.759124 1.4287,1.951506 1.42871,3.577148 m -3.80273,3.426758 v -2.288086 h -1.42871 c -0.709,6e-6 -1.25327,0.193365 -1.63282,0.580078 -0.37956,0.386724 -0.56934,0.941736 -0.56933,1.665039 -1e-5,0.72331 0.13606,1.263998 0.4082,1.622068 0.27929,0.35808 0.70182,0.53711 1.26758,0.53711 0.58723,0 1.05989,-0.19336 1.41797,-0.58008 0.35806,-0.386713 0.5371,-0.898757 0.53711,-1.536129"
       id="use7463"
       inkscape:connector-curvature="0" />
    <path
       style="font-style:normal;font-weight:bold;font-size:22px;font-family:'DejaVu Serif';fill:#3465a4;fill-opacity:1;stroke:none;stroke-width:1px;stroke-linecap:butt;stroke-linejoin:miter;stroke-opacity:1"
       d="m 172.13703,237.63115 v -14.12598 h -1.63281 v -1.28906 h 5.43555 v 6.74609 c 0.32226,-0.59439 0.75553,-1.03482 1.2998,-1.32128 0.54427,-0.29361 1.21744,-0.44042 2.01954,-0.44043 1.62564,1e-5 2.90395,0.53712 3.83496,1.61132 0.93813,1.06707 1.40721,2.53517 1.40722,4.4043 -1e-5,1.86914 -0.46909,3.34082 -1.40722,4.41504 -0.93101,1.07422 -2.20932,1.61133 -3.83496,1.61133 -0.8021,0 -1.47527,-0.14323 -2.01954,-0.42969 -0.54427,-0.29362 -0.97754,-0.73763 -1.2998,-1.33203 v 1.45019 h -5.43555 v -1.2998 h 1.63281 m 3.80274,-3.8457 c -1e-5,1.33203 0.16829,2.29525 0.50488,2.88964 0.34375,0.59441 0.89518,0.89161 1.6543,0.89161 0.78059,0 1.32844,-0.31511 1.64355,-0.94532 0.32226,-0.6302 0.48339,-1.76529 0.4834,-3.40527 -1e-5,-1.63997 -0.16114,-2.77148 -0.4834,-3.39453 -0.31511,-0.6302 -0.86296,-0.9453 -1.64355,-0.94531 -0.75912,1e-5 -1.31055,0.29721 -1.6543,0.8916 -0.33659,0.59441 -0.50489,1.55762 -0.50488,2.88965 v 1.12793"
       id="use7469"
       inkscape:connector-curvature="0" />
  </g>
</svg>
