<?xml version="1.0" encoding="UTF-8" standalone="no"?>
<!-- Creator: CorelDRAW X6 -->

<svg
   xmlns:dc="http://purl.org/dc/elements/1.1/"
   xmlns:cc="http://creativecommons.org/ns#"
   xmlns:rdf="http://www.w3.org/1999/02/22-rdf-syntax-ns#"
   xmlns:svg="http://www.w3.org/2000/svg"
   xmlns="http://www.w3.org/2000/svg"
   xmlns:sodipodi="http://sodipodi.sourceforge.net/DTD/sodipodi-0.dtd"
   xmlns:inkscape="http://www.inkscape.org/namespaces/inkscape"
   xml:space="preserve"
   width="9.8248234in"
   height="13.89075in"
   version="1.1"
   style="clip-rule:evenodd;fill-rule:evenodd;image-rendering:optimizeQuality;shape-rendering:geometricPrecision;text-rendering:geometricPrecision"
   viewBox="0 0 9824.7672 13891"
   id="svg286"
   sodipodi:docname="59097.svg"
   inkscape:version="0.92.3 (2405546, 2018-03-11)"><metadata
   id="metadata290"><rdf:RDF><cc:Work
       rdf:about=""><dc:format>image/svg+xml</dc:format><dc:type
         rdf:resource="http://purl.org/dc/dcmitype/StillImage" /><dc:title></dc:title></cc:Work></rdf:RDF></metadata><sodipodi:namedview
   pagecolor="#ffffff"
   bordercolor="#666666"
   borderopacity="1"
   objecttolerance="10"
   gridtolerance="10"
   guidetolerance="10"
   inkscape:pageopacity="0"
   inkscape:pageshadow="2"
   inkscape:window-width="1218"
   inkscape:window-height="1001"
   id="namedview288"
   showgrid="false"
   fit-margin-top="0"
   fit-margin-left="0"
   fit-margin-right="0"
   fit-margin-bottom="0"
   inkscape:zoom="0.26643802"
   inkscape:cx="428.57535"
   inkscape:cy="340.5157"
   inkscape:window-x="54"
   inkscape:window-y="-8"
   inkscape:window-maximized="1"
   inkscape:current-layer="svg286" />
 <defs
   id="defs4"><style
     type="text/css"
     id="style2">
   <![CDATA[
    .fil3 {fill:#272525;fill-rule:nonzero}
    .fil4 {fill:#446EC0;fill-rule:nonzero}
    .fil9 {fill:#5478E8;fill-rule:nonzero}
    .fil14 {fill:#5CA157;fill-rule:nonzero}
    .fil10 {fill:#69BA8B;fill-rule:nonzero}
    .fil1 {fill:#87CEB7;fill-rule:nonzero}
    .fil11 {fill:#A27FF2;fill-rule:nonzero}
    .fil13 {fill:#A2C8E9;fill-rule:nonzero}
    .fil5 {fill:#DA757F;fill-rule:nonzero}
    .fil2 {fill:#DE583B;fill-rule:nonzero}
    .fil12 {fill:#E27F4E;fill-rule:nonzero}
    .fil6 {fill:#E7C4C7;fill-rule:nonzero}
    .fil8 {fill:#EEC161;fill-rule:nonzero}
    .fil15 {fill:#F2D254;fill-rule:nonzero}
    .fil7 {fill:#F8E670;fill-rule:nonzero}
    .fil0 {fill:white;fill-rule:nonzero}
   ]]>
  </style></defs>
 <polygon
   style="fill:#ffffff;fill-rule:nonzero"
   id="polygon7"
   points="0,16667 34722,16667 34722,0 0,0 "
   class="fil0"
   transform="translate(-1585.412,-1389)" /><polygon
   style="fill:#89d6a7;fill-rule:nonzero;fill-opacity:1"
   id="polygon9"
   points="1588,1389 11409,1389 11409,15278 1588,15278 "
   class="fil1"
   transform="translate(-1585.412,-1389)" /><polygon
   style="fill:#de583b;fill-rule:nonzero"
   id="polygon11"
   points="1588,8152 10005,10944 10005,13838 1588,13838 "
   class="fil2"
   transform="translate(-1585.412,-1389)" /><path
   style="fill:#272525;fill-rule:nonzero"
   inkscape:connector-curvature="0"
   id="path13"
   d="m 8419.588,12366 c -289,0 -578,0 -867,0 -694,0 -1389,0 -2084,0 -840,0 -1681,0 -2521,0 -727,0 -1454,0 -2181,0 -240,0 -480,0 -719,0 -15,0 -30,0 -44,-1 v 167 h 554 c 694,0 1389,0 2083,0 840,0 1681,0 2521,0 727,0 1454,0 2181,0 353,0 709,11 1062,0 5,0 10,0 15,0 107,0 107,-167 0,-167 z M 2.588,6851 c 177,59 355,118 532,177 695,231 1390,461 2084,692 841,279 1681,558 2522,837 727,241 1454,482 2181,724 240,80 479,159 719,239 112,37 226,88 342,113 5,1 10,3 15,5 -20,-27 -41,-54 -61,-80 0,325 0,651 0,976 0,519 0,1038 0,1558 0,120 0,240 0,360 0,107 167,107 167,0 0,-325 0,-651 0,-976 0,-519 0,-1038 0,-1558 0,-120 0,-240 0,-360 0,-38 -26,-69 -61,-80 -289,-96 -579,-192 -868,-288 -695,-231 -1390,-461 -2084,-692 -841,-279 -1681,-558 -2522,-837 -727,-241 -1454,-482 -2181,-724 -240,-80 -479,-159 -719,-239 -22,-7 -44,-15 -65,-22 v 176 z"
   class="fil3" /><polygon
   style="fill:#3a6bca;fill-rule:nonzero;fill-opacity:1"
   id="polygon15"
   points="5917,11668 11409,5653 11409,13176 "
   class="fil4"
   transform="translate(-1585.412,-1389)" /><path
   style="fill:#272525;fill-rule:nonzero"
   inkscape:connector-curvature="0"
   id="path17"
   d="m 4390.588,10338 c 60,-66 120,-131 179,-197 163,-178 326,-357 488,-535 241,-264 481,-527 722,-791 294,-322 587,-644 881,-965 320,-351 640,-701 960,-1052 325,-356 649,-711 974,-1067 303,-332 606,-663 908,-995 l 318,-348 v -247 l -234,256 c -294,322 -587,644 -881,965 -320,351 -640,701 -960,1052 -325,356 -649,711 -974,1067 -303,332 -606,663 -908,995 -256,280 -512,561 -768,841 -184,202 -368,403 -552,605 -87,95 -176,189 -261,286 -4,4 -7,8 -11,12 -72,79 45,197 118,118 z m 5432,1362 -1036,-284 c -645,-177 -1289,-354 -1934,-531 -557,-153 -1115,-306 -1672,-459 -271,-74 -542,-160 -816,-224 -4,-1 -8,-2 -11,-3 -104,-28 -148,132 -44,161 223,61 446,122 669,184 535,147 1070,294 1605,441 645,177 1289,354 1934,531 l 1306,358 v -173 z"
   class="fil3" /><polygon
   style="fill:#de583b;fill-rule:nonzero"
   id="polygon19"
   points="1588,13126 3159,15278 1588,15278 "
   class="fil2"
   transform="translate(-1585.412,-1389)" /><path
   style="fill:#272525;fill-rule:nonzero"
   inkscape:connector-curvature="0"
   id="path21"
   d="m 2.588,11878 413,565 c 272,372 544,745 815,1117 l 240,329 h 205 l -199,-273 c -272,-372 -544,-745 -815,-1117 l -659,-902 z"
   class="fil3" /><polygon
   style="fill:#de593a;fill-rule:nonzero;fill-opacity:1"
   id="polygon23"
   points="11409,13384 11409,15278 3159,15278 1588,13126 1588,9850 1818,9933 3950,10700 6566,11642 "
   class="fil5"
   transform="translate(-1585.412,-1389)" /><path
   style="fill:#272525;fill-rule:nonzero"
   inkscape:connector-curvature="0"
   id="path25"
   d="m 1675.588,13889 c -383,-524 -765,-1048 -1148,-1572 l -525,-720 v 281 l 313,428 c 385,528 770,1055 1155,1583 z m -1673,-5339 364,131 c 469,169 939,338 1408,507 228,82 455,164 683,246 437,157 874,314 1311,472 386,139 772,278 1158,417 139,50 279,100 418,151 403,145 806,290 1209,435 519,187 1037,373 1556,560 468,169 937,337 1405,506 l 310,111 v -177 0 c -434,-156 -868,-312 -1302,-468 -520,-187 -1040,-374 -1560,-561 -446,-161 -892,-321 -1338,-482 -206,-74 -411,-148 -617,-222 -273,-98 -547,-197 -820,-295 -488,-176 -975,-351 -1463,-527 -200,-72 -400,-144 -601,-216 -481,-173 -963,-346 -1444,-520 l -675,-243 v 177 z"
   class="fil3" /><path
   style="fill:#df8bcb;fill-rule:nonzero;fill-opacity:1"
   inkscape:connector-curvature="0"
   id="path27"
   d="m 9823.588,12370 c -269,157 -648,255 -1068,255 -803,0 -1456,-358 -1477,-803 h -1 V 8860 h 2545 v 3510 z"
   class="fil6" /><path
   style="fill:#272525;fill-rule:nonzero"
   inkscape:connector-curvature="0"
   id="path29"
   d="m 9823.588,12273 c -181,115 -388,184 -598,225 -498,98 -1090,55 -1530,-220 -161,-101 -322,-255 -334,-456 -3,-45 -36,-83 -83,-83 0,0 0,0 -1,0 28,28 56,56 83,83 0,-329 0,-659 0,-988 0,-535 0,-1070 0,-1605 0,-123 0,-246 0,-369 -28,28 -56,56 -83,83 333,0 667,0 1001,0 h 1545 v -167 h -591 c -529,0 -1058,0 -1588,0 -122,0 -245,0 -367,0 -45,0 -83,38 -83,83 0,335 0,671 0,1006 0,531 0,1062 0,1593 0,121 0,242 0,363 0,45 38,83 83,83 0,0 0,0 1,0 -28,-28 -56,-56 -83,-83 30,501 613,749 1035,834 513,103 1123,72 1593,-189 v -194 z"
   class="fil3" /><path
   style="fill:#edbee2;fill-rule:nonzero;fill-opacity:1"
   inkscape:connector-curvature="0"
   id="path31"
   d="m 7277.588,8882 c 0,455 662,825 1478,825 420,0 799,-98 1068,-255 V 8312 c -269,-157 -648,-255 -1068,-255 -816,0 -1478,369 -1478,825 z"
   class="fil6" /><path
   style="fill:#272525;fill-rule:nonzero"
   inkscape:connector-curvature="0"
   id="path33"
   d="m 7194.588,8882 c 7,512 610,770 1033,855 315,64 641,69 958,18 219,-35 441,-99 638,-207 v -192 c -148,96 -320,157 -489,199 -277,69 -567,84 -851,54 -278,-29 -563,-106 -800,-257 -164,-105 -320,-264 -323,-470 -2,-107 -168,-107 -167,0 z m 2629,-666 c -130,-71 -272,-122 -413,-160 -311,-82 -642,-102 -961,-64 -311,37 -633,123 -893,305 -196,137 -358,336 -362,585 -2,107 165,107 167,0 3,-175 118,-319 252,-421 191,-145 426,-226 659,-274 504,-102 1108,-60 1552,222 v -194 z"
   class="fil3" /><polygon
   style="fill:#f8e670;fill-rule:nonzero"
   id="polygon35"
   points="3950,8059 1588,8059 1588,11567 3950,11567 "
   class="fil7"
   transform="translate(-1585.412,-1389)" /><path
   style="fill:#272525;fill-rule:nonzero"
   inkscape:connector-curvature="0"
   id="path37"
   d="m 2.588,10262 h 46 c 629,0 1257,0 1886,0 143,0 287,0 430,0 45,0 83,-38 83,-83 0,-396 0,-792 0,-1187 0,-630 0,-1260 0,-1890 0,-144 0,-287 0,-431 0,-45 -38,-83 -83,-83 -395,0 -790,0 -1185,0 h -1178 v 167 h 46 c 629,0 1257,0 1886,0 143,0 287,0 430,0 -28,-28 -56,-56 -83,-83 0,396 0,792 0,1187 0,630 0,1260 0,1890 0,144 0,287 0,431 28,-28 56,-56 83,-83 -395,0 -790,0 -1185,0 h -1178 v 167 z"
   class="fil3" /><polygon
   style="fill:#f8e670;fill-rule:nonzero"
   id="polygon39"
   points="3951,8059 1588,8059 1588,9618 5720,15278 9221,15278 "
   class="fil7"
   transform="translate(-1585.412,-1389)" /><path
   style="fill:#272525;fill-rule:nonzero"
   inkscape:connector-curvature="0"
   id="path41"
   d="m 7737.588,13889 -48,-65 c -238,-326 -476,-652 -714,-978 -329,-451 -658,-902 -988,-1353 -368,-503 -735,-1007 -1103,-1510 -354,-484 -707,-969 -1061,-1453 -284,-389 -569,-779 -853,-1168 -160,-220 -321,-440 -482,-660 -34,-46 -66,-109 -128,-115 -110,-11 -227,0 -338,0 -562,0 -1125,0 -1687,0 h -336 v 167 h 46 c 629,0 1257,0 1886,0 143,0 287,0 430,0 -24,-14 -48,-28 -72,-41 184,252 367,503 551,755 441,604 882,1208 1323,1812 530,727 1061,1453 1591,2180 461,631 922,1263 1383,1894 131,179 260,358 391,537 h 207 z m -7735,-5520 765,1049 c 368,503 735,1007 1103,1510 354,484 707,969 1061,1453 284,389 568,779 853,1168 l 248,339 h 205 c -108,-148 -216,-296 -324,-444 -441,-604 -882,-1208 -1323,-1812 -530,-727 -1061,-1453 -1591,-2180 -332,-455 -664,-910 -996,-1365 v 281 z"
   class="fil3" /><polygon
   style="fill:#e8ca0b;fill-rule:nonzero;fill-opacity:1"
   id="polygon43"
   points="3159,15278 1588,13126 1588,9618 1818,9933 3011,11567 5720,15278 "
   class="fil7"
   transform="translate(-1585.412,-1389)" /><path
   style="fill:#272525;fill-rule:nonzero"
   inkscape:connector-curvature="0"
   id="path45"
   d="m 1675.588,13889 c -347,-476 -695,-952 -1042,-1428 l -631,-864 v 281 l 223,305 c 361,495 723,990 1084,1485 l 161,221 z m -1673,-5520 1,1 c 345,472 689,944 1034,1416 236,324 472,647 709,971 498,683 997,1365 1495,2048 l 791,1083 h 205 c -222,-304 -444,-608 -666,-913 -511,-701 -1023,-1401 -1534,-2101 -232,-318 -465,-637 -697,-955 -362,-496 -724,-991 -1085,-1487 l -252,-345 v 281 z"
   class="fil3" />
</svg>