<?xml version="1.0" encoding="UTF-8" standalone="no"?>
<!-- Created with Inkscape (http://www.inkscape.org/) -->

<svg
   xmlns:dc="http://purl.org/dc/elements/1.1/"
   xmlns:cc="http://creativecommons.org/ns#"
   xmlns:rdf="http://www.w3.org/1999/02/22-rdf-syntax-ns#"
   xmlns:svg="http://www.w3.org/2000/svg"
   xmlns="http://www.w3.org/2000/svg"
   xmlns:xlink="http://www.w3.org/1999/xlink"
   xmlns:sodipodi="http://sodipodi.sourceforge.net/DTD/sodipodi-0.dtd"
   xmlns:inkscape="http://www.inkscape.org/namespaces/inkscape"
   width="94mm"
   height="41.346851mm"
   viewBox="0 0 94 41.346851"
   version="1.1"
   id="svg8"
   sodipodi:docname="bouncy2.svg"
   inkscape:version="0.92.3 (2405546, 2018-03-11)">
  <defs
     id="defs2">
    <marker
       inkscape:isstock="true"
       style="overflow:visible"
       id="marker3975"
       refX="0.0"
       refY="0.0"
       orient="auto"
       inkscape:stockid="StopM">
      <path
         transform="scale(0.4)"
         style="fill:none;fill-opacity:0.75;fill-rule:evenodd;stroke:#000000;stroke-width:1pt;stroke-opacity:1"
         d="M 0.0,5.65 L 0.0,-5.65"
         id="path3973" />
    </marker>
    <marker
       inkscape:isstock="true"
       style="overflow:visible"
       id="marker3815"
       refX="0.0"
       refY="0.0"
       orient="auto"
       inkscape:stockid="StopM">
      <path
         transform="scale(0.4)"
         style="fill:none;fill-opacity:0.75;fill-rule:evenodd;stroke:#000000;stroke-width:1pt;stroke-opacity:1"
         d="M 0.0,5.65 L 0.0,-5.65"
         id="path3813" />
    </marker>
    <marker
       inkscape:stockid="StopM"
       orient="auto"
       refY="0.0"
       refX="0.0"
       id="marker3167"
       style="overflow:visible"
       inkscape:isstock="true"
       inkscape:collect="always">
      <path
         id="path3165"
         d="M 0.0,5.65 L 0.0,-5.65"
         style="fill:none;fill-opacity:0.75;fill-rule:evenodd;stroke:#000000;stroke-width:1pt;stroke-opacity:1"
         transform="scale(0.4)" />
    </marker>
    <marker
       inkscape:stockid="StopM"
       orient="auto"
       refY="0.0"
       refX="0.0"
       id="StopM"
       style="overflow:visible"
       inkscape:isstock="true"
       inkscape:collect="always">
      <path
         id="path1296"
         d="M 0.0,5.65 L 0.0,-5.65"
         style="fill:none;fill-opacity:0.75;fill-rule:evenodd;stroke:#000000;stroke-width:1pt;stroke-opacity:1"
         transform="scale(0.4)" />
    </marker>
    <marker
       inkscape:stockid="TriangleOutM"
       orient="auto"
       refY="0"
       refX="0"
       id="marker1516"
       style="overflow:visible"
       inkscape:isstock="true">
      <path
         inkscape:connector-curvature="0"
         id="path1514"
         d="M 5.77,0 -2.88,5 V -5 Z"
         style="fill:#000000;fill-opacity:1;fill-rule:evenodd;stroke:#000000;stroke-width:1.00000003pt;stroke-opacity:1"
         transform="scale(0.4)" />
    </marker>
    <marker
       inkscape:stockid="TriangleInM"
       orient="auto"
       refY="0.0"
       refX="0.0"
       id="TriangleInM"
       style="overflow:visible"
       inkscape:isstock="true">
      <path
         id="path1260"
         d="M 5.77,0.0 L -2.88,5.0 L -2.88,-5.0 L 5.77,0.0 z "
         style="fill-rule:evenodd;stroke:#000000;stroke-width:1pt;stroke-opacity:1;fill:#000000;fill-opacity:1"
         transform="scale(-0.4)" />
    </marker>
    <linearGradient
       inkscape:collect="always"
       id="linearGradient6283">
      <stop
         style="stop-color:#176f1d;stop-opacity:1"
         offset="0"
         id="stop6279" />
      <stop
         style="stop-color:#176f1d;stop-opacity:0"
         offset="1"
         id="stop6281" />
    </linearGradient>
    <marker
       inkscape:isstock="true"
       style="overflow:visible"
       id="marker6201"
       refX="0"
       refY="0"
       orient="auto"
       inkscape:stockid="TriangleOutM"
       inkscape:collect="always">
      <path
         transform="scale(0.4)"
         style="fill:#000000;fill-opacity:1;fill-rule:evenodd;stroke:#000000;stroke-width:1.00000003pt;stroke-opacity:1"
         d="M 5.77,0 -2.88,5 V -5 Z"
         id="path6199"
         inkscape:connector-curvature="0" />
    </marker>
    <marker
       inkscape:isstock="true"
       style="overflow:visible"
       id="marker6191"
       refX="0"
       refY="0"
       orient="auto"
       inkscape:stockid="TriangleOutM">
      <path
         transform="scale(0.4)"
         style="fill:#000000;fill-opacity:1;fill-rule:evenodd;stroke:#000000;stroke-width:1.00000003pt;stroke-opacity:1"
         d="M 5.77,0 -2.88,5 V -5 Z"
         id="path6189"
         inkscape:connector-curvature="0" />
    </marker>
    <marker
       inkscape:isstock="true"
       style="overflow:visible"
       id="marker6115"
       refX="0"
       refY="0"
       orient="auto"
       inkscape:stockid="Arrow2Mend">
      <path
         transform="scale(-0.6)"
         d="M 8.7185878,4.0337352 -2.2072895,0.01601326 8.7185884,-4.0017078 c -1.7454984,2.3720609 -1.7354408,5.6174519 -6e-7,8.035443 z"
         style="fill:#000000;fill-opacity:1;fill-rule:evenodd;stroke:#000000;stroke-width:0.625;stroke-linejoin:round;stroke-opacity:1"
         id="path6113"
         inkscape:connector-curvature="0" />
    </marker>
    <marker
       inkscape:isstock="true"
       style="overflow:visible"
       id="marker6105"
       refX="0"
       refY="0"
       orient="auto"
       inkscape:stockid="Arrow2Mend">
      <path
         transform="scale(-0.6)"
         d="M 8.7185878,4.0337352 -2.2072895,0.01601326 8.7185884,-4.0017078 c -1.7454984,2.3720609 -1.7354408,5.6174519 -6e-7,8.035443 z"
         style="fill:#000000;fill-opacity:1;fill-rule:evenodd;stroke:#000000;stroke-width:0.625;stroke-linejoin:round;stroke-opacity:1"
         id="path6103"
         inkscape:connector-curvature="0" />
    </marker>
    <marker
       inkscape:stockid="TriangleOutM"
       orient="auto"
       refY="0"
       refX="0"
       id="TriangleOutM"
       style="overflow:visible"
       inkscape:isstock="true"
       inkscape:collect="always">
      <path
         id="path1010"
         d="M 5.77,0 -2.88,5 V -5 Z"
         style="fill:#000000;fill-opacity:1;fill-rule:evenodd;stroke:#000000;stroke-width:1.00000003pt;stroke-opacity:1"
         transform="scale(0.4)"
         inkscape:connector-curvature="0" />
    </marker>
    <marker
       inkscape:stockid="Arrow2Lend"
       orient="auto"
       refY="0"
       refX="0"
       id="Arrow2Lend"
       style="overflow:visible"
       inkscape:isstock="true">
      <path
         id="path886"
         style="fill:#000000;fill-opacity:1;fill-rule:evenodd;stroke:#000000;stroke-width:0.625;stroke-linejoin:round;stroke-opacity:1"
         d="M 8.7185878,4.0337352 -2.2072895,0.01601326 8.7185884,-4.0017078 c -1.7454984,2.3720609 -1.7354408,5.6174519 -6e-7,8.035443 z"
         transform="matrix(-1.1,0,0,-1.1,-1.1,0)"
         inkscape:connector-curvature="0" />
    </marker>
    <marker
       inkscape:stockid="Arrow1Mend"
       orient="auto"
       refY="0"
       refX="0"
       id="Arrow1Mend"
       style="overflow:visible"
       inkscape:isstock="true">
      <path
         id="path874"
         d="M 0,0 5,-5 -12.5,0 5,5 Z"
         style="fill:#000000;fill-opacity:1;fill-rule:evenodd;stroke:#000000;stroke-width:1.00000003pt;stroke-opacity:1"
         transform="matrix(-0.4,0,0,-0.4,-4,0)"
         inkscape:connector-curvature="0" />
    </marker>
    <marker
       inkscape:stockid="Arrow2Mend"
       orient="auto"
       refY="0"
       refX="0"
       id="marker1413-2"
       style="overflow:visible"
       inkscape:isstock="true">
      <path
         inkscape:connector-curvature="0"
         id="path1411-0"
         style="fill:#000000;fill-opacity:1;fill-rule:evenodd;stroke:#000000;stroke-width:0.625;stroke-linejoin:round;stroke-opacity:1"
         d="M 8.7185878,4.0337352 -2.2072895,0.01601326 8.7185884,-4.0017078 c -1.7454984,2.3720609 -1.7354408,5.6174519 -6e-7,8.035443 z"
         transform="scale(-0.6)" />
    </marker>
    <marker
       inkscape:stockid="Arrow2Mend"
       orient="auto"
       refY="0"
       refX="0"
       id="marker1413-6"
       style="overflow:visible"
       inkscape:isstock="true">
      <path
         inkscape:connector-curvature="0"
         id="path1411-9"
         style="fill:#000000;fill-opacity:1;fill-rule:evenodd;stroke:#000000;stroke-width:0.625;stroke-linejoin:round;stroke-opacity:1"
         d="M 8.7185878,4.0337352 -2.2072895,0.01601326 8.7185884,-4.0017078 c -1.7454984,2.3720609 -1.7354408,5.6174519 -6e-7,8.035443 z"
         transform="scale(-0.6)" />
    </marker>
    <linearGradient
       inkscape:collect="always"
       xlink:href="#linearGradient6283"
       id="linearGradient6285"
       x1="10"
       y1="117"
       x2="10"
       y2="123"
       gradientUnits="userSpaceOnUse"
       gradientTransform="matrix(1.0217392,0,0,1,-1.1956525,0)" />
    <marker
       inkscape:isstock="true"
       style="overflow:visible"
       id="marker6201-1"
       refX="0"
       refY="0"
       orient="auto"
       inkscape:stockid="TriangleOutM">
      <path
         inkscape:connector-curvature="0"
         transform="scale(0.4)"
         style="fill:#000000;fill-opacity:1;fill-rule:evenodd;stroke:#000000;stroke-width:1.00000003pt;stroke-opacity:1"
         d="M 5.77,0 -2.88,5 V -5 Z"
         id="path6199-3" />
    </marker>
    <marker
       inkscape:stockid="TriangleOutM"
       orient="auto"
       refY="0"
       refX="0"
       id="TriangleOutM-9"
       style="overflow:visible"
       inkscape:isstock="true"
       inkscape:collect="always">
      <path
         inkscape:connector-curvature="0"
         id="path1010-4"
         d="M 5.77,0 -2.88,5 V -5 Z"
         style="fill:#000000;fill-opacity:1;fill-rule:evenodd;stroke:#000000;stroke-width:1.00000003pt;stroke-opacity:1"
         transform="scale(0.4)" />
    </marker>
    <marker
       inkscape:isstock="true"
       style="overflow:visible"
       id="marker6191-9"
       refX="0"
       refY="0"
       orient="auto"
       inkscape:stockid="TriangleOutM">
      <path
         inkscape:connector-curvature="0"
         transform="scale(0.4)"
         style="fill:#000000;fill-opacity:1;fill-rule:evenodd;stroke:#000000;stroke-width:1.00000003pt;stroke-opacity:1"
         d="M 5.77,0 -2.88,5 V -5 Z"
         id="path6189-6" />
    </marker>
    <marker
       inkscape:isstock="true"
       style="overflow:visible"
       id="marker6201-7"
       refX="0"
       refY="0"
       orient="auto"
       inkscape:stockid="TriangleOutM">
      <path
         inkscape:connector-curvature="0"
         transform="scale(0.4)"
         style="fill:#000000;fill-opacity:1;fill-rule:evenodd;stroke:#000000;stroke-width:1.00000003pt;stroke-opacity:1"
         d="M 5.77,0 -2.88,5 V -5 Z"
         id="path6199-2" />
    </marker>
    <marker
       inkscape:stockid="TriangleOutM"
       orient="auto"
       refY="0"
       refX="0"
       id="TriangleOutM-2"
       style="overflow:visible"
       inkscape:isstock="true"
       inkscape:collect="always">
      <path
         id="path1010-6"
         d="M 5.77,0 -2.88,5 V -5 Z"
         style="fill:#000000;fill-opacity:1;fill-rule:evenodd;stroke:#000000;stroke-width:1.00000003pt;stroke-opacity:1"
         transform="scale(0.4)"
         inkscape:connector-curvature="0" />
    </marker>
    <marker
       inkscape:isstock="true"
       style="overflow:visible"
       id="marker6191-7"
       refX="0"
       refY="0"
       orient="auto"
       inkscape:stockid="TriangleOutM">
      <path
         transform="scale(0.4)"
         style="fill:#000000;fill-opacity:1;fill-rule:evenodd;stroke:#000000;stroke-width:1.00000003pt;stroke-opacity:1"
         d="M 5.77,0 -2.88,5 V -5 Z"
         id="path6189-1"
         inkscape:connector-curvature="0" />
    </marker>
    <marker
       inkscape:isstock="true"
       style="overflow:visible"
       id="marker6201-4"
       refX="0"
       refY="0"
       orient="auto"
       inkscape:stockid="TriangleOutM">
      <path
         transform="scale(0.4)"
         style="fill:#000000;fill-opacity:1;fill-rule:evenodd;stroke:#000000;stroke-width:1.00000003pt;stroke-opacity:1"
         d="M 5.77,0 -2.88,5 V -5 Z"
         id="path6199-4"
         inkscape:connector-curvature="0" />
    </marker>
    <marker
       inkscape:stockid="TriangleInM"
       orient="auto"
       refY="0"
       refX="0"
       id="TriangleInM-3"
       style="overflow:visible"
       inkscape:isstock="true">
      <path
         inkscape:connector-curvature="0"
         id="path1260-9"
         d="M 5.77,0 -2.88,5 V -5 Z"
         style="fill:#000000;fill-opacity:1;fill-rule:evenodd;stroke:#000000;stroke-width:1.00000003pt;stroke-opacity:1"
         transform="scale(-0.4)" />
    </marker>
    <marker
       inkscape:stockid="TriangleOutM"
       orient="auto"
       refY="0"
       refX="0"
       id="marker1516-4"
       style="overflow:visible"
       inkscape:isstock="true">
      <path
         inkscape:connector-curvature="0"
         id="path1514-9"
         d="M 5.77,0 -2.88,5 V -5 Z"
         style="fill:#000000;fill-opacity:1;fill-rule:evenodd;stroke:#000000;stroke-width:1.00000003pt;stroke-opacity:1"
         transform="scale(0.4)" />
    </marker>
    <marker
       inkscape:stockid="StopM"
       orient="auto"
       refY="0"
       refX="0"
       id="StopM-4"
       style="overflow:visible"
       inkscape:isstock="true">
      <path
         inkscape:connector-curvature="0"
         id="path1296-9"
         d="M 0,5.65 V -5.65"
         style="fill:none;fill-opacity:0.75;fill-rule:evenodd;stroke:#000000;stroke-width:1.00000003pt;stroke-opacity:1"
         transform="scale(0.4)" />
    </marker>
    <marker
       inkscape:stockid="StopM"
       orient="auto"
       refY="0"
       refX="0"
       id="marker3167-9"
       style="overflow:visible"
       inkscape:isstock="true">
      <path
         inkscape:connector-curvature="0"
         id="path3165-0"
         d="M 0,5.65 V -5.65"
         style="fill:none;fill-opacity:0.75;fill-rule:evenodd;stroke:#000000;stroke-width:1.00000003pt;stroke-opacity:1"
         transform="scale(0.4)" />
    </marker>
  </defs>
  <sodipodi:namedview
     id="base"
     pagecolor="#ffffff"
     bordercolor="#666666"
     borderopacity="1.0"
     inkscape:pageopacity="0.0"
     inkscape:pageshadow="2"
     inkscape:zoom="1.8101934"
     inkscape:cx="153.50295"
     inkscape:cy="95.228957"
     inkscape:document-units="mm"
     inkscape:current-layer="layer1"
     showgrid="true"
     inkscape:object-paths="true"
     inkscape:snap-object-midpoints="true"
     inkscape:snap-to-guides="true"
     showguides="true"
     inkscape:snap-bbox="true"
     inkscape:snap-intersection-paths="true"
     inkscape:snap-global="true"
     inkscape:window-width="1218"
     inkscape:window-height="1001"
     inkscape:window-x="54"
     inkscape:window-y="-8"
     inkscape:window-maximized="1"
     fit-margin-top="0"
     fit-margin-left="0"
     fit-margin-right="0"
     fit-margin-bottom="0"
     inkscape:snap-others="false"
     inkscape:snap-grids="true">
    <inkscape:grid
       type="xygrid"
       id="grid823"
       originx="-7.9999982"
       originy="-173.99999" />
  </sodipodi:namedview>
  <metadata
     id="metadata5">
    <rdf:RDF>
      <cc:Work
         rdf:about="">
        <dc:format>image/svg+xml</dc:format>
        <dc:type
           rdf:resource="http://purl.org/dc/dcmitype/StillImage" />
        <dc:title></dc:title>
      </cc:Work>
    </rdf:RDF>
  </metadata>
  <g
     inkscape:label="Layer 1"
     inkscape:groupmode="layer"
     id="layer1"
     transform="translate(-7.9999997,-81.653147)">
    <path
       style="opacity:1;vector-effect:none;fill:url(#linearGradient6285);fill-opacity:1;stroke:none;stroke-width:1.01081109;stroke-linecap:round;stroke-linejoin:round;stroke-miterlimit:4;stroke-dasharray:none;stroke-dashoffset:0;stroke-opacity:1"
       d="M 8.0000035,117 H 102 c 0,0 0,0 0,0 v 6 c 0,0 0,0 0,0 H 8.0000035 c -2.1e-6,0 -3.8e-6,0 -3.8e-6,0 v -6 c 0,0 1.7e-6,0 3.8e-6,0 z"
       id="rect6271"
       inkscape:connector-curvature="0" />
    <path
       style="fill:none;stroke:#7f7f7f;stroke-width:0.30000001;stroke-linecap:butt;stroke-linejoin:miter;stroke-miterlimit:4;stroke-dasharray:0.6, 0.3;stroke-dashoffset:0;stroke-opacity:1"
       d="M 10,117 C 20,77 30,77 39.999999,117"
       id="path825"
       inkscape:connector-curvature="0"
       sodipodi:nodetypes="cc" />
    <path
       style="fill:none;stroke:#7f7f7f;stroke-width:0.30000001;stroke-linecap:butt;stroke-linejoin:miter;stroke-miterlimit:4;stroke-dasharray:0.6, 0.3;stroke-dashoffset:0;stroke-opacity:1"
       d="M 40,117 C 50,76.999999 60,76.999999 70,117"
       id="path825-2"
       inkscape:connector-curvature="0"
       sodipodi:nodetypes="cc" />
    <path
       style="fill:none;stroke:#7f7f7f;stroke-width:0.30000001;stroke-linecap:butt;stroke-linejoin:miter;stroke-miterlimit:4;stroke-dasharray:0.6, 0.3;stroke-dashoffset:0;stroke-opacity:1"
       d="m 70,117 c 10,-40.000001 20,-40.000001 30,0"
       id="path825-7"
       inkscape:connector-curvature="0"
       sodipodi:nodetypes="cc" />
    <path
       sodipodi:nodetypes="cc"
       inkscape:connector-curvature="0"
       id="path1367"
       d="M 9.9999995,117 V 91.832704"
       style="fill:none;stroke:#000000;stroke-width:0.26499999;stroke-linecap:butt;stroke-linejoin:miter;stroke-miterlimit:4;stroke-dasharray:none;stroke-opacity:1;marker-end:url(#marker6201)" />
    <path
       style="fill:none;stroke:#000000;stroke-width:0.26458332px;stroke-linecap:butt;stroke-linejoin:miter;stroke-opacity:1;marker-end:url(#marker6191)"
       d="M 9.9999995,117 H 16.330722"
       id="path1409-1"
       inkscape:connector-curvature="0"
       sodipodi:nodetypes="cc" />
    <path
       style="fill:none;stroke:#000000;stroke-width:0.26458332px;stroke-linecap:butt;stroke-linejoin:miter;stroke-opacity:1;marker-end:url(#TriangleOutM)"
       d="M 9.9999995,117 16.330722,91.832704"
       id="path850"
       inkscape:connector-curvature="0"
       sodipodi:nodetypes="cc" />
    <path
       style="opacity:1;vector-effect:none;fill:#ff0000;fill-opacity:1;stroke:none;stroke-width:0.1;stroke-linecap:round;stroke-linejoin:round;stroke-miterlimit:4;stroke-dasharray:none;stroke-dashoffset:0;stroke-opacity:1"
       d="m 11.381149,117.00001 a 1.3811488,1.3811488 0 0 1 -1.3811495,1.38114 1.3811488,1.3811488 0 0 1 -1.381148,-1.38114 1.3811488,1.3811488 0 0 1 1.381148,-1.38116 1.3811488,1.3811488 0 0 1 1.3811495,1.38116 z"
       id="path848"
       inkscape:connector-curvature="0" />
    <path
       sodipodi:nodetypes="cc"
       inkscape:connector-curvature="0"
       id="path1367-2"
       d="M 50.346908,95.479663 V 112.31448"
       style="fill:none;stroke:#000000;stroke-width:0.26499999;stroke-linecap:butt;stroke-linejoin:miter;stroke-miterlimit:4;stroke-dasharray:none;stroke-opacity:1;marker-end:url(#marker6201-1)" />
    <g
       aria-label="g"
       style="font-style:normal;font-variant:normal;font-weight:normal;font-stretch:normal;font-size:7.76111126px;line-height:1.25;font-family:'CMU Classical Serif';-inkscape-font-specification:'CMU Classical Serif';text-align:center;letter-spacing:0px;word-spacing:0px;text-anchor:middle;fill:#000000;fill-opacity:1;stroke:none;stroke-width:0.26458332"
       id="text6871">
      <path
         d="m 51.669219,105.17916 q 0,-0.0806 0.05994,-0.15296 0.05995,-0.0703 0.148828,-0.0703 0.06821,0 0.10542,0.0393 0.03721,0.0393 0.03721,0.0992 0,0.12609 -0.134359,0.19017 0.121957,0.0475 0.303858,0.0475 0.210839,0 0.345198,-0.13849 0.134359,-0.13643 0.192237,-0.28525 0.05994,-0.14056 0.152962,-0.57671 -0.241846,0.22531 -0.452686,0.22531 -0.229443,0 -0.374137,-0.18397 -0.142627,-0.18397 -0.142627,-0.46302 0,-0.45682 0.305924,-0.83923 0.307992,-0.38447 0.655258,-0.38447 0.214973,0 0.359667,0.24185 0.03307,-0.15297 0.165365,-0.15297 0.05168,0 0.08268,0.0289 0.03101,0.0289 0.03101,0.0806 0,0.0207 -0.0083,0.0558 l -0.452686,1.81487 q -0.04134,0.15297 -0.05374,0.18604 -0.07648,0.17363 -0.283187,0.33073 -0.204639,0.15709 -0.522965,0.15709 -0.520899,0 -0.520899,-0.25011 z m 0.535368,-1.08314 q 0,0.14056 0.05374,0.25218 0.05581,0.11162 0.181901,0.11162 0.214974,0 0.440283,-0.30592 0.05581,-0.0765 0.07648,-0.13849 0.0124,-0.0372 0.181901,-0.71107 0.02894,-0.10955 0.02894,-0.14469 0,-0.0972 -0.07235,-0.23565 -0.07028,-0.14056 -0.219108,-0.14056 -0.181901,0 -0.359668,0.25012 -0.136426,0.19016 -0.22531,0.54156 -0.08682,0.3514 -0.08682,0.5209 z"
         style="font-size:4.23333311px;stroke-width:0.26458332"
         id="path1027"
         inkscape:connector-curvature="0" />
    </g>
    <g
       aria-label="p"
       style="font-style:normal;font-variant:normal;font-weight:normal;font-stretch:normal;font-size:7.76111126px;line-height:1.25;font-family:'CMU Classical Serif';-inkscape-font-specification:'CMU Classical Serif';text-align:center;letter-spacing:0px;word-spacing:0px;text-anchor:middle;fill:#000000;fill-opacity:1;stroke:none;stroke-width:0.26458332"
       id="text6875"
       transform="translate(-1.7676974,20.300547)">
      <path
         d="m 13.339901,95.549616 q 0,-0.06821 0.113688,-0.07441 0.113688,-0.0062 0.152962,-0.04961 0.02067,-0.02894 0.06201,-0.169499 l 0.463021,-1.862419 q 0.03307,-0.12609 0.03307,-0.173632 0,-0.06408 -0.07441,-0.07442 -0.07441,-0.01033 -0.150895,-0.01447 -0.07441,-0.0041 -0.07441,-0.05374 0,-0.05581 0.06615,-0.07235 0.06821,-0.01654 0.305925,-0.02894 0.03721,-0.02067 0.113688,-0.02274 h 0.03514 q 0.06821,0 0.09508,0.0124 0.02687,0.01034 0.02687,0.04754 0,0.0083 -0.0248,0.109554 0.233577,-0.214974 0.444417,-0.214974 0.233577,0 0.374137,0.186035 0.142627,0.186035 0.142627,0.473356 0,0.469222 -0.310058,0.868164 -0.307992,0.398942 -0.665593,0.398942 -0.219108,0 -0.359668,-0.237711 -0.01654,0.07648 -0.06821,0.272851 -0.04961,0.196371 -0.08888,0.353467 -0.03721,0.157096 -0.03721,0.177767 0,0.07235 0.14056,0.07441 0.142627,0.0021 0.16123,0.03101 0.0083,0.01654 0.0083,0.0248 0,0.02481 -0.02687,0.04754 -0.02481,0.0248 -0.06201,0.0248 -0.02067,0 -0.14056,-0.0041 -0.117822,-0.0041 -0.258382,-0.0041 -0.08475,0 -0.183968,0.0021 -0.09922,0.0021 -0.119889,0.0021 -0.05581,0 -0.07441,-0.01033 -0.0186,-0.01034 -0.0186,-0.03927 z m 0.841292,-1.207161 q 0,0.05581 0.02067,0.136425 0.02274,0.07855 0.09302,0.163298 0.07235,0.08475 0.173633,0.08475 0.157097,0 0.291455,-0.165364 0.136426,-0.167432 0.214974,-0.401009 0.07855,-0.233578 0.121957,-0.444418 0.04547,-0.21084 0.04547,-0.334863 0,-0.173633 -0.06201,-0.270785 -0.05994,-0.09715 -0.165364,-0.09715 -0.22531,0 -0.463021,0.343131 -0.04134,0.06821 -0.07235,0.177767 -0.0083,0.01654 -0.181901,0.711068 -0.01654,0.08475 -0.01654,0.09715 z"
         style="font-size:4.23333311px;stroke-width:0.26458332"
         id="path1024"
         inkscape:connector-curvature="0" />
    </g>
    <g
       aria-label="v"
       style="font-style:normal;font-variant:normal;font-weight:normal;font-stretch:normal;font-size:7.76111126px;line-height:1.25;font-family:'CMU Classical Serif';-inkscape-font-specification:'CMU Classical Serif';text-align:center;letter-spacing:0px;word-spacing:0px;text-anchor:middle;fill:#000000;fill-opacity:1;stroke:none;stroke-width:0.26458332"
       id="text6879"
       transform="translate(-11.95356,7.6890131)">
      <path
         d="m 26.002589,81.072479 q 0,-0.05168 0.04547,-0.06615 0.04754,-0.01447 0.229444,-0.02687 0.12609,-0.0083 0.212907,-0.0186 l 0.0248,-0.0041 q 0.02894,-0.0041 0.05168,-0.0041 0.08062,0 0.08062,0.05581 0,0.03307 -0.05581,0.241845 -0.02894,0.09302 -0.06821,0.113688 -0.241846,0.791683 -0.241846,1.014925 0,0.194304 0.08268,0.270785 0.08268,0.07648 0.194304,0.07648 0.16123,0 0.30179,-0.157096 0.142627,-0.159164 0.219108,-0.372071 0.07855,-0.214974 0.119889,-0.39274 0.04341,-0.177767 0.04341,-0.254248 0,-0.126091 -0.04341,-0.212907 -0.04134,-0.08682 -0.08475,-0.136426 -0.04134,-0.05168 -0.04134,-0.09922 0,-0.08061 0.06615,-0.136426 0.06614,-0.05788 0.132291,-0.05788 0.06821,0 0.121957,0.06615 0.05374,0.06408 0.05374,0.217041 0,0.07235 -0.02687,0.241845 -0.0248,0.169499 -0.09508,0.413412 -0.07028,0.241845 -0.165365,0.458886 -0.09508,0.214974 -0.260449,0.367937 -0.163298,0.152962 -0.359668,0.152962 -0.202572,0 -0.361735,-0.115755 -0.159163,-0.117823 -0.159163,-0.392741 0,-0.130225 0.07028,-0.398942 0.07028,-0.270785 0.138492,-0.489893 0.06821,-0.221175 0.06821,-0.233577 0,-0.06408 -0.142627,-0.06408 -0.0021,0 -0.0041,0.0021 -0.0021,0 -0.0041,0 -0.142627,0 -0.142627,-0.05994 z"
         style="font-size:4.23333311px;stroke-width:0.26458332"
         id="path1021"
         inkscape:connector-curvature="0" />
    </g>
    <path
       inkscape:connector-curvature="0"
       id="path1016"
       style="font-style:normal;font-variant:normal;font-weight:normal;font-stretch:normal;font-size:medium;line-height:1.25;font-family:'CMU Classical Serif';-inkscape-font-specification:'CMU Classical Serif';text-align:center;letter-spacing:0px;word-spacing:0px;text-anchor:middle;fill:#000000;fill-opacity:1;stroke:none;stroke-width:0.26458332"
       d="m 16.44646,113.67882 q 0,-0.0517 0.04548,-0.0662 0.04754,-0.0145 0.229443,-0.0269 0.126091,-0.008 0.212907,-0.0186 l 0.02481,-0.004 q 0.02894,-0.004 0.05168,-0.004 0.08061,0 0.08061,0.0558 0,0.0331 -0.05581,0.24184 -0.02894,0.093 -0.06821,0.11369 -0.241846,0.79168 -0.241846,1.01492 0,0.19431 0.08268,0.27079 0.08268,0.0765 0.194304,0.0765 0.16123,0 0.30179,-0.1571 0.142627,-0.15916 0.219108,-0.37207 0.07855,-0.21497 0.11989,-0.39274 0.04341,-0.17777 0.04341,-0.25425 0,-0.12609 -0.04341,-0.2129 -0.04134,-0.0868 -0.08475,-0.13643 -0.04134,-0.0517 -0.04134,-0.0992 0,-0.0806 0.06615,-0.13642 0.06615,-0.0579 0.132292,-0.0579 0.06821,0 0.121956,0.0661 0.05374,0.0641 0.05374,0.21704 0,0.0724 -0.02687,0.24184 -0.02481,0.1695 -0.09509,0.41341 -0.07028,0.24185 -0.165365,0.45889 -0.09508,0.21497 -0.260449,0.36794 -0.163297,0.15296 -0.359668,0.15296 -0.202571,0 -0.361735,-0.11576 -0.159163,-0.11782 -0.159163,-0.39274 0,-0.13022 0.07028,-0.39894 0.07028,-0.27078 0.138493,-0.48989 0.06821,-0.22118 0.06821,-0.23358 0,-0.0641 -0.142627,-0.0641 -0.0021,0 -0.0041,0.002 -0.0021,0 -0.0041,0 -0.142627,0 -0.142627,-0.0599 z" />
    <path
       inkscape:connector-curvature="0"
       id="path1018"
       style="font-style:normal;font-variant:normal;font-weight:normal;font-stretch:normal;font-size:2.75166631px;line-height:1.25;font-family:'CMU Classical Serif';-inkscape-font-specification:'CMU Classical Serif';text-align:center;letter-spacing:0px;word-spacing:0px;baseline-shift:sub;text-anchor:middle;fill:#000000;fill-opacity:1;stroke:none;stroke-width:0.26458332"
       d="m 18.928634,116.08838 q 0,-0.0578 0.03628,-0.10211 0.03762,-0.0443 0.09539,-0.0443 0.04165,0 0.06718,0.0269 0.02553,0.0255 0.02553,0.0645 0,0.0941 -0.106144,0.12899 0.06046,0.0349 0.116892,0.0349 0.0027,0 0.004,0 0.04434,0 0.08062,-0.0188 0.03762,-0.0188 0.06718,-0.0631 0.0309,-0.0443 0.05106,-0.086 0.0215,-0.043 0.04434,-0.12361 0.02284,-0.082 0.03628,-0.13705 0.01478,-0.0551 0.03896,-0.16123 0.02553,-0.10614 0.03896,-0.16661 0.03359,-0.14645 0.03359,-0.18675 0,-0.0793 -0.03762,-0.12765 -0.03762,-0.0484 -0.09808,-0.0484 -0.09405,0 -0.180041,0.09 -0.08599,0.0887 -0.135702,0.22841 -0.0027,0.005 -0.0054,0.0175 -0.0027,0.0108 -0.0067,0.0148 -0.0027,0.004 -0.0067,0.0134 -0.004,0.009 -0.0094,0.0148 -0.0054,0.004 -0.01209,0.007 -0.0067,0.003 -0.01747,0.003 -0.03897,0 -0.03897,-0.0363 0,-0.0443 0.04568,-0.13704 0.04568,-0.094 0.147795,-0.18542 0.103456,-0.0927 0.227066,-0.0927 h 0.0027 q 0.184072,0.003 0.264687,0.18945 0.1048,-0.18945 0.270061,-0.18945 0.08465,0 0.159887,0.0443 0.07658,0.043 0.07658,0.12899 0,0.0632 -0.04165,0.1048 -0.04165,0.0403 -0.09405,0.0403 -0.03896,0 -0.06449,-0.0242 -0.02553,-0.0255 -0.02553,-0.0631 0,-0.0417 0.02687,-0.0779 0.02822,-0.0376 0.07793,-0.0511 -0.0524,-0.039 -0.118236,-0.039 -0.03628,0 -0.07255,0.0148 -0.03493,0.0148 -0.08868,0.0927 -0.05374,0.0766 -0.08733,0.20825 -0.02418,0.0967 -0.04837,0.19617 -0.02284,0.0994 -0.03493,0.14779 -0.01209,0.047 -0.02687,0.0994 -0.01344,0.0524 -0.01747,0.0752 -0.004,0.0215 -0.0081,0.047 -0.004,0.0242 -0.0054,0.0363 -0.0013,0.0121 -0.0013,0.0309 0,0.0739 0.03493,0.12227 0.03628,0.0484 0.09943,0.0484 0.09405,0 0.181384,-0.0887 0.08868,-0.09 0.135702,-0.22976 0.0027,-0.005 0.0067,-0.0161 0.004,-0.0121 0.0054,-0.0175 0.0013,-0.005 0.0054,-0.0134 0.004,-0.008 0.0094,-0.0121 0.0054,-0.004 0.01209,-0.007 0.0081,-0.003 0.01881,-0.003 0.03896,0 0.03762,0.0349 0,0.0443 -0.04568,0.13839 -0.04434,0.0927 -0.149138,0.18542 -0.1048,0.0927 -0.225723,0.0927 -0.07658,0 -0.151825,-0.043 -0.0739,-0.043 -0.112861,-0.14511 -0.03628,0.0524 -0.0618,0.0846 -0.02553,0.0309 -0.08465,0.0672 -0.05912,0.0363 -0.124954,0.0363 -0.09136,0 -0.163918,-0.0457 -0.07255,-0.0457 -0.07255,-0.12764 z" />
    <path
       inkscape:connector-curvature="0"
       id="path1011"
       style="font-style:normal;font-variant:normal;font-weight:normal;font-stretch:normal;font-size:medium;line-height:1.25;font-family:'CMU Classical Serif';-inkscape-font-specification:'CMU Classical Serif';text-align:center;letter-spacing:0px;word-spacing:0px;text-anchor:middle;fill:#000000;fill-opacity:1;stroke:none;stroke-width:0.26458332"
       d="m 8.4517331,88.477273 q 0,-0.05168 0.04548,-0.06615 0.04754,-0.01447 0.2294434,-0.02687 0.12609,-0.0083 0.212907,-0.0186 l 0.0248,-0.0041 q 0.02894,-0.0041 0.05168,-0.0041 0.08061,0 0.08061,0.05581 0,0.03307 -0.05581,0.241846 -0.02894,0.09302 -0.06821,0.113688 -0.241846,0.791683 -0.241846,1.014925 0,0.194303 0.08268,0.270784 0.08268,0.07648 0.194304,0.07648 0.16123,0 0.30179,-0.157097 0.142627,-0.159163 0.219108,-0.37207 0.07855,-0.214974 0.119889,-0.392741 0.04341,-0.177767 0.04341,-0.254248 0,-0.12609 -0.04341,-0.212907 -0.04134,-0.08682 -0.08475,-0.136426 -0.04134,-0.05168 -0.04134,-0.09922 0,-0.08062 0.06615,-0.136426 0.06615,-0.05788 0.132291,-0.05788 0.06821,0 0.121957,0.06615 0.05374,0.06408 0.05374,0.217041 0,0.07235 -0.02687,0.241846 -0.02481,0.169498 -0.09509,0.413411 -0.07028,0.241846 -0.165365,0.458887 -0.09508,0.214974 -0.260449,0.367936 -0.163297,0.152962 -0.359668,0.152962 -0.202571,0 -0.3617354,-0.115755 -0.159163,-0.117822 -0.159163,-0.392741 0,-0.130224 0.07028,-0.398942 0.07028,-0.270784 0.138493,-0.489892 0.06821,-0.221175 0.06821,-0.233578 0,-0.06408 -0.1426274,-0.06408 -0.0021,0 -0.0041,0.0021 -0.0021,0 -0.0041,0 -0.142627,0 -0.142627,-0.05994 z" />
    <path
       inkscape:connector-curvature="0"
       id="path1013"
       style="font-style:normal;font-variant:normal;font-weight:normal;font-stretch:normal;font-size:2.75166631px;line-height:1.25;font-family:'CMU Classical Serif';-inkscape-font-specification:'CMU Classical Serif';text-align:center;letter-spacing:0px;word-spacing:0px;baseline-shift:sub;text-anchor:middle;fill:#000000;fill-opacity:1;stroke:none;stroke-width:0.26458332"
       d="m 11.313303,91.357097 q 0,-0.08465 0.04165,-0.127641 0.04299,-0.043 0.09539,-0.043 0.04165,0 0.06718,0.02419 0.02687,0.02553 0.02687,0.06315 0,0.04165 -0.03225,0.08599 -0.0309,0.04434 -0.10883,0.04703 0.04702,0.126297 0.173323,0.126297 0.12361,0 0.233784,-0.116892 0.110174,-0.116892 0.17601,-0.321118 0.01344,-0.04434 0.03628,-0.137045 -0.120923,0.102112 -0.24722,0.102112 -0.12361,0 -0.216318,-0.07121 -0.09271,-0.07255 -0.09271,-0.245876 0,-0.09136 0.04568,-0.268718 0.04568,-0.177353 0.09136,-0.321117 0.04568,-0.145108 0.04568,-0.155856 0,-0.02687 -0.03762,-0.03359 -0.03762,-0.0081 -0.08465,-0.0081 -0.04568,0 -0.05777,-0.0081 -0.02418,-0.01612 -0.0054,-0.0524 0.01344,-0.0215 0.06046,-0.02687 0.275435,-0.02418 0.306338,-0.02553 h 0.0027 q 0.04165,0 0.04031,0.03628 0,0.02419 -0.03225,0.1572 -0.01881,0.06046 -0.04434,0.0739 -0.162574,0.545496 -0.162574,0.679855 0,0.205569 0.150482,0.205569 0,0 0.0013,0 0.09405,0 0.173323,-0.07121 0.07927,-0.07121 0.1048,-0.134359 0.0054,-0.01612 0.01209,-0.04434 0.0067,-0.02956 0.0094,-0.04165 l 0.181384,-0.717476 0.0027,-0.01344 q 0.0027,-0.01344 0.0054,-0.02284 0.004,-0.01075 0.0094,-0.02687 0.0054,-0.01747 0.01478,-0.02956 0.0094,-0.01209 0.02015,-0.02284 0.01075,-0.01075 0.02687,-0.01747 0.01747,-0.0081 0.03628,-0.0081 0.0309,0 0.0524,0.0215 0.02284,0.02015 0.02284,0.05374 0,0.0081 -0.004,0.02419 -0.004,0.01612 -0.004,0.01881 l -0.253938,1.015752 q -0.03896,0.151825 -0.1048,0.268717 -0.06583,0.116892 -0.134358,0.180041 -0.06852,0.06315 -0.147795,0.1048 -0.07793,0.04165 -0.131671,0.0524 -0.05374,0.01075 -0.100769,0.01075 -0.115549,0 -0.189446,-0.06584 -0.0739,-0.06584 -0.0739,-0.173323 z" />
    <g
       aria-label="t"
       style="font-style:normal;font-variant:normal;font-weight:normal;font-stretch:normal;font-size:4.23333311px;line-height:1.25;font-family:'CMU Classical Serif';-inkscape-font-specification:'CMU Classical Serif';text-align:center;letter-spacing:0px;word-spacing:0px;text-anchor:middle;fill:#000000;fill-opacity:1;stroke:none;stroke-width:0.26458332"
       id="text7045"
       transform="translate(-0.63330994,6.1663178)">
      <path
         d="m 87.263391,113.31108 q 0,-0.0724 0.09302,-0.0724 0.02067,0 0.06408,-0.002 0.04341,-0.002 0.06408,-0.002 0.04134,0 0.124023,0.002 0.08268,0.002 0.126091,0.002 l 0.150895,-0.61392 q 0.0124,-0.0517 0.01654,-0.0599 0.0062,-0.0103 0.0186,-0.0331 0.0124,-0.0248 0.03101,-0.0269 0.0186,-0.002 0.05374,-0.002 h 0.07648 q 0.09302,0 0.09302,0.0558 0,0.0723 -0.165365,0.68006 h 0.347266 q 0.08888,0 0.08888,0.0558 0,0.0475 -0.03514,0.062 -0.03307,0.0145 -0.117822,0.0145 h -0.06821 q -0.04134,0 -0.124023,-0.002 -0.08268,-0.002 -0.126091,-0.002 -0.0083,0.0248 -0.02067,0.0847 -0.0124,0.0579 -0.02067,0.0847 l -0.254248,1.02732 q -0.04754,0.19431 -0.04548,0.27699 0,0.16743 0.115755,0.16743 0,0 0.0021,0 0.279053,0 0.496094,-0.54157 0.02067,-0.0558 0.07441,-0.0537 0.05581,0 0.05581,0.0455 0,0.11369 -0.190169,0.38241 -0.190169,0.26665 -0.448551,0.26665 -0.161231,0 -0.260449,-0.10749 -0.09922,-0.10955 -0.09922,-0.27492 0,-0.0889 0.02894,-0.18603 l 0.291455,-1.17202 H 87.35644 q -0.09302,0 -0.09302,-0.0558 z"
         style="stroke-width:0.26458332"
         id="path1007"
         inkscape:connector-curvature="0" />
    </g>
    <g
       aria-label="t"
       style="font-style:normal;font-variant:normal;font-weight:normal;font-stretch:normal;font-size:4.23333311px;line-height:1.25;font-family:'CMU Classical Serif';-inkscape-font-specification:'CMU Classical Serif';text-align:center;letter-spacing:0px;word-spacing:0px;text-anchor:middle;fill:#000000;fill-opacity:1;stroke:none;stroke-width:0.26458332"
       id="text7084"
       transform="translate(-7.0544882,6.6366971)">
      <path
         d="m 17.136756,113.30766 q 0,-0.0724 0.09302,-0.0724 0.02067,0 0.06408,-0.002 0.04341,-0.002 0.06408,-0.002 0.04134,0 0.124024,0.002 0.08268,0.002 0.12609,0.002 l 0.150895,-0.61391 q 0.0124,-0.0517 0.01654,-0.06 0.0062,-0.0103 0.0186,-0.0331 0.0124,-0.0248 0.03101,-0.0269 0.0186,-0.002 0.05374,-0.002 h 0.07648 q 0.09302,0 0.09302,0.0558 0,0.0724 -0.165364,0.68006 h 0.347265 q 0.08888,0 0.08888,0.0558 0,0.0475 -0.03514,0.062 -0.03307,0.0145 -0.117822,0.0145 h -0.06821 q -0.04134,0 -0.124024,-0.002 -0.08268,-0.002 -0.12609,-0.002 -0.0083,0.0248 -0.02067,0.0847 -0.0124,0.0579 -0.02067,0.0847 l -0.254248,1.02733 q -0.04754,0.1943 -0.04548,0.27698 0,0.16743 0.115755,0.16743 0,0 0.0021,0 0.279052,0 0.496093,-0.54157 0.02067,-0.0558 0.07441,-0.0537 0.05581,0 0.05581,0.0455 0,0.11368 -0.190169,0.3824 -0.19017,0.26665 -0.448552,0.26665 -0.16123,0 -0.260449,-0.10749 -0.09922,-0.10955 -0.09922,-0.27491 0,-0.0889 0.02894,-0.18604 l 0.291455,-1.17202 h -0.343131 q -0.09302,0 -0.09302,-0.0558 z"
         style="stroke-width:0.26458332"
         id="path1004"
         inkscape:connector-curvature="0" />
    </g>
    <path
       sodipodi:nodetypes="cc"
       inkscape:connector-curvature="0"
       id="path1367-6"
       d="m 88.405082,88.545943 v 5.969602"
       style="fill:none;stroke:#000000;stroke-width:0.26499999;stroke-linecap:butt;stroke-linejoin:miter;stroke-miterlimit:4;stroke-dasharray:none;stroke-opacity:1;marker-end:url(#marker6201-7)" />
    <path
       style="fill:none;stroke:#000000;stroke-width:0.26458332px;stroke-linecap:butt;stroke-linejoin:miter;stroke-opacity:1;marker-end:url(#marker6191-9)"
       d="m 88.405082,88.545943 h 6.330723"
       id="path1409-1-4"
       inkscape:connector-curvature="0"
       sodipodi:nodetypes="cc" />
    <g
       aria-label="p"
       style="font-style:normal;font-variant:normal;font-weight:normal;font-stretch:normal;font-size:7.76111126px;line-height:1.25;font-family:'CMU Classical Serif';-inkscape-font-specification:'CMU Classical Serif';text-align:center;letter-spacing:0px;word-spacing:0px;text-anchor:middle;fill:#000000;fill-opacity:1;stroke:none;stroke-width:0.26458332"
       id="text6875-8">
      <path
         d="m 85.905594,86.154009 q 0,-0.06821 0.113688,-0.07441 0.113688,-0.0062 0.152962,-0.04961 0.02067,-0.02894 0.06201,-0.169499 l 0.463021,-1.862419 q 0.03307,-0.12609 0.03307,-0.173632 0,-0.06408 -0.07441,-0.07442 -0.07441,-0.01033 -0.150895,-0.01447 -0.07442,-0.0041 -0.07442,-0.05374 0,-0.05581 0.06615,-0.07235 0.06821,-0.01654 0.305925,-0.02894 0.03721,-0.02067 0.113688,-0.02274 h 0.03514 q 0.06821,0 0.09508,0.0124 0.02687,0.01034 0.02687,0.04754 0,0.0083 -0.0248,0.109554 0.233577,-0.214974 0.444417,-0.214974 0.233577,0 0.374137,0.186035 0.142627,0.186035 0.142627,0.473356 0,0.469222 -0.310058,0.868164 -0.307992,0.398942 -0.665593,0.398942 -0.219108,0 -0.359668,-0.237711 -0.01654,0.07648 -0.06821,0.272851 -0.04961,0.196371 -0.08888,0.353467 -0.03721,0.157096 -0.03721,0.177767 0,0.07235 0.14056,0.07441 0.142627,0.0021 0.16123,0.03101 0.0083,0.01654 0.0083,0.0248 0,0.02481 -0.02687,0.04754 -0.02481,0.0248 -0.06201,0.0248 -0.02067,0 -0.14056,-0.0041 -0.117822,-0.0041 -0.258382,-0.0041 -0.08475,0 -0.183968,0.0021 -0.09922,0.0021 -0.11989,0.0021 -0.05581,0 -0.07441,-0.01034 -0.0186,-0.01033 -0.0186,-0.03927 z m 0.841292,-1.207161 q 0,0.05581 0.02067,0.136425 0.02274,0.07855 0.09302,0.163298 0.07235,0.08475 0.173633,0.08475 0.157096,0 0.291455,-0.165364 0.136426,-0.167432 0.214974,-0.401009 0.07855,-0.233578 0.121957,-0.444418 0.04547,-0.21084 0.04547,-0.334863 0,-0.173633 -0.06201,-0.270785 -0.05994,-0.09715 -0.165365,-0.09715 -0.225309,0 -0.46302,0.343131 -0.04134,0.06821 -0.07235,0.177767 -0.0083,0.01654 -0.181901,0.711068 -0.01654,0.08475 -0.01654,0.09715 z"
         style="font-size:4.23333311px;stroke-width:0.26458332"
         id="path1001"
         inkscape:connector-curvature="0" />
    </g>
    <g
       aria-label="v"
       style="font-style:normal;font-variant:normal;font-weight:normal;font-stretch:normal;font-size:7.76111126px;line-height:1.25;font-family:'CMU Classical Serif';-inkscape-font-specification:'CMU Classical Serif';text-align:center;letter-spacing:0px;word-spacing:0px;text-anchor:middle;fill:#000000;fill-opacity:1;stroke:none;stroke-width:0.26458332"
       id="text6879-0">
      <path
         d="m 95.80503,93.398468 q 0,-0.05168 0.04547,-0.06615 0.04754,-0.01447 0.229443,-0.02687 0.126091,-0.0083 0.212907,-0.0186 l 0.02481,-0.0041 q 0.02894,-0.0041 0.05168,-0.0041 0.08062,0 0.08062,0.05581 0,0.03307 -0.05581,0.241846 -0.02894,0.09302 -0.06821,0.113688 -0.241845,0.791683 -0.241845,1.014925 0,0.194304 0.08268,0.270785 0.08268,0.07648 0.194303,0.07648 0.161231,0 0.301791,-0.157096 0.142626,-0.159164 0.219108,-0.372071 0.07855,-0.214974 0.119889,-0.392741 0.04341,-0.177767 0.04341,-0.254248 0,-0.12609 -0.04341,-0.212907 -0.04134,-0.08682 -0.08475,-0.136425 -0.04134,-0.05168 -0.04134,-0.09922 0,-0.08062 0.06615,-0.136426 0.06615,-0.05788 0.132292,-0.05788 0.06821,0 0.121956,0.06615 0.05374,0.06408 0.05374,0.217041 0,0.07235 -0.02687,0.241846 -0.02481,0.169499 -0.09509,0.413411 -0.07028,0.241846 -0.165364,0.458887 -0.09508,0.214974 -0.260449,0.367936 -0.163298,0.152963 -0.359668,0.152963 -0.202572,0 -0.361735,-0.115756 -0.159164,-0.117822 -0.159164,-0.39274 0,-0.130225 0.07028,-0.398943 0.07028,-0.270784 0.138493,-0.489892 0.06821,-0.221175 0.06821,-0.233578 0,-0.06408 -0.142627,-0.06408 -0.0021,0 -0.0041,0.0021 -0.0021,0 -0.0041,0 -0.142627,0 -0.142627,-0.05994 z"
         style="font-size:4.23333311px;stroke-width:0.26458332"
         id="path998"
         inkscape:connector-curvature="0" />
    </g>
    <g
       aria-label="vx"
       style="font-style:normal;font-variant:normal;font-weight:normal;font-stretch:normal;font-size:4.23333311px;line-height:1.25;font-family:'CMU Classical Serif';-inkscape-font-specification:'CMU Classical Serif';text-align:center;letter-spacing:0px;word-spacing:0px;text-anchor:middle;fill:#000000;fill-opacity:1;stroke:none;stroke-width:0.26458332"
       id="text6883-6">
      <path
         d="m 92.316415,84.464699 q 0,-0.05168 0.04547,-0.06615 0.04754,-0.01447 0.229443,-0.02687 0.126091,-0.0083 0.212907,-0.0186 l 0.02481,-0.0041 q 0.02894,-0.0041 0.05168,-0.0041 0.08062,0 0.08062,0.05581 0,0.03307 -0.05581,0.241846 -0.02894,0.09302 -0.06821,0.113688 -0.241846,0.791683 -0.241846,1.014925 0,0.194303 0.08268,0.270785 0.08268,0.07648 0.194303,0.07648 0.161231,0 0.30179,-0.157097 0.142627,-0.159163 0.219108,-0.37207 0.07855,-0.214974 0.11989,-0.392741 0.04341,-0.177767 0.04341,-0.254248 0,-0.12609 -0.04341,-0.212907 -0.04134,-0.08682 -0.08475,-0.136426 -0.04134,-0.05168 -0.04134,-0.09922 0,-0.08062 0.06615,-0.136426 0.06615,-0.05788 0.132292,-0.05788 0.06821,0 0.121956,0.06615 0.05374,0.06408 0.05374,0.217041 0,0.07235 -0.02687,0.241846 -0.02481,0.169499 -0.09508,0.413411 -0.07028,0.241846 -0.165364,0.458887 -0.09508,0.214974 -0.260449,0.367936 -0.163298,0.152962 -0.359668,0.152962 -0.202572,0 -0.361735,-0.115755 -0.159164,-0.117822 -0.159164,-0.392741 0,-0.130224 0.07028,-0.398942 0.07028,-0.270784 0.138493,-0.489892 0.06821,-0.221175 0.06821,-0.233578 0,-0.06408 -0.142627,-0.06408 -0.0021,0 -0.0041,0.0021 -0.0021,0 -0.0041,0 -0.142627,0 -0.142627,-0.05994 z"
         style="stroke-width:0.26458332"
         id="path993"
         inkscape:connector-curvature="0" />
      <path
         d="m 93.775447,86.874267 q 0,-0.05777 0.03628,-0.102112 0.03762,-0.04434 0.09539,-0.04434 0.04165,0 0.06718,0.02687 0.02553,0.02553 0.02553,0.06449 0,0.09405 -0.106143,0.128985 0.06046,0.03493 0.116892,0.03493 0.0027,0 0.004,0 0.04434,0 0.08062,-0.01881 0.03762,-0.01881 0.06718,-0.06315 0.0309,-0.04434 0.05106,-0.08599 0.0215,-0.043 0.04434,-0.12361 0.02284,-0.08196 0.03628,-0.137046 0.01478,-0.05509 0.03896,-0.161231 0.02553,-0.106143 0.03896,-0.166605 0.03359,-0.14645 0.03359,-0.186758 0,-0.07927 -0.03762,-0.127641 -0.03762,-0.04837 -0.09808,-0.04837 -0.09405,0 -0.180041,0.09002 -0.08599,0.08868 -0.135702,0.22841 -0.0027,0.0054 -0.0054,0.01747 -0.0027,0.01075 -0.0067,0.01478 -0.0027,0.004 -0.0067,0.01344 -0.004,0.0094 -0.0094,0.01478 -0.0054,0.004 -0.01209,0.0067 -0.0067,0.0027 -0.01747,0.0027 -0.03896,0 -0.03896,-0.03628 0,-0.04434 0.04568,-0.137046 0.04568,-0.09405 0.147794,-0.185415 0.103456,-0.09271 0.227067,-0.09271 h 0.0027 q 0.184071,0.0027 0.264686,0.189446 0.1048,-0.189446 0.270061,-0.189446 0.08465,0 0.159887,0.04434 0.07659,0.043 0.07659,0.128984 0,0.06315 -0.04165,0.1048 -0.04165,0.04031 -0.09405,0.04031 -0.03896,0 -0.06449,-0.02419 -0.02553,-0.02553 -0.02553,-0.06315 0,-0.04165 0.02687,-0.07793 0.02822,-0.03762 0.07793,-0.05106 -0.0524,-0.03896 -0.118236,-0.03896 -0.03628,0 -0.07255,0.01478 -0.03493,0.01478 -0.08868,0.09271 -0.05374,0.07658 -0.08733,0.208256 -0.02419,0.09674 -0.04837,0.196164 -0.02284,0.09942 -0.03493,0.147794 -0.01209,0.04703 -0.02687,0.09943 -0.01344,0.0524 -0.01747,0.07524 -0.004,0.0215 -0.0081,0.04703 -0.004,0.02419 -0.0054,0.03628 -0.0013,0.01209 -0.0013,0.0309 0,0.0739 0.03493,0.122267 0.03628,0.04837 0.09942,0.04837 0.09405,0 0.181384,-0.08868 0.08868,-0.09002 0.135703,-0.229753 0.0027,-0.0054 0.0067,-0.01612 0.004,-0.01209 0.0054,-0.01747 0.0013,-0.0054 0.0054,-0.01344 0.004,-0.0081 0.0094,-0.01209 0.0054,-0.004 0.01209,-0.0067 0.0081,-0.0027 0.01881,-0.0027 0.03896,0 0.03762,0.03493 0,0.04434 -0.04568,0.13839 -0.04434,0.09271 -0.149138,0.185415 -0.1048,0.09271 -0.225722,0.09271 -0.07659,0 -0.151826,-0.043 -0.0739,-0.04299 -0.112861,-0.145107 -0.03628,0.0524 -0.0618,0.08465 -0.02553,0.0309 -0.08465,0.06718 -0.05912,0.03628 -0.124954,0.03628 -0.09136,0 -0.163917,-0.04568 -0.07255,-0.04568 -0.07255,-0.127641 z"
         style="font-size:2.75166631px;baseline-shift:sub;stroke-width:0.26458332"
         id="path995"
         inkscape:connector-curvature="0" />
    </g>
    <g
       aria-label="vy"
       style="font-style:normal;font-variant:normal;font-weight:normal;font-stretch:normal;font-size:4.23333311px;line-height:1.25;font-family:'CMU Classical Serif';-inkscape-font-specification:'CMU Classical Serif';text-align:center;letter-spacing:0px;word-spacing:0px;text-anchor:middle;fill:#000000;fill-opacity:1;stroke:none;stroke-width:0.26458332"
       id="text6889-2">
      <path
         d="m 84.142921,92.240234 q 0,-0.05168 0.04548,-0.06615 0.04754,-0.01447 0.229443,-0.02687 0.12609,-0.0083 0.212907,-0.0186 l 0.0248,-0.0041 q 0.02894,-0.0041 0.05168,-0.0041 0.08061,0 0.08061,0.05581 0,0.03307 -0.05581,0.241845 -0.02894,0.09302 -0.06821,0.113689 -0.241846,0.791682 -0.241846,1.014925 0,0.194303 0.08268,0.270784 0.08268,0.07648 0.194304,0.07648 0.16123,0 0.30179,-0.157096 0.142627,-0.159164 0.219108,-0.37207 0.07855,-0.214974 0.119889,-0.392741 0.04341,-0.177767 0.04341,-0.254248 0,-0.126091 -0.04341,-0.212907 -0.04134,-0.08682 -0.08475,-0.136426 -0.04134,-0.05168 -0.04134,-0.09922 0,-0.08061 0.06615,-0.136426 0.06615,-0.05788 0.132291,-0.05788 0.06821,0 0.121957,0.06615 0.05374,0.06408 0.05374,0.217041 0,0.07235 -0.02687,0.241845 -0.0248,0.169499 -0.09508,0.413412 -0.07028,0.241846 -0.165365,0.458887 -0.09508,0.214973 -0.260449,0.367936 -0.163297,0.152962 -0.359668,0.152962 -0.202571,0 -0.361735,-0.115755 -0.159163,-0.117823 -0.159163,-0.392741 0,-0.130225 0.07028,-0.398942 0.07028,-0.270785 0.138492,-0.489893 0.06821,-0.221175 0.06821,-0.233577 0,-0.06408 -0.142627,-0.06408 -0.0021,0 -0.0041,0.0021 -0.0021,0 -0.0041,0 -0.142627,0 -0.142627,-0.05994 z"
         style="stroke-width:0.26458332"
         id="path988"
         inkscape:connector-curvature="0" />
      <path
         d="m 85.725564,95.120059 q 0,-0.08465 0.04165,-0.127641 0.04299,-0.043 0.09539,-0.043 0.04165,0 0.06718,0.02419 0.02687,0.02553 0.02687,0.06315 0,0.04165 -0.03225,0.08599 -0.0309,0.04434 -0.10883,0.04702 0.04703,0.126297 0.173323,0.126297 0.12361,0 0.233784,-0.116892 0.110174,-0.116892 0.17601,-0.321117 0.01344,-0.04434 0.03628,-0.137046 -0.120922,0.102113 -0.24722,0.102113 -0.12361,0 -0.216317,-0.07121 -0.09271,-0.07255 -0.09271,-0.245877 0,-0.09136 0.04568,-0.268717 0.04568,-0.177354 0.09136,-0.321117 0.04568,-0.145108 0.04568,-0.155857 0,-0.02687 -0.03762,-0.03359 -0.03762,-0.0081 -0.08465,-0.0081 -0.04568,0 -0.05777,-0.0081 -0.02419,-0.01612 -0.0054,-0.0524 0.01344,-0.0215 0.06046,-0.02687 0.275435,-0.02419 0.306338,-0.02553 h 0.0027 q 0.04165,0 0.04031,0.03628 0,0.02418 -0.03225,0.157199 -0.01881,0.06046 -0.04434,0.0739 -0.162574,0.545496 -0.162574,0.679855 0,0.205569 0.150482,0.205569 0,0 0.0013,0 0.09405,0 0.173323,-0.07121 0.07927,-0.07121 0.1048,-0.134358 0.0054,-0.01612 0.01209,-0.04434 0.0067,-0.02956 0.0094,-0.04165 l 0.181384,-0.717475 0.0027,-0.01344 q 0.0027,-0.01344 0.0054,-0.02284 0.004,-0.01075 0.0094,-0.02687 0.0054,-0.01747 0.01478,-0.02956 0.0094,-0.01209 0.02015,-0.02284 0.01075,-0.01075 0.02687,-0.01747 0.01747,-0.0081 0.03628,-0.0081 0.0309,0 0.0524,0.0215 0.02284,0.02015 0.02284,0.05374 0,0.0081 -0.004,0.02419 -0.004,0.01612 -0.004,0.01881 L 86.6083,94.742511 q -0.03896,0.151825 -0.1048,0.268717 -0.06584,0.116892 -0.134358,0.180041 -0.06852,0.06315 -0.147795,0.104799 -0.07793,0.04165 -0.131671,0.0524 -0.05374,0.01075 -0.100769,0.01075 -0.115549,0 -0.189446,-0.06584 -0.0739,-0.06584 -0.0739,-0.173322 z"
         style="font-size:2.75166631px;baseline-shift:sub;stroke-width:0.26458332"
         id="path990"
         inkscape:connector-curvature="0" />
    </g>
    <g
       aria-label="'"
       style="font-style:normal;font-variant:normal;font-weight:normal;font-stretch:normal;font-size:4.23333311px;line-height:1.25;font-family:'CMU Classical Serif';-inkscape-font-specification:'CMU Classical Serif';text-align:center;letter-spacing:0px;word-spacing:0px;text-anchor:middle;fill:#000000;fill-opacity:1;stroke:none;stroke-width:0.26458332"
       id="text7306">
      <path
         d="m 94.142217,84.690629 q 0,-0.0124 0.0083,-0.06408 0.0083,-0.05374 0.0083,-0.06615 l 0.173633,-1.093473 0.0041,-0.02894 q 0.0041,-0.03307 0.01034,-0.05581 0.0062,-0.0248 0.02067,-0.05994 0.01654,-0.03721 0.03514,-0.06201 0.0186,-0.02481 0.05581,-0.04341 0.03927,-0.02067 0.08682,-0.02067 h 0.0041 q 0.06408,0 0.10542,0.03721 0.04134,0.03514 0.04134,0.09922 0,0.02481 -0.03307,0.138493 l -0.419612,1.21543 q -0.02067,0.06408 -0.05374,0.06408 -0.04754,0 -0.04754,-0.05994 z"
         style="stroke-width:0.26458332"
         id="path985"
         inkscape:connector-curvature="0" />
    </g>
    <g
       style="font-style:normal;font-variant:normal;font-weight:normal;font-stretch:normal;font-size:4.23333311px;line-height:1.25;font-family:'CMU Classical Serif';-inkscape-font-specification:'CMU Classical Serif';text-align:center;letter-spacing:0px;word-spacing:0px;text-anchor:middle;fill:#000000;fill-opacity:1;stroke:none;stroke-width:0.26458332"
       id="text7318" />
    <g
       aria-label="'"
       style="font-style:normal;font-variant:normal;font-weight:normal;font-stretch:normal;font-size:4.23333311px;line-height:1.25;font-family:'CMU Classical Serif';-inkscape-font-specification:'CMU Classical Serif';text-align:center;letter-spacing:0px;word-spacing:0px;text-anchor:middle;fill:#000000;fill-opacity:1;stroke:none;stroke-width:0.26458332"
       id="text7322">
      <path
         d="m 86.063947,92.463669 q 0,-0.0124 0.0083,-0.06408 0.0083,-0.05374 0.0083,-0.06615 l 0.173633,-1.093473 0.0041,-0.02894 q 0.0041,-0.03307 0.01034,-0.05581 0.0062,-0.0248 0.02067,-0.05994 0.01654,-0.03721 0.03514,-0.06201 0.0186,-0.02481 0.05581,-0.04341 0.03927,-0.02067 0.08682,-0.02067 h 0.0041 q 0.06408,0 0.10542,0.03721 0.04134,0.03514 0.04134,0.09922 0,0.02481 -0.03307,0.138493 l -0.419612,1.215429 q -0.02067,0.06408 -0.05374,0.06408 -0.04754,0 -0.04754,-0.05994 z"
         style="stroke-width:0.26458332"
         id="path982"
         inkscape:connector-curvature="0" />
    </g>
    <g
       aria-label="'"
       style="font-style:normal;font-variant:normal;font-weight:normal;font-stretch:normal;font-size:4.23333311px;line-height:1.25;font-family:'CMU Classical Serif';-inkscape-font-specification:'CMU Classical Serif';text-align:center;letter-spacing:0px;word-spacing:0px;text-anchor:middle;fill:#000000;fill-opacity:1;stroke:none;stroke-width:0.26458332"
       id="text7326">
      <path
         d="m 88.3905,83.895096 q 0,-0.0124 0.0083,-0.06408 0.0083,-0.05374 0.0083,-0.06615 l 0.173633,-1.093473 0.0041,-0.02894 q 0.0041,-0.03307 0.01033,-0.05581 0.0062,-0.0248 0.02067,-0.05994 0.01654,-0.03721 0.03514,-0.06201 0.0186,-0.02481 0.05581,-0.04341 0.03927,-0.02067 0.08682,-0.02067 h 0.0041 q 0.06408,0 0.10542,0.03721 0.04134,0.03514 0.04134,0.09922 0,0.02481 -0.03307,0.138493 l -0.419613,1.215429 q -0.02067,0.06408 -0.05374,0.06408 -0.04754,0 -0.04754,-0.05994 z"
         style="stroke-width:0.26458332"
         id="path979"
         inkscape:connector-curvature="0" />
    </g>
    <g
       aria-label="'"
       style="font-style:normal;font-variant:normal;font-weight:normal;font-stretch:normal;font-size:4.23333311px;line-height:1.25;font-family:'CMU Classical Serif';-inkscape-font-specification:'CMU Classical Serif';text-align:center;letter-spacing:0px;word-spacing:0px;text-anchor:middle;fill:#000000;fill-opacity:1;stroke:none;stroke-width:0.26458332"
       id="text7330">
      <path
         d="m 97.679677,93.641556 q 0,-0.0124 0.0083,-0.06408 0.0083,-0.05374 0.0083,-0.06615 l 0.173633,-1.093473 0.0041,-0.02894 q 0.0041,-0.03307 0.01033,-0.05581 0.0062,-0.0248 0.02067,-0.05994 0.01654,-0.03721 0.03514,-0.06201 0.0186,-0.02481 0.05581,-0.04341 0.03927,-0.02067 0.08682,-0.02067 h 0.0041 q 0.06408,0 0.105419,0.03721 0.04134,0.03514 0.04134,0.09922 0,0.0248 -0.03307,0.138493 l -0.419613,1.215429 q -0.02067,0.06408 -0.05374,0.06408 -0.04754,0 -0.04754,-0.05994 z"
         style="stroke-width:0.26458332"
         id="path976"
         inkscape:connector-curvature="0" />
    </g>
    <path
       style="fill:none;stroke:#000000;stroke-width:0.26458332px;stroke-linecap:butt;stroke-linejoin:miter;stroke-opacity:1;marker-end:url(#TriangleOutM-9)"
       d="m 88.405082,88.545943 6.330723,6.069828"
       id="path850-7"
       inkscape:connector-curvature="0"
       sodipodi:nodetypes="cc" />
    <path
       style="opacity:1;vector-effect:none;fill:#ff0000;fill-opacity:1;stroke:none;stroke-width:0.1;stroke-linecap:round;stroke-linejoin:round;stroke-miterlimit:4;stroke-dasharray:none;stroke-dashoffset:0;stroke-opacity:1"
       d="m 89.786232,88.545944 a 1.3811488,1.3811488 0 0 1 -1.381149,1.381149 1.3811488,1.3811488 0 0 1 -1.381149,-1.381149 1.3811488,1.3811488 0 0 1 1.381149,-1.381149 1.3811488,1.3811488 0 0 1 1.381149,1.381149 z"
       id="path848-3"
       inkscape:connector-curvature="0" />
    <g
       aria-label="'"
       style="font-style:normal;font-variant:normal;font-weight:normal;font-stretch:normal;font-size:4.23333311px;line-height:1.25;font-family:'CMU Classical Serif';-inkscape-font-specification:'CMU Classical Serif';text-align:center;letter-spacing:0px;word-spacing:0px;text-anchor:middle;fill:#000000;fill-opacity:1;stroke:none;stroke-width:0.26458332"
       id="text8258"
       transform="translate(-0.63330994,6.1663178)">
      <path
         d="m 88.861318,113.63224 q 0,-0.0124 0.0083,-0.0641 0.0083,-0.0537 0.0083,-0.0661 l 0.173633,-1.09348 0.0041,-0.0289 q 0.0041,-0.0331 0.01034,-0.0558 0.0062,-0.0248 0.02067,-0.0599 0.01654,-0.0372 0.03514,-0.062 0.0186,-0.0248 0.05581,-0.0434 0.03927,-0.0207 0.08682,-0.0207 h 0.0041 q 0.06408,0 0.10542,0.0372 0.04134,0.0351 0.04134,0.0992 0,0.0248 -0.03307,0.1385 l -0.419612,1.21543 q -0.02067,0.0641 -0.05374,0.0641 -0.04754,0 -0.04754,-0.06 z"
         style="stroke-width:0.26458332"
         id="path972"
         inkscape:connector-curvature="0" />
    </g>
    <path
       sodipodi:nodetypes="cc"
       inkscape:connector-curvature="0"
       id="path1367-0"
       d="M 17.784118,93.942528 V 82.405975"
       style="fill:none;stroke:#000000;stroke-width:0.26499999;stroke-linecap:butt;stroke-linejoin:miter;stroke-miterlimit:4;stroke-dasharray:none;stroke-opacity:1;marker-end:url(#marker6201-4)" />
    <path
       style="fill:none;stroke:#000000;stroke-width:0.26458332px;stroke-linecap:butt;stroke-linejoin:miter;stroke-opacity:1;marker-end:url(#marker6191-7)"
       d="m 17.784118,93.942527 6.330723,2e-6"
       id="path1409-1-0"
       inkscape:connector-curvature="0"
       sodipodi:nodetypes="cc" />
    <path
       style="fill:none;stroke:#000000;stroke-width:0.26458332px;stroke-linecap:butt;stroke-linejoin:miter;stroke-opacity:1;marker-end:url(#TriangleOutM-2)"
       d="M 17.784118,93.942528 24.114841,82.405976"
       id="path850-1"
       inkscape:connector-curvature="0"
       sodipodi:nodetypes="cc" />
    <path
       style="opacity:1;vector-effect:none;fill:#ff0000;fill-opacity:1;stroke:none;stroke-width:0.1;stroke-linecap:round;stroke-linejoin:round;stroke-miterlimit:4;stroke-dasharray:none;stroke-dashoffset:0;stroke-opacity:1"
       d="m 19.165267,93.94253 a 1.3811488,1.3811488 0 0 1 -1.381149,1.381146 1.3811488,1.3811488 0 0 1 -1.381148,-1.381146 1.3811488,1.3811488 0 0 1 1.381148,-1.381149 1.3811488,1.3811488 0 0 1 1.381149,1.381149 z"
       id="path848-6"
       inkscape:connector-curvature="0" />
    <g
       transform="translate(4.3220293,2.8092576)"
       aria-label="p"
       style="font-style:normal;font-variant:normal;font-weight:normal;font-stretch:normal;font-size:7.76111126px;line-height:1.25;font-family:'CMU Classical Serif';-inkscape-font-specification:'CMU Classical Serif';text-align:center;letter-spacing:0px;word-spacing:0px;text-anchor:middle;fill:#000000;fill-opacity:1;stroke:none;stroke-width:0.26458332"
       id="text6875-6">
      <path
         d="m 13.339901,95.549616 q 0,-0.06821 0.113688,-0.07441 0.113688,-0.0062 0.152962,-0.04961 0.02067,-0.02894 0.06201,-0.169499 l 0.463021,-1.862419 q 0.03307,-0.12609 0.03307,-0.173632 0,-0.06408 -0.07441,-0.07442 -0.07441,-0.01033 -0.150895,-0.01447 -0.07441,-0.0041 -0.07441,-0.05374 0,-0.05581 0.06615,-0.07235 0.06821,-0.01654 0.305925,-0.02894 0.03721,-0.02067 0.113688,-0.02274 h 0.03514 q 0.06821,0 0.09508,0.0124 0.02687,0.01034 0.02687,0.04754 0,0.0083 -0.0248,0.109554 0.233577,-0.214974 0.444417,-0.214974 0.233577,0 0.374137,0.186035 0.142627,0.186035 0.142627,0.473356 0,0.469222 -0.310058,0.868164 -0.307992,0.398942 -0.665593,0.398942 -0.219108,0 -0.359668,-0.237711 -0.01654,0.07648 -0.06821,0.272851 -0.04961,0.196371 -0.08888,0.353467 -0.03721,0.157096 -0.03721,0.177767 0,0.07235 0.14056,0.07441 0.142627,0.0021 0.16123,0.03101 0.0083,0.01654 0.0083,0.0248 0,0.02481 -0.02687,0.04754 -0.02481,0.0248 -0.06201,0.0248 -0.02067,0 -0.14056,-0.0041 -0.117822,-0.0041 -0.258382,-0.0041 -0.08475,0 -0.183968,0.0021 -0.09922,0.0021 -0.119889,0.0021 -0.05581,0 -0.07441,-0.01033 -0.0186,-0.01034 -0.0186,-0.03927 z m 0.841292,-1.207161 q 0,0.05581 0.02067,0.136425 0.02274,0.07855 0.09302,0.163298 0.07235,0.08475 0.173633,0.08475 0.157097,0 0.291455,-0.165364 0.136426,-0.167432 0.214974,-0.401009 0.07855,-0.233578 0.121957,-0.444418 0.04547,-0.21084 0.04547,-0.334863 0,-0.173633 -0.06201,-0.270785 -0.05994,-0.09715 -0.165364,-0.09715 -0.22531,0 -0.463021,0.343131 -0.04134,0.06821 -0.07235,0.177767 -0.0083,0.01654 -0.181901,0.711068 -0.01654,0.08475 -0.01654,0.09715 z"
         style="font-size:4.23333311px;stroke-width:0.26458332"
         id="path1024-5"
         inkscape:connector-curvature="0" />
    </g>
    <g
       transform="translate(-0.46486471,0.85121119)"
       aria-label="v"
       style="font-style:normal;font-variant:normal;font-weight:normal;font-stretch:normal;font-size:7.76111126px;line-height:1.25;font-family:'CMU Classical Serif';-inkscape-font-specification:'CMU Classical Serif';text-align:center;letter-spacing:0px;word-spacing:0px;text-anchor:middle;fill:#000000;fill-opacity:1;stroke:none;stroke-width:0.26458332"
       id="text6879-9">
      <path
         d="m 26.002589,81.072479 q 0,-0.05168 0.04547,-0.06615 0.04754,-0.01447 0.229444,-0.02687 0.12609,-0.0083 0.212907,-0.0186 l 0.0248,-0.0041 q 0.02894,-0.0041 0.05168,-0.0041 0.08062,0 0.08062,0.05581 0,0.03307 -0.05581,0.241845 -0.02894,0.09302 -0.06821,0.113688 -0.241846,0.791683 -0.241846,1.014925 0,0.194304 0.08268,0.270785 0.08268,0.07648 0.194304,0.07648 0.16123,0 0.30179,-0.157096 0.142627,-0.159164 0.219108,-0.372071 0.07855,-0.214974 0.119889,-0.39274 0.04341,-0.177767 0.04341,-0.254248 0,-0.126091 -0.04341,-0.212907 -0.04134,-0.08682 -0.08475,-0.136426 -0.04134,-0.05168 -0.04134,-0.09922 0,-0.08061 0.06615,-0.136426 0.06614,-0.05788 0.132291,-0.05788 0.06821,0 0.121957,0.06615 0.05374,0.06408 0.05374,0.217041 0,0.07235 -0.02687,0.241845 -0.0248,0.169499 -0.09508,0.413412 -0.07028,0.241845 -0.165365,0.458886 -0.09508,0.214974 -0.260449,0.367937 -0.163298,0.152962 -0.359668,0.152962 -0.202572,0 -0.361735,-0.115755 -0.159163,-0.117823 -0.159163,-0.392741 0,-0.130225 0.07028,-0.398942 0.07028,-0.270785 0.138492,-0.489893 0.06821,-0.221175 0.06821,-0.233577 0,-0.06408 -0.142627,-0.06408 -0.0021,0 -0.0041,0.0021 -0.0021,0 -0.0041,0 -0.142627,0 -0.142627,-0.05994 z"
         style="font-size:4.23333311px;stroke-width:0.26458332"
         id="path1021-4"
         inkscape:connector-curvature="0" />
    </g>
    <g
       transform="translate(-0.46486471,0.85121119)"
       aria-label="vx"
       style="font-style:normal;font-variant:normal;font-weight:normal;font-stretch:normal;font-size:4.23333311px;line-height:1.25;font-family:'CMU Classical Serif';-inkscape-font-specification:'CMU Classical Serif';text-align:center;letter-spacing:0px;word-spacing:0px;text-anchor:middle;fill:#000000;fill-opacity:1;stroke:none;stroke-width:0.26458332"
       id="text6883-67">
      <path
         d="m 22.427586,94.589325 q 0,-0.05168 0.04548,-0.06615 0.04754,-0.01447 0.229443,-0.02687 0.126091,-0.0083 0.212907,-0.0186 l 0.02481,-0.0041 q 0.02894,-0.0041 0.05168,-0.0041 0.08061,0 0.08061,0.05581 0,0.03307 -0.05581,0.241846 -0.02894,0.09302 -0.06821,0.113688 -0.241846,0.791683 -0.241846,1.014925 0,0.194304 0.08268,0.270785 0.08268,0.07648 0.194304,0.07648 0.16123,0 0.30179,-0.157097 0.142627,-0.159163 0.219108,-0.37207 0.07855,-0.214974 0.11989,-0.392741 0.04341,-0.177767 0.04341,-0.254248 0,-0.12609 -0.04341,-0.212907 -0.04134,-0.08682 -0.08475,-0.136425 -0.04134,-0.05168 -0.04134,-0.09922 0,-0.08061 0.06615,-0.136426 0.06615,-0.05788 0.132292,-0.05788 0.06821,0 0.121956,0.06615 0.05374,0.06408 0.05374,0.217041 0,0.07235 -0.02687,0.241846 -0.02481,0.169499 -0.09509,0.413411 -0.07028,0.241846 -0.165365,0.458887 -0.09508,0.214974 -0.260449,0.367936 -0.163297,0.152963 -0.359668,0.152963 -0.202571,0 -0.361735,-0.115756 -0.159163,-0.117822 -0.159163,-0.392741 0,-0.130224 0.07028,-0.398942 0.07028,-0.270784 0.138493,-0.489892 0.06821,-0.221175 0.06821,-0.233578 0,-0.06408 -0.142627,-0.06408 -0.0021,0 -0.0041,0.0021 -0.0021,0 -0.0041,0 -0.142627,0 -0.142627,-0.05994 z"
         style="stroke-width:0.26458332"
         id="path1016-5"
         inkscape:connector-curvature="0" />
      <path
         d="m 23.886619,96.998894 q 0,-0.05778 0.03628,-0.102113 0.03762,-0.04434 0.09539,-0.04434 0.04165,0 0.06718,0.02687 0.02553,0.02553 0.02553,0.06449 0,0.09405 -0.106144,0.128984 0.06046,0.03493 0.116892,0.03493 0.0027,0 0.004,0 0.04434,0 0.08062,-0.01881 0.03762,-0.01881 0.06718,-0.06315 0.0309,-0.04434 0.05106,-0.08599 0.0215,-0.04299 0.04434,-0.12361 0.02284,-0.08196 0.03628,-0.137046 0.01478,-0.05509 0.03896,-0.161231 0.02553,-0.106143 0.03896,-0.166604 0.03359,-0.146451 0.03359,-0.186759 0,-0.07927 -0.03762,-0.127641 -0.03762,-0.04837 -0.09808,-0.04837 -0.09405,0 -0.180041,0.09002 -0.08599,0.08868 -0.135702,0.22841 -0.0027,0.0054 -0.0054,0.01747 -0.0027,0.01075 -0.0067,0.01478 -0.0027,0.004 -0.0067,0.01344 -0.004,0.0094 -0.0094,0.01478 -0.0054,0.004 -0.01209,0.0067 -0.0067,0.0027 -0.01747,0.0027 -0.03897,0 -0.03897,-0.03628 0,-0.04434 0.04568,-0.137046 0.04568,-0.09405 0.147795,-0.185415 0.103456,-0.09271 0.227066,-0.09271 h 0.0027 q 0.184072,0.0027 0.264687,0.189445 0.1048,-0.189445 0.270061,-0.189445 0.08465,0 0.159887,0.04434 0.07658,0.043 0.07658,0.128984 0,0.06315 -0.04165,0.1048 -0.04165,0.04031 -0.09405,0.04031 -0.03896,0 -0.06449,-0.02419 -0.02553,-0.02553 -0.02553,-0.06315 0,-0.04165 0.02687,-0.07793 0.02822,-0.03762 0.07793,-0.05106 -0.0524,-0.03896 -0.118236,-0.03896 -0.03628,0 -0.07255,0.01478 -0.03493,0.01478 -0.08868,0.09271 -0.05374,0.07659 -0.08733,0.208256 -0.02418,0.09674 -0.04837,0.196164 -0.02284,0.09942 -0.03493,0.147794 -0.01209,0.04703 -0.02687,0.09943 -0.01344,0.0524 -0.01747,0.07524 -0.004,0.0215 -0.0081,0.04703 -0.004,0.02418 -0.0054,0.03628 -0.0013,0.01209 -0.0013,0.0309 0,0.0739 0.03493,0.122266 0.03628,0.04837 0.09943,0.04837 0.09405,0 0.181384,-0.08868 0.08868,-0.09002 0.135702,-0.229753 0.0027,-0.0054 0.0067,-0.01612 0.004,-0.01209 0.0054,-0.01747 0.0013,-0.0054 0.0054,-0.01344 0.004,-0.0081 0.0094,-0.01209 0.0054,-0.004 0.01209,-0.0067 0.0081,-0.0027 0.01881,-0.0027 0.03896,0 0.03762,0.03493 0,0.04434 -0.04568,0.13839 -0.04434,0.09271 -0.149138,0.185415 -0.1048,0.09271 -0.225723,0.09271 -0.07658,0 -0.151825,-0.04299 -0.0739,-0.043 -0.112861,-0.145108 -0.03628,0.0524 -0.0618,0.08465 -0.02553,0.0309 -0.08465,0.06718 -0.05912,0.03628 -0.124954,0.03628 -0.09136,0 -0.163918,-0.04568 -0.07255,-0.04568 -0.07255,-0.12764 z"
         style="font-size:64.99999762%;baseline-shift:sub"
         id="path1018-9"
         inkscape:connector-curvature="0" />
    </g>
    <g
       transform="translate(-0.46486471,0.85121119)"
       aria-label="vy"
       style="font-style:normal;font-variant:normal;font-weight:normal;font-stretch:normal;font-size:4.23333311px;line-height:1.25;font-family:'CMU Classical Serif';-inkscape-font-specification:'CMU Classical Serif';text-align:center;letter-spacing:0px;word-spacing:0px;text-anchor:middle;fill:#000000;fill-opacity:1;stroke:none;stroke-width:0.26458332"
       id="text6889-0">
      <path
         d="m 14.304687,81.006737 q 0,-0.05168 0.04548,-0.06615 0.04754,-0.01447 0.229443,-0.02687 0.12609,-0.0083 0.212907,-0.0186 l 0.0248,-0.0041 q 0.02894,-0.0041 0.05168,-0.0041 0.08061,0 0.08061,0.05581 0,0.03307 -0.05581,0.241846 -0.02894,0.09302 -0.06821,0.113688 -0.241846,0.791683 -0.241846,1.014925 0,0.194303 0.08268,0.270784 0.08268,0.07648 0.194304,0.07648 0.16123,0 0.30179,-0.157097 0.142627,-0.159163 0.219108,-0.37207 0.07855,-0.214974 0.119889,-0.392741 0.04341,-0.177767 0.04341,-0.254248 0,-0.12609 -0.04341,-0.212907 -0.04134,-0.08682 -0.08475,-0.136426 -0.04134,-0.05168 -0.04134,-0.09922 0,-0.08062 0.06615,-0.136426 0.06615,-0.05788 0.132291,-0.05788 0.06821,0 0.121957,0.06615 0.05374,0.06408 0.05374,0.217041 0,0.07235 -0.02687,0.241846 -0.02481,0.169498 -0.09509,0.413411 -0.07028,0.241846 -0.165365,0.458887 -0.09508,0.214974 -0.260449,0.367936 -0.163297,0.152962 -0.359668,0.152962 -0.202571,0 -0.361735,-0.115755 -0.159163,-0.117822 -0.159163,-0.392741 0,-0.130224 0.07028,-0.398942 0.07028,-0.270784 0.138493,-0.489892 0.06821,-0.221175 0.06821,-0.233578 0,-0.06408 -0.142627,-0.06408 -0.0021,0 -0.0041,0.0021 -0.0021,0 -0.0041,0 -0.142627,0 -0.142627,-0.05994 z"
         style="stroke-width:0.26458332"
         id="path1011-9"
         inkscape:connector-curvature="0" />
      <path
         d="m 15.88733,83.886561 q 0,-0.08465 0.04165,-0.127641 0.04299,-0.043 0.09539,-0.043 0.04165,0 0.06718,0.02419 0.02687,0.02553 0.02687,0.06315 0,0.04165 -0.03225,0.08599 -0.0309,0.04434 -0.10883,0.04703 0.04702,0.126297 0.173323,0.126297 0.12361,0 0.233784,-0.116892 0.110174,-0.116892 0.17601,-0.321118 0.01344,-0.04434 0.03628,-0.137045 -0.120923,0.102112 -0.24722,0.102112 -0.12361,0 -0.216318,-0.07121 -0.09271,-0.07255 -0.09271,-0.245876 0,-0.09136 0.04568,-0.268718 0.04568,-0.177353 0.09136,-0.321117 0.04568,-0.145108 0.04568,-0.155856 0,-0.02687 -0.03762,-0.03359 -0.03762,-0.0081 -0.08465,-0.0081 -0.04568,0 -0.05777,-0.0081 -0.02418,-0.01612 -0.0054,-0.0524 0.01344,-0.0215 0.06046,-0.02687 0.275435,-0.02418 0.306338,-0.02553 h 0.0027 q 0.04165,0 0.04031,0.03628 0,0.02419 -0.03225,0.1572 -0.01881,0.06046 -0.04434,0.0739 -0.162574,0.545496 -0.162574,0.679855 0,0.205569 0.150482,0.205569 0,0 0.0013,0 0.09405,0 0.173323,-0.07121 0.07927,-0.07121 0.1048,-0.134359 0.0054,-0.01612 0.01209,-0.04434 0.0067,-0.02956 0.0094,-0.04165 l 0.181384,-0.717476 0.0027,-0.01344 q 0.0027,-0.01344 0.0054,-0.02284 0.004,-0.01075 0.0094,-0.02687 0.0054,-0.01747 0.01478,-0.02956 0.0094,-0.01209 0.02015,-0.02284 0.01075,-0.01075 0.02687,-0.01747 0.01747,-0.0081 0.03628,-0.0081 0.0309,0 0.0524,0.0215 0.02284,0.02015 0.02284,0.05374 0,0.0081 -0.004,0.02419 -0.004,0.01612 -0.004,0.01881 l -0.253938,1.015752 q -0.03896,0.151825 -0.1048,0.268717 -0.06583,0.116892 -0.134358,0.180041 -0.06852,0.06315 -0.147795,0.1048 -0.07793,0.04165 -0.131671,0.0524 -0.05374,0.01075 -0.100769,0.01075 -0.115549,0 -0.189446,-0.06584 -0.0739,-0.06584 -0.0739,-0.173323 z"
         style="font-size:64.99999762%;baseline-shift:sub"
         id="path1013-4"
         inkscape:connector-curvature="0" />
    </g>
    <g
       aria-label="0"
       style="font-style:normal;font-variant:normal;font-weight:normal;font-stretch:normal;font-size:4.23333311px;line-height:1.25;font-family:'CMU Classical Serif';-inkscape-font-specification:'CMU Classical Serif';text-align:center;letter-spacing:0px;word-spacing:0px;text-anchor:middle;fill:#000000;fill-opacity:1;stroke:none;stroke-width:0.26458332"
       id="text145">
      <path
         d="m 9.8447199,90.550192 q 0,-0.12361 0.038964,-0.339928 0.040308,-0.216317 0.1491381,-0.490409 0.108831,-0.275435 0.253938,-0.416512 0.181384,-0.17601 0.396358,-0.17601 0.06315,0 0.120923,0.01881 0.05777,0.01747 0.116892,0.06449 0.05912,0.04568 0.09539,0.146451 0.03628,0.100769 0.03628,0.243189 0,0.07927 -0.02284,0.227066 -0.0215,0.147795 -0.08196,0.360081 -0.06046,0.210944 -0.149138,0.393671 -0.08733,0.181385 -0.241846,0.310369 -0.154512,0.128984 -0.343958,0.128984 -0.06584,0 -0.122267,-0.01881 -0.05643,-0.01747 -0.1155482,-0.06315 -0.059118,-0.04703 -0.095395,-0.146451 -0.034933,-0.09943 -0.034933,-0.241846 z m 0.1760101,0.14242 q 0,0.139733 0.06315,0.202882 0.06315,0.06181 0.145108,0.06181 0.04434,0 0.09808,-0.01747 0.05374,-0.01881 0.12764,-0.08868 0.07524,-0.06987 0.12361,-0.18004 0.0739,-0.162574 0.188103,-0.611332 0.115548,-0.448758 0.115548,-0.609989 0,-0.120923 -0.05912,-0.190789 -0.05912,-0.07121 -0.155856,-0.07121 -0.151825,0 -0.278122,0.165261 -0.110174,0.139733 -0.233785,0.638204 -0.134358,0.538778 -0.134358,0.701352 z"
         style="font-size:64.99999762%;baseline-shift:sub;stroke-width:0.26458332"
         id="path1797" />
    </g>
    <g
       aria-label="0"
       style="font-style:normal;font-variant:normal;font-weight:normal;font-stretch:normal;font-size:4.23333311px;line-height:1.25;font-family:'CMU Classical Serif';-inkscape-font-specification:'CMU Classical Serif';text-align:center;letter-spacing:0px;word-spacing:0px;text-anchor:middle;fill:#000000;fill-opacity:1;stroke:none;stroke-width:0.26458332"
       id="text145-9">
      <path
         d="m 15.28886,90.955031 q 0,-0.12361 0.03896,-0.339928 0.04031,-0.216318 0.149139,-0.490409 0.10883,-0.275436 0.253937,-0.416512 0.181385,-0.17601 0.396359,-0.17601 0.06315,0 0.120922,0.01881 0.05777,0.01747 0.116893,0.06449 0.05912,0.04568 0.09539,0.146451 0.03628,0.100769 0.03628,0.243189 0,0.07927 -0.02284,0.227067 -0.0215,0.147794 -0.08196,0.360081 -0.06046,0.210943 -0.149138,0.393671 -0.08733,0.181384 -0.241846,0.310369 -0.154512,0.128984 -0.343958,0.128984 -0.06584,0 -0.122266,-0.01881 -0.05643,-0.01747 -0.115549,-0.06315 -0.05912,-0.04703 -0.09539,-0.146451 -0.03493,-0.09942 -0.03493,-0.241845 z m 0.17601,0.14242 q 0,0.139733 0.06315,0.202881 0.06315,0.06181 0.145107,0.06181 0.04434,0 0.09808,-0.01747 0.05374,-0.01881 0.127641,-0.08868 0.07524,-0.06987 0.12361,-0.180041 0.0739,-0.162574 0.188102,-0.611332 0.115549,-0.448758 0.115549,-0.609988 0,-0.120923 -0.05912,-0.19079 -0.05912,-0.07121 -0.155856,-0.07121 -0.151826,0 -0.278123,0.165261 -0.110174,0.139734 -0.233784,0.638204 -0.134359,0.538779 -0.134359,0.701353 z"
         style="font-size:2.75166631px;baseline-shift:sub;stroke-width:0.26458332"
         id="path1794" />
    </g>
    <g
       aria-label="0"
       style="font-style:normal;font-variant:normal;font-weight:normal;font-stretch:normal;font-size:4.23333311px;line-height:1.25;font-family:'CMU Classical Serif';-inkscape-font-specification:'CMU Classical Serif';text-align:center;letter-spacing:0px;word-spacing:0px;text-anchor:middle;fill:#000000;fill-opacity:1;stroke:none;stroke-width:0.26458332"
       id="text145-7">
      <path
         d="m 13.3522,116.13161 q 0,-0.12361 0.03896,-0.33992 0.04031,-0.21632 0.149138,-0.49041 0.10883,-0.27544 0.253938,-0.41652 0.181384,-0.17601 0.396358,-0.17601 0.06315,0 0.120923,0.0188 0.05777,0.0175 0.116892,0.0645 0.05912,0.0457 0.09539,0.14645 0.03628,0.10077 0.03628,0.24319 0,0.0793 -0.02284,0.22706 -0.0215,0.1478 -0.08196,0.36008 -0.06046,0.21095 -0.149139,0.39368 -0.08733,0.18138 -0.241845,0.31036 -0.154513,0.12899 -0.343959,0.12899 -0.06583,0 -0.122266,-0.0188 -0.05643,-0.0175 -0.115549,-0.0632 -0.05912,-0.047 -0.09539,-0.14645 -0.03493,-0.0994 -0.03493,-0.24185 z m 0.176009,0.14242 q 0,0.13974 0.06315,0.20288 0.06315,0.0618 0.145107,0.0618 0.04434,0 0.09808,-0.0175 0.05374,-0.0188 0.127641,-0.0887 0.07524,-0.0699 0.12361,-0.18004 0.0739,-0.16258 0.188102,-0.61134 0.115549,-0.44875 0.115549,-0.60998 0,-0.12093 -0.05912,-0.19079 -0.05912,-0.0712 -0.155856,-0.0712 -0.151826,0 -0.278123,0.16526 -0.110174,0.13973 -0.233784,0.6382 -0.134359,0.53878 -0.134359,0.70135 z"
         style="font-size:2.75166631px;baseline-shift:sub;stroke-width:0.26458332"
         id="path1791" />
    </g>
    <g
       aria-label="0"
       style="font-style:normal;font-variant:normal;font-weight:normal;font-stretch:normal;font-size:4.23333311px;line-height:1.25;font-family:'CMU Classical Serif';-inkscape-font-specification:'CMU Classical Serif';text-align:center;letter-spacing:0px;word-spacing:0px;text-anchor:middle;fill:#000000;fill-opacity:1;stroke:none;stroke-width:0.26458332"
       id="text145-7-2">
      <path
         d="m 17.737091,115.83928 q 0,-0.12361 0.03896,-0.33992 0.04031,-0.21632 0.149138,-0.49041 0.108831,-0.27544 0.253938,-0.41651 0.181384,-0.17601 0.396358,-0.17601 0.06315,0 0.120923,0.0188 0.05777,0.0175 0.116892,0.0645 0.05912,0.0457 0.09539,0.14645 0.03628,0.10077 0.03628,0.24319 0,0.0793 -0.02284,0.22707 -0.0215,0.14779 -0.08196,0.36008 -0.06046,0.21094 -0.149138,0.39367 -0.08733,0.18138 -0.241846,0.31037 -0.154512,0.12898 -0.343958,0.12898 -0.06584,0 -0.122267,-0.0188 -0.05643,-0.0175 -0.115548,-0.0631 -0.05912,-0.047 -0.0954,-0.14645 -0.03493,-0.0994 -0.03493,-0.24185 z m 0.17601,0.14243 q 0,0.13973 0.06315,0.20288 0.06315,0.0618 0.145107,0.0618 0.04434,0 0.09808,-0.0175 0.05374,-0.0188 0.127641,-0.0887 0.07524,-0.0699 0.12361,-0.18004 0.0739,-0.16258 0.188102,-0.61133 0.115548,-0.44876 0.115548,-0.60999 0,-0.12093 -0.05912,-0.19079 -0.05912,-0.0712 -0.155856,-0.0712 -0.151825,0 -0.278122,0.16526 -0.110174,0.13973 -0.233784,0.6382 -0.134359,0.53878 -0.134359,0.70136 z"
         style="font-size:2.75166631px;baseline-shift:sub;stroke-width:0.26458332"
         id="path1788" />
    </g>
    <g
       aria-label="0"
       style="font-style:normal;font-variant:normal;font-weight:normal;font-stretch:normal;font-size:4.23333311px;line-height:1.25;font-family:'CMU Classical Serif';-inkscape-font-specification:'CMU Classical Serif';text-align:center;letter-spacing:0px;word-spacing:0px;text-anchor:middle;fill:#000000;fill-opacity:1;stroke:none;stroke-width:0.26458332"
       id="text145-7-4">
      <path
         d="m 11.379,121.90505 q 0,-0.12361 0.03896,-0.33993 0.04031,-0.21631 0.149138,-0.49041 0.10883,-0.27543 0.253938,-0.41651 0.181384,-0.17601 0.396358,-0.17601 0.06315,0 0.120923,0.0188 0.05777,0.0175 0.116892,0.0645 0.05912,0.0457 0.09539,0.14646 0.03628,0.10076 0.03628,0.24318 0,0.0793 -0.02284,0.22707 -0.0215,0.1478 -0.08196,0.36008 -0.06046,0.21095 -0.149138,0.39367 -0.08733,0.18139 -0.241846,0.31037 -0.154513,0.12899 -0.343958,0.12899 -0.06584,0 -0.122267,-0.0188 -0.05643,-0.0175 -0.115548,-0.0631 -0.05912,-0.047 -0.09539,-0.14645 -0.03493,-0.0994 -0.03493,-0.24185 z m 0.17601,0.14242 q 0,0.13973 0.06315,0.20288 0.06315,0.0618 0.145108,0.0618 0.04434,0 0.09808,-0.0175 0.05374,-0.0188 0.127641,-0.0887 0.07524,-0.0699 0.12361,-0.18004 0.0739,-0.16257 0.188102,-0.61133 0.115549,-0.44876 0.115549,-0.60999 0,-0.12092 -0.05912,-0.19079 -0.05912,-0.0712 -0.155856,-0.0712 -0.151825,0 -0.278123,0.16526 -0.110174,0.13974 -0.233784,0.63821 -0.134358,0.53878 -0.134358,0.70135 z"
         style="font-size:2.75166631px;baseline-shift:sub;stroke-width:0.26458332"
         id="path1785" />
    </g>
    <g
       aria-label="t"
       style="font-style:normal;font-variant:normal;font-weight:normal;font-stretch:normal;font-size:4.23333311px;line-height:1.25;font-family:'CMU Classical Serif';-inkscape-font-specification:'CMU Classical Serif';text-align:center;letter-spacing:0px;word-spacing:0px;text-anchor:middle;fill:#000000;fill-opacity:1;stroke:none;stroke-width:0.26458332"
       id="text7084-2"
       transform="translate(0.17460849,6.4943452)">
      <path
         d="m 17.136756,113.30766 q 0,-0.0724 0.09302,-0.0724 0.02067,0 0.06408,-0.002 0.04341,-0.002 0.06408,-0.002 0.04134,0 0.124024,0.002 0.08268,0.002 0.12609,0.002 l 0.150895,-0.61391 q 0.0124,-0.0517 0.01654,-0.06 0.0062,-0.0103 0.0186,-0.0331 0.0124,-0.0248 0.03101,-0.0269 0.0186,-0.002 0.05374,-0.002 h 0.07648 q 0.09302,0 0.09302,0.0558 0,0.0724 -0.165364,0.68006 h 0.347265 q 0.08888,0 0.08888,0.0558 0,0.0475 -0.03514,0.062 -0.03307,0.0145 -0.117822,0.0145 h -0.06821 q -0.04134,0 -0.124024,-0.002 -0.08268,-0.002 -0.12609,-0.002 -0.0083,0.0248 -0.02067,0.0847 -0.0124,0.0579 -0.02067,0.0847 l -0.254248,1.02733 q -0.04754,0.1943 -0.04548,0.27698 0,0.16743 0.115755,0.16743 0,0 0.0021,0 0.279052,0 0.496093,-0.54157 0.02067,-0.0558 0.07441,-0.0537 0.05581,0 0.05581,0.0455 0,0.11368 -0.190169,0.3824 -0.19017,0.26665 -0.448552,0.26665 -0.16123,0 -0.260449,-0.10749 -0.09922,-0.10955 -0.09922,-0.27491 0,-0.0889 0.02894,-0.18604 l 0.291455,-1.17202 h -0.343131 q -0.09302,0 -0.09302,-0.0558 z"
         style="stroke-width:0.26458332"
         id="path1004-7"
         inkscape:connector-curvature="0" />
    </g>
    <path
       style="fill:none;stroke:#000000;stroke-width:0.26499999;stroke-linecap:butt;stroke-linejoin:miter;stroke-miterlimit:4;stroke-dasharray:none;stroke-opacity:1;marker-start:url(#StopM);marker-end:url(#marker3167)"
       d="M 40.000002,117.99999 H 70.000001"
       id="path221"
       inkscape:connector-curvature="0"
       sodipodi:nodetypes="cc" />
    <g
       aria-label="tperiod"
       style="font-style:normal;font-variant:normal;font-weight:normal;font-stretch:normal;font-size:4.23333311px;line-height:1.25;font-family:'CMU Classical Serif';-inkscape-font-specification:'CMU Classical Serif';text-align:center;letter-spacing:0px;word-spacing:0px;text-anchor:middle;fill:#000000;fill-opacity:1;stroke:none;stroke-width:0.26458332"
       id="text1646">
      <path
         d="m 50.898222,119.35459 q 0,-0.0724 0.09302,-0.0724 0.02067,0 0.06408,-0.002 0.04341,-0.002 0.06408,-0.002 0.04134,0 0.124023,0.002 0.08268,0.002 0.126091,0.002 l 0.150895,-0.61392 q 0.0124,-0.0517 0.01654,-0.0599 0.0062,-0.0103 0.0186,-0.0331 0.0124,-0.0248 0.03101,-0.0269 0.0186,-0.002 0.05374,-0.002 h 0.07648 q 0.09302,0 0.09302,0.0558 0,0.0724 -0.165365,0.68006 h 0.347266 q 0.08888,0 0.08888,0.0558 0,0.0475 -0.03514,0.062 -0.03307,0.0145 -0.117822,0.0145 h -0.06821 q -0.04134,0 -0.124023,-0.002 -0.08268,-0.002 -0.126091,-0.002 -0.0083,0.0248 -0.02067,0.0847 -0.0124,0.0579 -0.02067,0.0847 l -0.254248,1.02732 q -0.04754,0.19431 -0.04547,0.27699 0,0.16743 0.115755,0.16743 0,0 0.0021,0 0.279053,0 0.496094,-0.54157 0.02067,-0.0558 0.07441,-0.0537 0.05581,0 0.05581,0.0455 0,0.11369 -0.190169,0.38241 -0.190169,0.26665 -0.448551,0.26665 -0.161231,0 -0.26045,-0.10749 -0.09922,-0.10955 -0.09922,-0.27492 0,-0.0889 0.02894,-0.18603 l 0.291455,-1.17202 h -0.343132 q -0.09302,0 -0.09302,-0.0558 z"
         style="stroke-width:0.26458332"
         id="path1770" />
      <path
         d="m 51.954178,122.44845 q 0,-0.0443 0.0739,-0.0484 0.0739,-0.004 0.09942,-0.0323 0.01344,-0.0188 0.04031,-0.11017 l 0.300964,-1.21058 q 0.0215,-0.082 0.0215,-0.11286 0,-0.0417 -0.04837,-0.0484 -0.04837,-0.007 -0.09808,-0.009 -0.04837,-0.003 -0.04837,-0.0349 0,-0.0363 0.043,-0.047 0.04434,-0.0108 0.19885,-0.0188 0.02418,-0.0134 0.0739,-0.0148 h 0.02284 q 0.04434,0 0.0618,0.008 0.01747,0.007 0.01747,0.0309 0,0.005 -0.01612,0.0712 0.151826,-0.13973 0.288872,-0.13973 0.151825,0 0.243189,0.12092 0.09271,0.12093 0.09271,0.30768 0,0.305 -0.201538,0.56431 -0.200194,0.25931 -0.432635,0.25931 -0.14242,0 -0.233784,-0.15451 -0.01075,0.0497 -0.04434,0.17735 -0.03225,0.12765 -0.05778,0.22976 -0.02418,0.10211 -0.02418,0.11555 0,0.047 0.09136,0.0484 0.09271,0.001 0.1048,0.0202 0.0054,0.0107 0.0054,0.0161 0,0.0161 -0.01747,0.0309 -0.01612,0.0161 -0.04031,0.0161 -0.01344,0 -0.09136,-0.003 -0.07658,-0.003 -0.167949,-0.003 -0.05509,0 -0.119579,0.001 -0.06449,0.001 -0.07793,0.001 -0.03628,0 -0.04837,-0.007 -0.01209,-0.007 -0.01209,-0.0255 z m 0.54684,-0.78465 q 0,0.0363 0.01344,0.0887 0.01478,0.051 0.06046,0.10614 0.04703,0.0551 0.112861,0.0551 0.102113,0 0.189446,-0.10749 0.08868,-0.10883 0.139733,-0.26066 0.05106,-0.15182 0.07927,-0.28887 0.02956,-0.13704 0.02956,-0.21766 0,-0.11286 -0.04031,-0.17601 -0.03896,-0.0632 -0.107487,-0.0632 -0.146451,0 -0.300963,0.22304 -0.02687,0.0443 -0.04703,0.11555 -0.0054,0.0108 -0.118236,0.46219 -0.01075,0.0551 -0.01075,0.0631 z"
         style="font-size:64.99999762%;baseline-shift:sub"
         id="path1772" />
      <path
         d="m 53.493928,121.49316 q 0,-0.33321 0.219005,-0.54549 0.219005,-0.21363 0.466225,-0.21363 0.118235,0 0.196163,0.0645 0.07927,0.0645 0.07927,0.16929 0,0.0363 -0.01075,0.0739 -0.01075,0.0363 -0.04031,0.0873 -0.02822,0.0511 -0.103456,0.0954 -0.0739,0.043 -0.181385,0.0645 -0.14242,0.0269 -0.386953,0.0282 -0.04703,0.20423 -0.04703,0.29694 0,0.12361 0.05106,0.21497 0.05106,0.09 0.159887,0.09 0.112861,0 0.243189,-0.0631 0.131672,-0.0632 0.22841,-0.17869 0.04165,-0.0524 0.06315,-0.0524 0.01344,0 0.02553,0.0121 0.01209,0.0107 0.01209,0.0269 0,0.0363 -0.07121,0.10749 -0.07121,0.0712 -0.213631,0.14107 -0.141076,0.0685 -0.292901,0.0685 -0.178698,0 -0.287528,-0.13302 -0.108831,-0.13436 -0.108831,-0.35471 z m 0.253938,-0.23915 q 0.604614,0 0.604614,-0.28753 0,-0.0752 -0.04837,-0.12227 -0.04702,-0.047 -0.124953,-0.047 -0.04165,0 -0.09271,0.0188 -0.04971,0.0175 -0.115548,0.0605 -0.06584,0.0417 -0.126297,0.14107 -0.06046,0.0994 -0.09674,0.23648 z"
         style="font-size:64.99999762%;baseline-shift:sub"
         id="path1774" />
      <path
         d="m 54.795864,121.88415 q 0,-0.008 0.01881,-0.086 l 0.196163,-0.77525 q 0.01612,-0.0631 0.01612,-0.0914 0,-0.0417 -0.04971,-0.0484 -0.04971,-0.007 -0.09943,-0.009 -0.04837,-0.003 -0.04837,-0.0322 0,-0.0417 0.05777,-0.0524 0.02687,-0.005 0.184072,-0.0134 0.03896,-0.0712 0.104799,-0.0725 0.04165,0 0.05912,0.0242 0.01747,0.0228 0.01747,0.0443 0,0.0188 -0.01881,0.1048 0.137046,-0.14242 0.291558,-0.14242 0.102113,0 0.185415,0.043 0.0833,0.0417 0.0833,0.13302 0,0.0551 -0.03897,0.0994 -0.03762,0.043 -0.09539,0.043 -0.03896,0 -0.06718,-0.0242 -0.02687,-0.0255 -0.02687,-0.0631 0,-0.0846 0.102112,-0.12898 -0.07121,-0.039 -0.145107,-0.039 -0.178697,0 -0.317087,0.25259 -0.02687,0.0497 -0.04568,0.11958 -0.01747,0.0685 -0.166604,0.66508 -0.01344,0.0605 -0.02553,0.0752 -0.01209,0.0134 -0.05106,0.0134 h -0.05777 q -0.06315,0 -0.06315,-0.039 z"
         style="font-size:64.99999762%;baseline-shift:sub"
         id="path1776" />
      <path
         d="m 55.962098,121.76054 q 0,-0.0793 0.126297,-0.44876 0.127641,-0.36949 0.127641,-0.39367 0,-0.0269 -0.03628,-0.0336 -0.03628,-0.008 -0.0833,-0.008 -0.04568,0 -0.05777,-0.008 -0.02687,-0.0188 -0.0054,-0.0551 0.01075,-0.0134 0.03628,-0.0188 0.02687,-0.005 0.0833,-0.009 0.05643,-0.004 0.0954,-0.009 0.01344,-0.003 0.02284,-0.005 0.01075,-0.004 0.01612,-0.005 0.0054,-0.001 0.02418,-0.003 0.02015,-0.001 0.05777,-0.001 h 0.01075 q 0.06315,0 0.06315,0.0363 0,0.005 -0.03225,0.1451 -0.01075,0.0443 -0.01881,0.0618 -0.0067,0.0161 -0.0094,0.0175 -0.0027,0.001 -0.01344,0.0242 -0.01075,0.0215 -0.02687,0.0699 -0.0524,0.1572 -0.12361,0.36948 -0.102113,0.30231 -0.102113,0.35202 0,0.0793 0.06315,0.0793 0.03359,0 0.06852,-0.0175 0.03628,-0.0175 0.08868,-0.0967 0.0524,-0.0806 0.09002,-0.21497 0.01612,-0.0578 0.0524,-0.0578 0.03896,0 0.03896,0.0349 0,0.0188 -0.0215,0.0806 -0.02015,0.0605 -0.05912,0.13839 -0.03762,0.0779 -0.110175,0.13839 -0.07121,0.0591 -0.155856,0.0591 -0.09405,0 -0.151825,-0.0618 -0.05777,-0.0618 -0.05777,-0.15854 z m 0.319773,-1.48332 q 0,-0.047 0.03762,-0.0873 0.03896,-0.0417 0.09136,-0.0417 0.03896,0 0.06584,0.0242 0.02822,0.0242 0.02822,0.0658 0,0.0497 -0.04031,0.09 -0.04031,0.039 -0.09002,0.039 -0.04165,0 -0.06718,-0.0242 -0.02553,-0.0242 -0.02553,-0.0658 z"
         style="font-size:64.99999762%;baseline-shift:sub"
         id="path1778" />
      <path
         d="m 56.753471,121.52944 q 0,-0.29962 0.220348,-0.54684 0.220348,-0.24856 0.478317,-0.24856 0.181384,0 0.291558,0.12629 0.110175,0.1263 0.110175,0.32784 0,0.29962 -0.220349,0.54684 -0.219004,0.24588 -0.478317,0.24588 -0.178697,0 -0.290215,-0.1263 -0.111517,-0.12764 -0.111517,-0.32515 z m 0.196163,0.10749 q 0,0.13167 0.05643,0.20557 0.05643,0.0739 0.151825,0.0739 0.146451,0 0.275436,-0.15048 0.09942,-0.11823 0.163917,-0.33186 0.06449,-0.21363 0.06449,-0.35337 0,-0.13167 -0.05777,-0.20691 -0.05777,-0.0766 -0.154512,-0.0766 -0.139733,0 -0.271405,0.15451 -0.09942,0.11555 -0.163917,0.33186 -0.06449,0.21632 -0.06449,0.35337 z"
         style="font-size:64.99999762%;baseline-shift:sub"
         id="path1780" />
      <path
         d="m 58.019129,121.55363 q 0,-0.30231 0.200195,-0.56028 0.201538,-0.25931 0.429948,-0.25931 0.157199,0 0.231097,0.16257 0.0215,-0.0967 0.06583,-0.26603 0.04434,-0.16929 0.07255,-0.28484 0.02956,-0.11555 0.02956,-0.13704 0,-0.0497 -0.09942,-0.0511 -0.09808,-0.001 -0.09808,-0.0403 0,-0.0443 0.08465,-0.0524 0.280809,-0.0242 0.283497,-0.0242 0.04434,0 0.04434,0.0376 0,0.0215 -0.01075,0.0551 l -0.366799,1.45645 q -0.03896,0.15183 -0.03762,0.21766 0,0.10883 0.06987,0.10883 0,0 0.0013,0 0.04165,0 0.07658,-0.0457 0.03628,-0.047 0.0524,-0.094 0.01612,-0.047 0.03628,-0.12227 0.0215,-0.0752 0.02418,-0.0873 0.01075,-0.039 0.04703,-0.0376 0.03896,0 0.03896,0.0349 0,0.0134 -0.0054,0.0363 -0.04703,0.18139 -0.106144,0.28081 -0.05912,0.0994 -0.171979,0.0994 -0.07658,0 -0.139733,-0.047 -0.0618,-0.047 -0.0833,-0.14645 -0.173323,0.19213 -0.33321,0.19348 -0.149138,0 -0.243189,-0.11958 -0.09271,-0.12093 -0.09271,-0.30768 z m 0.186759,0.12092 q 0,0.0941 0.03628,0.16795 0.03628,0.0739 0.118236,0.0739 0.09405,0 0.192132,-0.0941 0.09943,-0.0954 0.135703,-0.16929 0.0054,-0.0134 0.07793,-0.29559 0.07255,-0.28215 0.07255,-0.31037 0,-0.0658 -0.04703,-0.1572 -0.04568,-0.0927 -0.14242,-0.0927 -0.120923,0 -0.233784,0.16794 -0.08868,0.1263 -0.149139,0.36412 -0.06046,0.23781 -0.06046,0.3453 z"
         style="font-size:64.99999762%;baseline-shift:sub"
         id="path1782" />
    </g>
    <path
       style="fill:none;stroke:#000000;stroke-width:0.26499999;stroke-linecap:butt;stroke-linejoin:miter;stroke-miterlimit:4;stroke-dasharray:none;stroke-opacity:1;marker-start:url(#marker3815);marker-end:url(#marker3975);font-variant-east_asian:normal;opacity:1;vector-effect:none;fill-opacity:1;stroke-dashoffset:0"
       d="M 70.000001,117.99999 H 88.000002"
       id="path221-8"
       inkscape:connector-curvature="0"
       sodipodi:nodetypes="cc" />
    <g
       aria-label="t"
       style="font-style:normal;font-variant:normal;font-weight:normal;font-stretch:normal;font-size:4.23333311px;line-height:1.25;font-family:'CMU Classical Serif';-inkscape-font-specification:'CMU Classical Serif';text-align:center;letter-spacing:0px;word-spacing:0px;text-anchor:middle;fill:#000000;fill-opacity:1;stroke:none;stroke-width:0.26458332"
       id="text2973">
      <path
         d="m 77.487475,119.49363 q 0,-0.0723 0.09302,-0.0723 0.02067,0 0.06408,-0.002 0.04341,-0.002 0.06408,-0.002 0.04134,0 0.124023,0.002 0.08268,0.002 0.126091,0.002 l 0.150895,-0.61392 q 0.0124,-0.0517 0.01654,-0.06 0.0062,-0.0103 0.0186,-0.0331 0.0124,-0.0248 0.03101,-0.0269 0.0186,-0.002 0.05374,-0.002 h 0.07648 q 0.09302,0 0.09302,0.0558 0,0.0724 -0.165365,0.68007 h 0.347266 q 0.08888,0 0.08888,0.0558 0,0.0475 -0.03514,0.062 -0.03307,0.0145 -0.117822,0.0145 h -0.06821 q -0.04134,0 -0.124023,-0.002 -0.08268,-0.002 -0.126091,-0.002 -0.0083,0.0248 -0.02067,0.0847 -0.0124,0.0579 -0.02067,0.0847 l -0.254248,1.02733 q -0.04754,0.1943 -0.04547,0.27698 0,0.16744 0.115755,0.16744 0,0 0.0021,0 0.279053,0 0.496094,-0.54157 0.02067,-0.0558 0.07441,-0.0537 0.05581,0 0.05581,0.0455 0,0.11369 -0.190169,0.3824 -0.190169,0.26666 -0.448551,0.26666 -0.161231,0 -0.260449,-0.10749 -0.09922,-0.10956 -0.09922,-0.27492 0,-0.0889 0.02894,-0.18604 l 0.291455,-1.17202 h -0.343132 q -0.09302,0 -0.09302,-0.0558 z"
         style="stroke-width:0.26458332"
         id="path2978" />
      <path
         d="m 78.641513,122.06753 q 0,-0.0161 0.06987,-0.10748 l 1.339556,-1.78832 q 0.04165,-0.0524 0.08868,-0.0524 0.05509,0 0.06852,0.0712 l 0.451445,1.82459 q 0.0081,0.0336 0.0081,0.0376 0,0.0363 -0.05777,0.0363 h -1.901176 q -0.06718,0 -0.06718,-0.0215 z m 0.225722,-0.1881 h 1.486008 l -0.37083,-1.48601 z"
         style="font-size:64.99999762%;baseline-shift:sub"
         id="path2980" />
    </g>
  </g>
</svg>
